<?xml version="1.0" encoding="iso-8859-1"?>
<!-- Generator: Adobe Illustrator 19.0.0, SVG Export Plug-In . SVG Version: 6.00 Build 0)  -->
<svg xmlns="http://www.w3.org/2000/svg" xmlns:xlink="http://www.w3.org/1999/xlink" version="1.1" id="Layer_1" x="0px" y="0px" viewBox="0 0 512 512" style="enable-background:new 0 0 512 512;" xml:space="preserve" width="512" height="512">
<g>
	<circle style="fill:#537983;" cx="256" cy="256" r="256"/>
	<path style="fill:#3E5959;" d="M512,256c0-9.522-0.537-18.918-1.55-28.17L416.421,133.8l-9.711,9.711l-28.508-28.508   l-44.266,44.266l-9.72-9.72L95.572,378.195L227.826,510.45c9.254,1.013,18.65,1.55,28.174,1.55C397.385,512,512,397.385,512,256z"/>
	<g>
		<path style="fill:#F03800;" d="M416.427,133.8v244.4H293.412C284.765,389.856,270.852,397,256,397    c-14.852,0-28.765-7.144-37.412-18.8H95.573V133.8H416.427z"/>
		<path style="fill:#CD0000;" d="M416.427,133.8v244.4H293.412C284.765,389.856,270.852,397,256,397V133.8H416.427z"/>
		<path style="fill:#E0F4FF;" d="M293.6,115c-15.416,0-28.952,7.519-37.6,19.175C247.352,122.519,233.816,115,218.4,115h-84.6v225.6    h94c10.34,0,18.8,8.46,18.8,18.8h18.8c0-10.34,8.46-18.8,18.8-18.8h94V115H293.6z"/>
		<path style="fill:#BBDCFF;" d="M378.2,115v225.6h-94c-10.34,0-18.8,8.46-18.8,18.8H256V134.175    C264.648,122.519,278.184,115,293.6,115H378.2z"/>
		<rect x="284.2" y="199.6" style="fill:#9ABADB;" width="56.4" height="18.8"/>
		<rect x="171.4" y="199.6" style="fill:#BBDCFF;" width="56.4" height="18.8"/>
		<rect x="284.2" y="162" style="fill:#9ABADB;" width="56.4" height="18.8"/>
		<rect x="171.4" y="162" style="fill:#BBDCFF;" width="56.4" height="18.8"/>
		<rect x="284.2" y="237.2" style="fill:#9ABADB;" width="56.4" height="18.8"/>
		<rect x="171.4" y="237.2" style="fill:#BBDCFF;" width="56.4" height="18.8"/>
		<rect x="284.2" y="274.8" style="fill:#9ABADB;" width="56.4" height="18.8"/>
		<rect x="171.4" y="274.8" style="fill:#BBDCFF;" width="56.4" height="18.8"/>
	</g>
</g>















</svg>
