<?xml version="1.0" encoding="iso-8859-1"?>
<!-- Generator: Adobe Illustrator 19.0.0, SVG Export Plug-In . SVG Version: 6.00 Build 0)  -->
<svg xmlns="http://www.w3.org/2000/svg" xmlns:xlink="http://www.w3.org/1999/xlink" version="1.1" id="Layer_1" x="0px" y="0px" viewBox="0 0 512 512" style="enable-background:new 0 0 512 512;" xml:space="preserve" width="512" height="512">
<g>
	<circle style="fill:#FF641A;" cx="256" cy="256" r="256"/>
	<path style="fill:#F03800;" d="M391.168,136.611l-18.417,18.417l-63.75-63.75l-39.242,39.242l95.328,95.328L171.572,419.364   l92.497,92.497c137.177-4.249,247.16-116.405,247.914-254.436L391.168,136.611z"/>
	<g>
		<path style="fill:#FDBF00;" d="M284.481,75.855l-3.383-1.203l-3.383,1.203c-28.175,10.03-47.11,38.052-47.11,67.746    c0,17.475,6.479,34.23,18.244,47.189l42.347-14.535l37.889-51.273C323.011,102.832,306.335,83.626,284.481,75.855z"/>
		<circle style="fill:#7FE881;" cx="341.69" cy="187.082" r="70.69"/>
		<path style="fill:#FDBF00;" d="M341.69,237.575c-27.84,0-50.493-22.653-50.493-50.493s22.653-50.493,50.493-50.493    s50.493,22.653,50.493,50.493S369.53,237.575,341.69,237.575z"/>
		<polygon style="fill:#E0F4FF;" points="351.788,176.983 351.586,237.575 321.493,318.363 159.916,318.363 129.62,237.575     129.62,176.983   "/>
		<polygon style="fill:#BBDCFF;" points="351.788,176.983 351.586,237.575 321.493,318.363 240.704,318.363 240.704,176.983   "/>
		<path style="fill:#FFDA2D;" d="M351.586,237.575l-0.202,12.522l-42.211,169.252h-20.804l-3.231-23.631l-4.04,23.631h-20.197    l-20.197-32.921l-20.197,32.921H200.31l-4.04-23.631l-3.904,23.631h-20.804L129.62,247.673v-10.099h10.099    c3.433,0,6.868,0.202,10.099,0.807c26.66,3.232,49.079,19.793,60.996,42.415c5.049-12.926,11.512-25.246,19.793-36.558    l10.099-13.33l10.099,13.33c8.28,11.312,14.743,23.631,19.793,36.558c11.917-22.622,34.335-39.182,60.996-42.415    c3.231-0.605,6.665-0.807,10.099-0.807H351.586z"/>
		<path style="fill:#FDBF00;" d="M351.586,237.575l-0.202,12.522l-42.211,169.252h-20.804l-3.231-23.631l-4.04,23.631h-20.197    l-20.197-32.921V230.909l10.099,13.33c8.28,11.312,14.743,23.631,19.793,36.558c11.917-22.622,34.335-39.182,60.996-42.415    c3.231-0.605,6.665-0.807,10.099-0.807H351.586z"/>
		<path style="fill:#FDBF00;" d="M200.31,318.363c0-28.819-20.261-52.903-47.26-59.006l39.328,159.991h7.933v-84.151V318.363z"/>
		<path style="fill:#FDBF00;" d="M260.901,335.126v84.223h-40.394v-84.223c0-24.64,7.068-49.079,20.197-69.881    C253.833,286.047,260.901,310.486,260.901,335.126z"/>
		<path style="fill:#FF9100;" d="M281.099,318.363v16.834v84.151h7.26l40.001-159.991    C301.36,265.462,281.099,289.544,281.099,318.363z"/>
		<path style="fill:#FF9100;" d="M260.901,335.126v84.223h-20.197V265.245C253.833,286.047,260.901,310.486,260.901,335.126z"/>
	</g>
</g>















</svg>
