<?xml version="1.0" encoding="iso-8859-1"?>
<!-- Generator: Adobe Illustrator 19.0.0, SVG Export Plug-In . SVG Version: 6.00 Build 0)  -->
<svg xmlns="http://www.w3.org/2000/svg" xmlns:xlink="http://www.w3.org/1999/xlink" version="1.1" id="Layer_1" x="0px" y="0px" viewBox="0 0 512 512" style="enable-background:new 0 0 512 512;" xml:space="preserve" width="512" height="512">
<g>
	<circle style="fill:#537983;" cx="256" cy="256" r="256"/>
	<path style="fill:#3E5959;" d="M366.772,92.409l-49.333,6.667l-9.962,45.962l26.999,26.999l-28.871,28.871l-59.708-59.708   l-4.682,4.682l-45.665-45.665l-33.348,33.348l5.372,5.372l-62.687,62.687l90.667,90.667l-90.646,90.646l128.014,128.014   C240.526,511.633,248.22,512,256,512c141.385,0,256-114.615,256-256c0-13.219-1.003-26.203-2.935-38.881L385.564,93.618   L366.772,92.409z"/>
	<g>
		<path style="fill:#BBDCFF;" d="M397.041,201.628c0-16.522-14.506-29.014-31.634-40.297c17.127-11.283,31.634-23.775,31.634-40.297    c0-12.895-6.044-24.437-16.925-31.892c-8.866-6.246-21.156-9.269-33.446-9.067c-24.984,0.202-50.372,13.759-50.372,40.96    c0,16.522,14.506,29.014,31.634,40.297c-17.127,11.283-31.634,23.775-31.634,40.297c0,16.925,15.313,31.029,33.648,45.335    c-18.335,14.306-33.648,28.409-33.648,45.335v40.297h20.149v-40.297c0-8.865,15.515-21.559,30.223-32.641    c14.708,11.082,30.223,23.775,30.223,32.641v40.297h20.149v-40.297c0-16.925-15.313-31.029-33.648-45.335    C381.728,232.657,397.041,218.554,397.041,201.628z M316.446,121.033c0-16.724,19.745-21.415,30.223-21.415    c8.462,0,16.522,2.216,21.963,6.044c5.641,3.828,8.26,9.124,8.26,15.37c0,8.462-15.515,19.142-30.223,28.409    C331.961,140.175,316.446,129.495,316.446,121.033z M346.669,234.269c-14.708-11.082-30.223-23.775-30.223-32.641    c0-8.462,15.515-19.142,30.223-28.409c14.708,9.268,30.223,19.947,30.223,28.409C376.892,210.494,361.377,223.187,346.669,234.269    z"/>
		<path style="fill:#9ABADB;" d="M363.393,246.963c18.335,14.306,33.648,28.409,33.648,45.335v40.297h-20.149v-40.297    c0-8.865-15.515-21.559-30.223-32.641v-25.388c14.708-11.082,30.223-23.775,30.223-32.641c0-8.462-15.515-19.142-30.223-28.409    v-23.777c14.708-9.268,30.223-19.947,30.223-28.409c0-6.246-2.619-11.542-8.26-15.37c-5.441-3.828-13.501-6.044-21.963-6.044    V80.074c12.29-0.202,24.581,2.821,33.446,9.067c10.881,7.455,16.925,18.997,16.925,31.892c0,16.522-14.506,29.014-31.634,40.297    c17.127,11.283,31.634,23.775,31.634,40.297C397.041,218.554,381.728,232.657,363.393,246.963z"/>
		<rect x="155.256" y="100.213" style="fill:#BBDCFF;" width="40.297" height="323.723"/>
		<rect x="175.405" y="100.213" style="fill:#9ABADB;" width="20.149" height="323.723"/>
		<rect x="104.885" y="141.182" style="fill:#76E2F8;" width="141.041" height="60.446"/>
		<rect x="104.885" y="322.52" style="fill:#76E2F8;" width="141.041" height="60.446"/>
		<rect x="175.405" y="141.182" style="fill:#15CCEA;" width="70.52" height="60.446"/>
		<rect x="175.405" y="322.52" style="fill:#15CCEA;" width="70.52" height="60.446"/>
		<path style="fill:#76E2F8;" d="M326.521,423.936h-40.297V322.52h40.297V423.936z"/>
		<path style="fill:#15CCEA;" d="M407.115,423.936h-40.297V322.52h40.297V423.936z"/>
	</g>
</g>















</svg>
