<?xml version="1.0" encoding="iso-8859-1"?>
<!-- Generator: Adobe Illustrator 19.0.0, SVG Export Plug-In . SVG Version: 6.00 Build 0)  -->
<svg xmlns="http://www.w3.org/2000/svg" xmlns:xlink="http://www.w3.org/1999/xlink" version="1.1" id="Layer_1" x="0px" y="0px" viewBox="0 0 512 512" style="enable-background:new 0 0 512 512;" xml:space="preserve" width="512" height="512">
<g>
	<circle style="fill:#FF641A;" cx="256" cy="256" r="256"/>
	<path style="fill:#F03800;" d="M501.771,327.821L330.297,156.347l-6.698,6.698L258.984,98.43L187.333,98l-26,94.667   l-52.074,203.072l114.213,114.213C234.125,511.303,244.981,512,256,512C372.449,512,470.723,434.242,501.771,327.821z"/>
	<g>
		<path style="fill:#537983;" d="M275.185,137.355v28.167h-18.37v-28.167c0-20.207-16.533-36.739-36.739-36.739    s-36.739,16.532-36.739,36.739v28.167h-18.37v-28.167c0-30.31,24.799-55.109,55.109-55.109S275.185,107.044,275.185,137.355z"/>
		<path style="fill:#3E5959;" d="M275.185,137.355v28.167h-18.37v-28.167c0-20.207-16.533-36.739-36.739-36.739v-18.37    C250.386,82.246,275.185,107.044,275.185,137.355z"/>
		<polygon style="fill:#BBDCFF;" points="220.076,395.754 109.246,395.754 109.246,358.403 140.244,340.033 220.076,340.033     238.446,376.772   "/>
		<polygon style="fill:#E0F4FF;" points="330.294,156.336 330.294,358.403 109.246,358.403 109.246,156.336 164.967,156.336     174.152,174.706 183.337,156.336   "/>
		<rect x="220.076" y="156.336" style="fill:#BBDCFF;" width="110.218" height="202.066"/>
		<polygon style="fill:#FF641A;" points="201.706,216.827 174.152,189.273 146.597,216.827 146.597,266.554 174.152,284.924     201.706,266.554   "/>
		<rect x="146.597" y="266.554" style="fill:#F03800;" width="55.109" height="36.739"/>
		<g>
			<rect x="164.967" y="156.336" style="fill:#537983;" width="18.37" height="55.109"/>
		</g>
		<polygon style="fill:#76E2F8;" points="422.754,248.185 422.754,358.403 404.385,376.772 238.446,376.772 220.076,358.403     220.076,248.185   "/>
		<polygon style="fill:#15CCEA;" points="422.754,248.185 422.754,358.403 404.385,376.772 321.109,376.772 321.109,248.185   "/>
		<rect x="220.076" y="358.403" style="fill:#9BFCFF;" width="202.679" height="37.352"/>
		<rect x="321.109" y="358.403" style="fill:#76E2F8;" width="101.645" height="37.352"/>
		<path style="fill:#537983;" d="M367.033,239v45.924h-18.37V239c0-15.247-12.307-27.554-27.554-27.554S293.554,223.753,293.554,239    v45.924h-18.37V239c0-25.35,20.574-45.924,45.924-45.924S367.033,213.65,367.033,239z"/>
		<path style="fill:#3E5959;" d="M321.109,211.445v-18.37c25.35,0,45.924,20.574,45.924,45.924v45.924h-18.37V239    C348.663,223.753,336.356,211.445,321.109,211.445z"/>
	</g>
</g>















</svg>
