<?xml version="1.0" encoding="iso-8859-1"?>
<!-- Generator: Adobe Illustrator 19.0.0, SVG Export Plug-In . SVG Version: 6.00 Build 0)  -->
<svg xmlns="http://www.w3.org/2000/svg" xmlns:xlink="http://www.w3.org/1999/xlink" version="1.1" id="Layer_1" x="0px" y="0px" viewBox="0 0 512 512" style="enable-background:new 0 0 512 512;" xml:space="preserve" width="512" height="512">
<g>
	<circle style="fill:#76E2F8;" cx="256" cy="256" r="256"/>
	<path style="fill:#15CCEA;" d="M511.73,244.479L352.257,85.006l-38.031,38.032L287.46,96.272l-61.5,61.5l63.15,63.15   l-18.075,18.075l-99.247-99.247l-27.018,27.018l99.247,99.247l-85.336,85.336l-27.633-27.633l-27.018,27.018l27.633,27.633   l-14.612,14.612l118.176,118.176c6.853,0.55,13.78,0.842,20.775,0.842c141.385,0,256-114.615,256-256   C512,252.138,511.899,248.3,511.73,244.479z"/>
	<g>
		<rect x="135.094" y="139.742" style="fill:#FF641A;" width="36.695" height="54.141"/>
		<rect x="243.977" y="139.742" style="fill:#3E5959;" width="90.234" height="54.141"/>
		<rect x="289.094" y="139.742" style="fill:#293939;" width="45.117" height="54.141"/>
		<path style="fill:#537983;" d="M225.93,85v72.789h126.328V85H225.93z"/>
		<rect x="289.094" y="85" style="fill:#3E5959;" width="63.164" height="72.789"/>
		<path style="fill:#9BFCFF;" d="M243.977,103.047v36.695h90.234v-36.695H243.977z"/>
		<rect x="289.094" y="103.047" style="fill:#76E2F8;" width="45.117" height="36.695"/>
		<polygon style="fill:#FDBF00;" points="407,175.836 407,393 189.836,393 171.789,374.352 171.789,193.883 189.836,175.836   "/>
		<rect x="289.094" y="175.836" style="fill:#FF9100;" width="117.906" height="217.164"/>
		<path style="fill:#537983;" d="M289.094,211.93c-39.884,0-72.188,32.304-72.188,72.187s32.304,72.188,72.188,72.188    s72.188-32.303,72.188-72.188S328.978,211.93,289.094,211.93z"/>
		<path style="fill:#3E5959;" d="M361.281,284.117c0,39.884-32.303,72.188-72.188,72.188V211.93    C328.978,211.93,361.281,244.233,361.281,284.117z"/>
		<path style="fill:#76E2F8;" d="M343.234,284.117c0,29.778-24.363,54.141-54.141,54.141s-54.141-24.363-54.141-54.141    c0-29.778,24.363-54.141,54.141-54.141S343.234,254.339,343.234,284.117z"/>
		<path style="fill:#15CCEA;" d="M343.234,284.117c0,29.778-24.363,54.141-54.141,54.141V229.977    C318.872,229.977,343.234,254.339,343.234,284.117z"/>
		<rect x="117.047" y="175.836" style="fill:#3E5959;" width="72.789" height="217.164"/>
		<path style="fill:#537983;" d="M135.094,356.305h-18.047c-9.967,0-18.047-8.08-18.047-18.047V229.977    c0-9.967,8.08-18.047,18.047-18.047h18.047V356.305z"/>
		<rect x="352.258" y="211.93" style="fill:#3E5959;" width="18.648" height="18.047"/>
		<path style="fill:#15CCEA;" d="M325.188,284.117c0,19.851-16.243,36.094-36.094,36.094S253,303.968,253,284.117    c0-19.851,16.243-36.094,36.094-36.094S325.188,264.266,325.188,284.117z"/>
		<path style="fill:#00C0F1;" d="M325.188,284.117c0,19.851-16.243,36.094-36.094,36.094v-72.187    C308.945,248.023,325.188,264.266,325.188,284.117z"/>
		<path style="fill:#E0F4FF;" d="M307.141,284.117c0,9.926-8.121,18.047-18.047,18.047s-18.047-8.121-18.047-18.047    c0-9.926,8.121-18.047,18.047-18.047S307.141,274.192,307.141,284.117z"/>
		<path style="fill:#BBDCFF;" d="M307.141,284.117c0,9.926-8.121,18.047-18.047,18.047V266.07    C299.019,266.07,307.141,274.192,307.141,284.117z"/>
	</g>
</g>















</svg>
