<?xml version="1.0" encoding="iso-8859-1"?>
<!-- Generator: Adobe Illustrator 19.0.0, SVG Export Plug-In . SVG Version: 6.00 Build 0)  -->
<svg xmlns="http://www.w3.org/2000/svg" xmlns:xlink="http://www.w3.org/1999/xlink" version="1.1" id="Layer_1" x="0px" y="0px" viewBox="0 0 512 512" style="enable-background:new 0 0 512 512;" xml:space="preserve" width="512" height="512">
<g>
	<circle style="fill:#FDBF00;" cx="256" cy="256" r="256"/>
	<path style="fill:#FF9100;" d="M510.614,282.74L367.157,139.283l-24.969,24.969l-58.24-58.24l-59.397,59.397l58.524,58.523   L117.01,389.999l121.388,121.388C244.216,511.781,250.082,512,256,512C388.354,512,497.243,411.557,510.614,282.74z"/>
	<g>
		<polygon style="fill:#5BC980;" points="317.242,139.281 267.32,139.281 267.32,206.398 367.164,206.398 367.164,189.758   "/>
		<path style="fill:#00AB5E;" d="M317.242,139.281v16.641c0,18.38,14.901,33.836,33.281,33.836h16.641v-50.477H317.242z"/>
		<polygon style="fill:#7FE881;" points="234.039,106 184.117,106 134.195,155.922 134.195,189.758 283.961,189.758     283.961,155.922   "/>
		<polygon style="fill:#3E5959;" points="384.359,306.242 401,322.883 401,390 367.164,390 350.523,373.359 350.523,189.758     367.164,173.117 401,173.117 401,239.68 384.359,256.32   "/>
		<polygon style="fill:#293939;" points="401,322.883 401,390 367.164,390 350.523,373.359 350.523,281.281 384.359,281.281     384.359,306.242   "/>
		<rect x="117" y="173.117" style="fill:#537983;" width="250.164" height="216.883"/>
		<rect x="117" y="281.281" style="fill:#3E5959;" width="250.164" height="108.719"/>
		<path style="fill:#76E2F8;" d="M401,239.68v83.203h-75.437c-22.964,0-41.602-18.637-41.602-41.602    c0-11.482,4.66-21.966,12.147-29.454c7.488-7.488,17.972-12.147,29.454-12.147H401z"/>
		<path style="fill:#15CCEA;" d="M401,281.281v41.602h-75.437c-22.964,0-41.602-18.637-41.602-41.602H401z"/>
		<rect x="200.758" y="139.281" style="fill:#5BC980;" width="16.641" height="16.641"/>
		<rect x="150.836" y="206.398" style="fill:#3E5959;" width="16.641" height="16.641"/>
		<rect x="150.836" y="239.68" style="fill:#3E5959;" width="16.641" height="16.641"/>
		<rect x="150.836" y="272.961" style="fill:#3E5959;" width="16.641" height="16.641"/>
		<rect x="150.836" y="306.242" style="fill:#293939;" width="16.641" height="16.641"/>
		<rect x="150.836" y="339.523" style="fill:#293939;" width="16.641" height="16.641"/>
		<rect x="184.117" y="339.523" style="fill:#293939;" width="16.641" height="16.641"/>
		<rect x="217.398" y="339.523" style="fill:#293939;" width="16.641" height="16.641"/>
		<rect x="250.68" y="339.523" style="fill:#293939;" width="16.641" height="16.641"/>
		<rect x="283.961" y="339.523" style="fill:#293939;" width="16.641" height="16.641"/>
		<rect x="317.242" y="339.523" style="fill:#293939;" width="16.641" height="16.641"/>
		<rect x="317.242" y="272.961" style="fill:#3E5959;" width="16.641" height="16.641"/>
		<rect x="184.117" y="206.398" style="fill:#3E5959;" width="16.641" height="16.641"/>
		<rect x="217.398" y="206.398" style="fill:#3E5959;" width="16.641" height="16.641"/>
		<rect x="250.68" y="206.398" style="fill:#3E5959;" width="16.641" height="16.641"/>
		<rect x="283.961" y="206.398" style="fill:#3E5959;" width="16.641" height="16.641"/>
		<rect x="317.242" y="206.398" style="fill:#3E5959;" width="16.641" height="16.641"/>
		<rect x="317.242" y="281.281" style="fill:#293939;" width="16.641" height="8.32"/>
		<rect x="150.836" y="281.281" style="fill:#293939;" width="16.641" height="8.32"/>
		<path style="fill:#5BC980;" d="M184.117,122.641V106h-49.922v49.922h16.641C169.216,155.922,184.117,141.021,184.117,122.641z"/>
		<path style="fill:#5BC980;" d="M234.039,106v16.641c0,18.38,14.901,33.281,33.281,33.281h16.641V106H234.039z"/>
	</g>
</g>















</svg>
