<?xml version="1.0" encoding="iso-8859-1"?>
<!-- Generator: Adobe Illustrator 19.0.0, SVG Export Plug-In . SVG Version: 6.00 Build 0)  -->
<svg xmlns="http://www.w3.org/2000/svg" xmlns:xlink="http://www.w3.org/1999/xlink" version="1.1" id="Layer_1" x="0px" y="0px" viewBox="0 0 512 512" style="enable-background:new 0 0 512 512;" xml:space="preserve" width="512" height="512">
<g>
	<circle style="fill:#537983;" cx="256" cy="256" r="256"/>
	<path style="fill:#3E5959;" d="M406.735,177.616l-8.417,8.417l-82.521-82.521l-85.482-2.518l-26.655,41.345l-46.742-46.743   l-41.143,41.143l44.284,93.284L97.025,342.057l44.104,44.104l-26,26l95.897,95.896C225.628,510.646,240.656,512,256,512   c132.741,0,241.879-101.031,254.729-230.391L406.735,177.616z"/>
	<g>
		<path style="fill:#FDBF00;" d="M263.348,224.644c-28.573,0-29.355,114.094-29.355,127.207c0,44.424,4.697,69.148,29.355,69.148    s29.355-24.725,29.355-69.148C292.703,338.739,291.921,224.644,263.348,224.644z"/>
		<path style="fill:#FF9100;" d="M292.703,351.852c0,44.424-4.697,69.148-29.355,69.148V224.644    C291.921,224.644,292.703,338.739,292.703,351.852z"/>
		<path style="fill:#FDBF00;" d="M136.141,87c-16.244,0-29.355,13.112-29.355,29.355c0,0.782,4.893,69.148,29.355,69.148    s29.355-68.366,29.355-69.148C165.496,100.112,152.384,87,136.141,87z"/>
		<path style="fill:#FDBF00;" d="M136.141,322.496c-24.463,0-29.355,68.365-29.355,69.148c0,16.242,13.112,29.355,29.355,29.355    s29.355-13.113,29.355-29.355C165.496,390.861,160.604,322.496,136.141,322.496z"/>
		<path style="fill:#FED2A4;" d="M381.422,302.926c-29.943,0-49.578,45.011-49.578,68.496c0,27.007,22.571,49.578,49.578,49.578    S431,398.429,431,371.422C431,347.937,411.365,302.926,381.422,302.926z"/>
		<path style="fill:#FED2A4;" d="M381.422,165.934c-29.943,0-49.578,45.011-49.578,68.496c0,27.007,22.571,48.926,49.578,48.926    S431,261.437,431,234.43C431,210.945,411.365,165.934,381.422,165.934z"/>
		<path style="fill:#FF9100;" d="M165.496,391.644c0,16.242-13.112,29.355-29.355,29.355v-98.504    C160.604,322.496,165.496,390.861,165.496,391.644z"/>
		<path style="fill:#FF9100;" d="M136.141,185.504V87c16.244,0,29.355,13.112,29.355,29.355    C165.496,117.138,160.604,185.504,136.141,185.504z"/>
		<path style="fill:#FFBD86;" d="M431,371.422C431,398.429,408.429,421,381.422,421V302.926    C411.365,302.926,431,347.937,431,371.422z"/>
		<path style="fill:#FFBD86;" d="M381.422,283.355V165.934c29.943,0,49.578,45.011,49.578,68.496    C431,261.437,408.429,283.355,381.422,283.355z"/>
		<path style="fill:#E0F4FF;" d="M263.348,87c-56.558,0-68.496,32.552-68.496,59.363c0,44.229,30.53,97.852,68.496,97.852    s68.496-53.622,68.496-97.852C331.844,119.552,319.906,87,263.348,87z M263.348,224.644c-25.245,0-48.926-44.033-48.926-78.281    c0-18.2,5.48-39.793,48.926-39.793s48.926,21.593,48.926,39.793C312.273,180.611,288.593,224.644,263.348,224.644z"/>
		<path style="fill:#BBDCFF;" d="M331.844,146.363c0,44.229-30.53,97.852-68.496,97.852v-19.57    c25.245,0,48.926-44.033,48.926-78.281c0-18.2-5.48-39.793-48.926-39.793V87C319.906,87,331.844,119.552,331.844,146.363z"/>
		<path style="fill:#E0F4FF;" d="M263.348,87c-29.355,0-29.355,44.881-29.355,59.363c0,0.978,0.392,97.852,29.355,97.852    s29.355-96.873,29.355-97.852C292.703,131.881,292.703,87,263.348,87z M263.348,218.968c-4.697-13.308-9.785-42.663-9.785-72.605    c0-27.007,4.893-39.793,9.785-39.793s9.785,12.786,9.785,39.793C273.133,176.305,268.044,205.661,263.348,218.968z"/>
		<path style="fill:#BBDCFF;" d="M292.703,146.363c0,0.978-0.392,97.852-29.355,97.852v-25.246    c4.697-13.308,9.785-42.663,9.785-72.605c0-27.007-4.893-39.793-9.785-39.793V87C292.703,87,292.703,131.881,292.703,146.363z"/>
		<path style="fill:#FFDA2D;" d="M97,165.934v176.133h78.281V165.934H97z"/>
		<rect x="136.141" y="165.934" style="fill:#FDBF00;" width="39.141" height="176.133"/>
	</g>
</g>















</svg>
