<?xml version="1.0" encoding="iso-8859-1"?>
<!-- Generator: Adobe Illustrator 19.0.0, SVG Export Plug-In . SVG Version: 6.00 Build 0)  -->
<svg xmlns="http://www.w3.org/2000/svg" xmlns:xlink="http://www.w3.org/1999/xlink" version="1.1" id="Layer_1" x="0px" y="0px" viewBox="0 0 512 512" style="enable-background:new 0 0 512 512;" xml:space="preserve" width="512" height="512">
<g>
	<circle style="fill:#537983;" cx="256" cy="256" r="256"/>
	<path style="fill:#3E5959;" d="M269.26,218.01l-76.729-76.729l-51.24,51.24l76.729,76.729L112.529,374.741L249.708,511.92   c2.091,0.05,4.188,0.08,6.292,0.08c141.385,0,256-114.615,256-256c0-2.111-0.029-4.215-0.08-6.313L374.752,112.519L269.26,218.01z"/>
	<g>
		<path style="fill:#BBDCFF;" d="M221.917,315.566l93.649-93.649c23.511,12.665,53.948,8.759,73.801-11.094    c19.853-19.853,23.168-49.699,10.503-73.21l-35.586,35.586l-12.541-12.541l-12.541-12.541l35.586-35.586    c-23.511-12.665-53.357-9.35-73.21,10.503c-19.853,19.853-23.759,50.29-11.094,73.801l-93.649,93.649    c-23.511-12.665-53.948-8.759-73.801,11.094c-19.853,19.853-23.168,49.699-10.503,73.21l35.586-35.586l12.541,12.541    l12.541,12.541l-35.586,35.586c23.511,12.665,53.357,9.35,73.21-10.503C230.676,369.514,234.582,339.077,221.917,315.566z"/>
		<path style="fill:#9ABADB;" d="M137.613,399.87c23.511,12.665,53.357,9.35,73.21-10.503c19.853-19.853,23.759-50.29,11.094-73.801    l93.649-93.649c23.511,12.665,53.948,8.759,73.801-11.094c19.853-19.853,23.168-49.699,10.503-73.21l-35.586,35.586    l-12.541-12.541L160.658,351.743l12.541,12.541L137.613,399.87z"/>
		<g>
			<polygon style="fill:#E0F4FF;" points="199.082,173.999 192.536,141.256 126.663,104.667 115.665,115.665 104.667,126.663      141.256,192.536 173.999,199.082 268.557,293.639 281.098,281.098 293.639,268.557    "/>
			<polygon style="fill:#BBDCFF;" points="141.256,192.536 173.999,199.082 268.557,293.639 281.098,281.098 115.665,115.665      104.667,126.663    "/>
		</g>
		<path style="fill:#FF641A;" d="M396.899,396.899c-13.834,14.012-36.181,14.012-50.015,0L231.184,281.2l50.016-50.016    l115.699,115.7C410.911,360.718,410.911,383.065,396.899,396.899z"/>
		<path style="fill:#F03800;" d="M396.899,396.899c-13.834,14.012-36.181,14.012-50.015,0L231.184,281.2l25.009-25.008    L396.899,396.899z"/>
		<g>
			<polygon style="fill:#F03800;" points="293.639,293.639 287.369,299.91 299.91,312.451 306.181,306.181 312.451,299.91      299.91,287.369    "/>
			<polygon style="fill:#F03800;" points="318.722,318.722 312.451,324.993 324.993,337.534 331.264,331.263 337.534,324.993      324.993,312.451    "/>
			<polygon style="fill:#F03800;" points="350.076,337.534 343.805,343.805 337.534,350.076 350.076,362.617 356.346,356.346      362.617,350.076    "/>
		</g>
		
			<rect x="292.341" y="294.177" transform="matrix(-0.7071 0.7071 -0.7071 -0.7071 720.9117 307.4794)" style="fill:#CD0000;" width="8.868" height="17.736"/>
		
			<rect x="317.423" y="319.26" transform="matrix(-0.7071 0.7071 -0.7071 -0.7071 781.4668 332.5622)" style="fill:#CD0000;" width="8.868" height="17.736"/>
		
			<rect x="342.506" y="344.343" transform="matrix(-0.7071 0.7071 -0.7071 -0.7071 842.0219 357.6449)" style="fill:#CD0000;" width="8.868" height="17.736"/>
	</g>
</g>















</svg>
