<?xml version="1.0" encoding="iso-8859-1"?>
<!-- Generator: Adobe Illustrator 19.0.0, SVG Export Plug-In . SVG Version: 6.00 Build 0)  -->
<svg xmlns="http://www.w3.org/2000/svg" xmlns:xlink="http://www.w3.org/1999/xlink" version="1.1" id="Layer_1" x="0px" y="0px" viewBox="0 0 512 512" style="enable-background:new 0 0 512 512;" xml:space="preserve" width="512" height="512">
<g>
	<circle style="fill:#FDBF00;" cx="256" cy="256" r="256"/>
	<path style="fill:#FF9100;" d="M510.697,281.966L373.818,145.087l-16.641,16.641l-43.984-43.984l-40.541,40.541l17.336,17.336   L104.98,360.628l26.547,26.547l-8.828,8.828l115.362,115.362C243.989,511.775,249.968,512,256,512   C388.619,512,497.683,411.155,510.697,281.966z"/>
	<g>
		<path style="fill:#FF641A;" d="M389.323,182.468v97.928H122.677v-97.928c0-29.202,23.892-53.093,53.093-53.093    c4.247,0,8.495,0.531,12.566,1.416C202.848,107.96,228.392,93.979,256,93.979s53.152,13.981,67.664,36.812    c4.071-0.885,8.319-1.416,12.566-1.416C365.432,129.375,389.323,153.266,389.323,182.468z"/>
		<path style="fill:#F03800;" d="M389.323,280.395H256V93.979c27.608,0,53.152,13.981,67.664,36.812    c4.071-0.885,8.319-1.416,12.566-1.416c29.202,0,53.093,23.892,53.093,53.093V280.395z"/>
		<path style="fill:#FFDA2D;" d="M220.604,200.166h-35.985c-14.639,0-26.547,11.908-26.547,26.547v17.698h89.079v-17.698    C247.151,212.074,235.243,200.166,220.604,200.166z"/>
		<path style="fill:#FDBF00;" d="M327.381,200.166h-35.985c-14.639,0-26.547,11.908-26.547,26.547v17.698h89.079v-17.698    C353.928,212.074,342.02,200.166,327.381,200.166z"/>
		<path style="fill:#E0F4FF;" d="M389.323,280.395v17.698H122.677v-17.698c0-24.423,19.821-44.834,44.244-44.834h178.157    C369.502,235.561,389.323,255.972,389.323,280.395z"/>
		<path style="fill:#BBDCFF;" d="M389.323,280.395v17.698H256v-62.532h89.079C369.502,235.561,389.323,255.972,389.323,280.395z"/>
		<polygon style="fill:#293939;" points="337.163,355.734 357.306,396.021 389.323,396.021 389.323,351.776   "/>
		<polygon style="fill:#3E5959;" points="122.677,351.776 122.677,396.021 154.694,396.021 174.837,355.734   "/>
		
			<rect x="247.115" y="129.338" transform="matrix(0.7071 -0.7071 0.7071 0.7071 -22.7581 221.5041)" style="fill:#F03800;" width="17.771" height="17.771"/>
		
			<rect x="318.533" y="164.771" transform="matrix(0.7071 0.7071 -0.7071 0.7071 218.6548 -180.6415)" style="fill:#CD0000;" width="17.696" height="17.696"/>
		
			<rect x="175.771" y="164.771" transform="matrix(0.7071 0.7071 -0.7071 0.7071 176.8409 -79.6936)" style="fill:#F03800;" width="17.696" height="17.696"/>
		
			<rect x="247.115" y="182.431" transform="matrix(0.7071 -0.7071 0.7071 0.7071 -60.3007 237.0547)" style="fill:#F03800;" width="17.771" height="17.771"/>
		
			<rect x="220.605" y="155.922" transform="matrix(0.7071 0.7071 -0.7071 0.7071 183.7154 -113.988)" style="fill:#F03800;" width="17.696" height="17.696"/>
		
			<rect x="273.699" y="155.922" transform="matrix(0.7071 0.7071 -0.7071 0.7071 199.2661 -151.5306)" style="fill:#CD0000;" width="17.696" height="17.696"/>
		<polygon style="fill:#CD0000;" points="268.566,191.317 256,203.883 256,178.751   "/>
		<polygon style="fill:#CD0000;" points="268.566,138.223 256,150.789 256,125.658   "/>
		<path style="fill:#FF641A;" d="M380.474,289.244H131.526c-14.689,0-26.547,11.857-26.547,26.547v44.834h302.042v-44.834    C407.021,301.102,395.164,289.244,380.474,289.244z"/>
		<path style="fill:#F03800;" d="M407.021,315.791v44.834H256v-71.381h124.474C395.164,289.244,407.021,301.102,407.021,315.791z"/>
	</g>
</g>















</svg>
