<?xml version="1.0" encoding="iso-8859-1"?>
<!-- Generator: Adobe Illustrator 19.0.0, SVG Export Plug-In . SVG Version: 6.00 Build 0)  -->
<svg xmlns="http://www.w3.org/2000/svg" xmlns:xlink="http://www.w3.org/1999/xlink" version="1.1" id="Layer_1" x="0px" y="0px" viewBox="0 0 512 512" style="enable-background:new 0 0 512 512;" xml:space="preserve" width="512" height="512">
<g>
	<circle style="fill:#FDBF00;" cx="256" cy="256" r="256"/>
	<path style="fill:#FF9100;" d="M295.5,97l-136,5l-48.079,101.929l111.695,111.695l-81.664,81.664l114.71,114.71   C397.472,511.91,512,397.331,512,256c0-1.962-0.03-3.916-0.074-5.867L363.04,101.247L295.5,97z"/>
	<g>
		<path style="fill:#537983;" d="M376.969,134.289h-18.516c0-15.368-12.405-27.773-27.773-27.773H181.32    c-15.368,0-27.773,12.405-27.773,27.773h-18.516c0-25.552,20.737-46.289,46.289-46.289H330.68    C356.231,88,376.969,108.737,376.969,134.289z"/>
		<path style="fill:#3E5959;" d="M330.68,106.516H256V88h74.68c25.552,0,46.289,20.737,46.289,46.289h-18.516    C358.453,118.921,346.048,106.516,330.68,106.516z"/>
		<rect x="246.742" y="134.289" style="fill:#537983;" width="18.516" height="37.031"/>
		<rect x="256" y="134.289" style="fill:#3E5959;" width="9.258" height="37.031"/>
		
			<rect x="145.288" y="181.537" transform="matrix(0.7071 0.7071 -0.7071 0.7071 182.877 -59.9156)" style="fill:#537983;" width="36.951" height="18.514"/>
		
			<rect x="338.98" y="172.319" transform="matrix(0.7071 0.7071 -0.7071 0.7071 236.9081 -190.3584)" style="fill:#3E5959;" width="18.514" height="36.951"/>
		
			<rect x="149.945" y="354.904" transform="matrix(0.7071 0.7071 -0.7071 0.7071 315.209 -1.3234)" style="fill:#537983;" width="18.514" height="49.851"/>
		
			<rect x="327.872" y="370.572" transform="matrix(0.7071 0.7071 -0.7071 0.7071 371.9122 -138.2165)" style="fill:#3E5959;" width="49.851" height="18.514"/>
		<path style="fill:#FF641A;" d="M256,162.062c-66.286,0-120.969,54.682-120.969,120.969C135.031,349.316,189.714,404,256,404    s120.969-54.684,120.969-120.969C376.969,216.745,322.286,162.062,256,162.062z"/>
		<path style="fill:#F03800;" d="M376.969,283.031C376.969,349.316,322.286,404,256,404V162.062    C322.286,162.062,376.969,216.745,376.969,283.031z"/>
		<path style="fill:#E0F4FF;" d="M256,199.094c-45.918,0-83.937,38.018-83.937,83.937c0,45.918,38.019,83.938,83.937,83.938    s83.937-38.019,83.937-83.938C339.937,237.112,301.918,199.094,256,199.094z"/>
		<path style="fill:#BBDCFF;" d="M339.937,283.031c0,45.918-38.019,83.938-83.937,83.938V199.094    C301.918,199.094,339.937,237.112,339.937,283.031z"/>
		<rect x="209.094" y="125.031" style="fill:#BBDCFF;" width="93.195" height="18.516"/>
		<polygon style="fill:#537983;" points="288.958,293.769 278.589,309.323 256,294.14 246.742,288.03 246.742,236.125     265.258,236.125 265.258,278.032   "/>
		<polygon style="fill:#3E5959;" points="288.958,293.769 278.589,309.323 256,294.14 256,236.125 265.258,236.125 265.258,278.032       "/>
		<path style="fill:#BBDCFF;" d="M132.708,216.886l-7.432-3.345C108.232,205.848,98,189.072,98,171.32    c0-25.522,20.767-46.289,46.289-46.289c18.199,0,34.78,10.731,42.248,27.339l3.345,7.441l-6.961,4.258    C148.66,184.989,135.282,213.51,132.708,216.886z"/>
		<path style="fill:#9ABADB;" d="M379.292,216.886l-4.258-6.943c-11.473-18.66-27.358-34.518-45.946-45.855l-6.961-4.249    l3.336-7.441c7.45-16.626,24.031-27.367,42.248-27.367c25.522,0,46.289,20.767,46.289,46.289    c0,18.687-11.095,34.912-27.276,42.212L379.292,216.886z"/>
		<rect x="256" y="125.031" style="fill:#9ABADB;" width="46.289" height="18.516"/>
	</g>
</g>















</svg>
