<?xml version="1.0" encoding="iso-8859-1"?>
<!-- Generator: Adobe Illustrator 19.0.0, SVG Export Plug-In . SVG Version: 6.00 Build 0)  -->
<svg xmlns="http://www.w3.org/2000/svg" xmlns:xlink="http://www.w3.org/1999/xlink" version="1.1" id="Layer_1" x="0px" y="0px" viewBox="0 0 512 512" style="enable-background:new 0 0 512 512;" xml:space="preserve" width="512" height="512">
<g>
	<circle style="fill:#FDBF00;" cx="256" cy="256" r="256"/>
	<path style="fill:#FF9100;" d="M511.99,255.23L357.123,100.364l-62.13,62.129l31.797,31.797l-20.568,20.568L191.332,99.968   l-62.13,62.13l31.25,31.25l-46.115,46.114l58.85,58.85l1.791,50.791l-53.896,50.896L231.95,510.867   C239.869,511.605,247.888,512,256,512c141.385,0,256-114.615,256-256C512,255.743,511.991,255.488,511.99,255.23z"/>
	<g>
		<polygon style="fill:#537983;" points="364.317,399.985 147.771,399.985 256.044,291.712   "/>
		<polygon style="fill:#3E5959;" points="364.317,399.985 256.044,399.985 256.044,291.712   "/>
		<path style="fill:#5BC980;" d="M338.452,243.468c-5.71,2.756-17.681,13.89-39.677,7.498    c-14.371-4.185-25.888-16.274-29.342-30.804c-3.577-15.076,0.784-30.425,11.657-41.061c4.344-4.247,5.868-10.318,4.185-16.645    c-3.357-12.715,3.983-27.359,16.028-31.976c5.71-2.194,9.728-7.428,10.503-13.666C313.525,103.246,325.226,92,338.452,92    c13.226,0,24.927,11.246,26.645,24.824c0.775,6.23,4.802,11.472,10.503,13.657c12.045,4.617,19.385,19.261,16.028,31.976    c-1.674,6.335,0.661,12.397,4.996,16.645c10.873,10.635,15.836,25.984,12.259,41.052c-3.454,14.539-16.383,26.628-30.754,30.813    C357.158,257.093,340.279,244.209,338.452,243.468z"/>
		<polygon style="fill:#00AB5E;" points="380.922,216.285 368.163,203.527 347.475,224.216 347.475,195.597 371.899,171.172     359.141,158.413 347.475,170.079 347.475,146.747 329.429,146.747 329.429,364.59 347.475,364.59 347.475,249.733   "/>
		<path style="fill:#7FE881;" d="M173.035,243.468c-5.71,2.756-17.681,13.89-39.677,7.498    c-14.371-4.185-26.489-16.274-29.943-30.804c-3.577-15.076,0.784-30.425,11.657-41.061c4.344-4.247,5.868-10.318,4.185-16.645    c-3.357-12.715,4.584-27.359,16.629-31.976c5.71-2.194,9.728-7.428,10.503-13.666C148.108,103.246,159.809,92,173.035,92    s24.927,11.246,26.645,24.824c0.775,6.23,4.802,11.472,10.503,13.657c12.045,4.617,19.385,19.261,16.028,31.976    c-1.674,6.335-0.15,12.397,4.185,16.645c10.873,10.635,15.235,25.984,11.657,41.052c-3.454,14.539-14.97,26.628-29.342,30.813    C191.741,257.093,174.862,244.209,173.035,243.468z"/>
		<polygon style="fill:#5BC980;" points="164.012,146.747 164.012,170.079 152.346,158.413 139.587,171.172 164.012,195.597     164.012,224.216 143.323,203.527 130.564,216.285 164.012,249.733 164.012,364.59 182.057,364.59 182.057,146.747   "/>
		<path style="fill:#76E2F8;" d="M256.044,212.612l-134.98,187.373h26.707c48.723,0,90.589-29.776,108.273-72.182    c17.684,42.406,59.55,72.182,108.273,72.182h26.707L256.044,212.612z"/>
		<path style="fill:#15CCEA;" d="M391.024,399.985h-26.707c-48.723,0-90.589-29.776-108.273-72.182V212.612L391.024,399.985z"/>
	</g>
</g>















</svg>
