<?xml version="1.0" encoding="iso-8859-1"?>
<!-- Generator: Adobe Illustrator 19.0.0, SVG Export Plug-In . SVG Version: 6.00 Build 0)  -->
<svg xmlns="http://www.w3.org/2000/svg" xmlns:xlink="http://www.w3.org/1999/xlink" version="1.1" id="Layer_1" x="0px" y="0px" viewBox="0 0 512 512" style="enable-background:new 0 0 512 512;" xml:space="preserve" width="512" height="512">
<g>
	<circle style="fill:#537983;" cx="256" cy="256" r="256"/>
	<path style="fill:#3E5959;" d="M399.019,197.004l-25.009,25.009l-32.165-32.165l-7.852,7.852l-89.227-89.227l-42.898,42.898   l32.635,32.635l-83.052,83.052l32.049,32.049L158.809,323.8L186.25,351l0.813,39.438l-30-30l-26,26l125.555,125.555   c124.266-0.294,227.714-89.126,250.633-206.756L399.019,197.004z"/>
	<g>
		<path style="fill:#76E2F8;" d="M325.314,222.786l16.559-32.934l-16.559-8.095l-9.566,19.318l-0.552,0.921l-0.552-0.921    l-9.566-19.318l-16.559,8.095l16.559,32.934L227.434,398h176.135L325.314,222.786z"/>
		<polygon style="fill:#15CCEA;" points="403.569,398 315.195,398 315.195,201.995 315.748,201.075 325.314,181.756     341.873,189.852 325.314,222.786   "/>
		<rect x="177.207" y="314.594" style="fill:#E0F4FF;" width="18.398" height="83.406"/>
		<rect x="186.406" y="314.594" style="fill:#BBDCFF;" width="9.199" height="83.406"/>
		<path style="fill:#FDBF00;" d="M191.741,271.174l-5.335-3.864l-5.335,3.864c-13.983,10.119-22.263,26.31-22.263,43.42v9.199    h55.195v-9.199C214.004,297.483,205.724,281.293,191.741,271.174z"/>
		<path style="fill:#FF9100;" d="M214.004,314.594v9.199h-27.598V267.31l5.335,3.864    C205.724,281.293,214.004,297.483,214.004,314.594z"/>
		<path style="fill:#FFDA2D;" d="M186.406,84C140.778,84,103,121.777,103,167.406c0,58.323,58.016,119.59,83.406,119.59    s82.793-61.267,82.793-119.59C269.199,121.777,232.034,84,186.406,84z"/>
		<path style="fill:#FDBF00;" d="M269.199,167.406c0,58.323-57.403,119.59-82.793,119.59V84    C232.034,84,269.199,121.777,269.199,167.406z"/>
		<rect x="287.598" y="342.191" style="fill:#9BFCFF;" width="18.398" height="18.398"/>
		<rect x="305.996" y="305.394" style="fill:#9BFCFF;" width="18.398" height="18.398"/>
		
			<rect x="131.212" y="351.393" transform="matrix(0.7071 0.7071 -0.7071 0.7071 302.6055 9.0237)" style="fill:#9BFCFF;" width="18.396" height="36.793"/>
		
			<rect x="241.603" y="259.4" transform="matrix(0.7071 0.7071 -0.7071 0.7071 269.8899 -95.9781)" style="fill:#9BFCFF;" width="18.396" height="36.793"/>
		
			<rect x="371.005" y="185.807" transform="matrix(0.7071 0.7071 -0.7071 0.7071 255.7523 -209.0345)" style="fill:#76E2F8;" width="18.396" height="36.793"/>
		<path style="fill:#FDBF00;" d="M232.402,167.406c0,25.39-20.606,45.996-45.996,45.996s-45.996-20.606-45.996-45.996h18.398    c0,15.27,12.327,27.598,27.598,27.598s27.598-12.328,27.598-27.598H232.402z"/>
		<rect x="158.809" y="139.809" style="fill:#FDBF00;" width="18.398" height="18.398"/>
		<rect x="195.605" y="139.809" style="fill:#FF9100;" width="18.398" height="18.398"/>
		
			<rect x="388.289" y="259.4" transform="matrix(0.7071 -0.7071 0.7071 0.7071 -80.0106 362.431)" style="fill:#76E2F8;" width="18.396" height="36.793"/>
		<path style="fill:#FF9100;" d="M232.402,167.406c0,25.39-20.606,45.996-45.996,45.996v-18.398    c15.271,0,27.598-12.328,27.598-27.598H232.402z"/>
		<rect x="315.195" y="305.394" style="fill:#76E2F8;" width="9.199" height="18.398"/>
	</g>
</g>















</svg>
