<?xml version="1.0" encoding="iso-8859-1"?>
<!-- Generator: Adobe Illustrator 19.0.0, SVG Export Plug-In . SVG Version: 6.00 Build 0)  -->
<svg xmlns="http://www.w3.org/2000/svg" xmlns:xlink="http://www.w3.org/1999/xlink" version="1.1" id="Layer_1" x="0px" y="0px" viewBox="0 0 512 512" style="enable-background:new 0 0 512 512;" xml:space="preserve" width="512" height="512">
<g>
	<circle style="fill:#537983;" cx="256" cy="256" r="256"/>
	<path style="fill:#3E5959;" d="M511.964,258.844L356.151,103.03L191.59,267.59l-17.094,34.906l-46.494,98.494l110.396,110.396   C244.216,511.781,250.082,512,256,512C396.434,512,510.437,398.916,511.964,258.844z"/>
	<g>
		<path style="fill:#FDBF00;" d="M128,103v298h228.156V103H128z M286.313,365.496h-87.305c-9.603,0-18.043-7.858-18.043-17.461    s8.44-17.461,18.043-17.461h87.305c9.603,0,17.461,7.858,17.461,17.461S295.916,365.496,286.313,365.496z"/>
		<path style="fill:#FF9100;" d="M356.156,103v298H242.66v-35.504h43.652c9.603,0,17.461-7.858,17.461-17.461    s-7.858-17.461-17.461-17.461H242.66V103H356.156z"/>
		<polygon style="fill:#F03800;" points="364.266,288.201 364.266,263.508 388.96,263.508 426,300.548 401.307,325.241   "/>
		<polygon style="fill:#537983;" points="339.573,263.508 339.573,238.814 364.266,238.814 388.96,263.508 364.266,288.201   "/>
		<g>
			<path style="fill:#E0F4FF;" d="M223.019,113.864c-4.074,8.273-7.038,16.421-8.643,24.447     c-5.433,26.176,1.729,51.116,21.236,70.623l79.267,79.267l49.387-49.387L228.452,103L223.019,113.864z"/>
		</g>
		<path style="fill:#BBDCFF;" d="M214.377,138.311l125.196,125.196l-24.693,24.694l-79.267-79.267    C216.105,189.427,208.944,164.487,214.377,138.311z"/>
	</g>
</g>















</svg>
