<?xml version="1.0" encoding="iso-8859-1"?>
<!-- Generator: Adobe Illustrator 19.0.0, SVG Export Plug-In . SVG Version: 6.00 Build 0)  -->
<svg xmlns="http://www.w3.org/2000/svg" xmlns:xlink="http://www.w3.org/1999/xlink" version="1.1" id="Layer_1" x="0px" y="0px" viewBox="0 0 512 512" style="enable-background:new 0 0 512 512;" xml:space="preserve" width="512" height="512">
<g>
	<circle style="fill:#FF641A;" cx="256" cy="256" r="256"/>
	<path style="fill:#F03800;" d="M512,256c0-16.595-1.598-32.815-4.614-48.53L405.989,106.073L294.394,217.668l-78.137-78.137   l-52.196,52.196l-44.667-44.667l-25.356,25.356l122.804,122.804l-55.644,55.644l-45.241-45.242l-21.919,21.918l45.241,45.242   l-12.904,12.904l126.27,126.27c1.118,0.014,2.233,0.042,3.355,0.042C397.385,512,512,397.385,512,256z"/>
	<g>
		
			<rect x="179.133" y="132.042" transform="matrix(-0.7071 -0.7071 0.7071 -0.7071 224.2493 411.8153)" style="fill:#76E2F8;" width="36.562" height="54.844"/>
		
			<rect x="334.255" y="287.164" transform="matrix(0.7071 0.7071 -0.7071 0.7071 325.701 -157.1405)" style="fill:#15CCEA;" width="36.562" height="54.844"/>
		<polygon style="fill:#76E2F8;" points="339.609,418 262.048,288.732 326.682,224.098 365.463,392.146   "/>
		<polygon style="fill:#9BFCFF;" points="94,172.391 223.268,249.952 287.902,185.318 119.854,146.537   "/>
		<polygon style="fill:#9BFCFF;" points="145.707,353.366 94,327.512 119.854,301.659 184.488,314.586   "/>
		<polygon style="fill:#76E2F8;" points="158.634,366.293 184.488,418 210.341,392.146 197.414,327.512   "/>
		<g>
			<path style="fill:#E0F4FF;" d="M373.812,189.895L227.534,336.173c-23.656,23.656-54.939,36.582-88.29,36.583     c0.001-33.351,12.927-64.634,36.583-88.29l149.381-149.381C345.632,116.212,372.132,106,399.795,106H406v6.205     C406,141.678,394.624,169.083,373.812,189.895z"/>
		</g>
		<path style="fill:#BBDCFF;" d="M373.812,189.895L227.534,336.173c-23.656,23.656-54.939,36.582-88.29,36.583L406,106v6.205    C406,141.678,394.624,169.083,373.812,189.895z"/>
		<g>
			
				<rect x="110.254" y="337.762" transform="matrix(0.7071 -0.7071 0.7071 0.7071 -196.9413 218.3469)" style="fill:#76E2F8;" width="109.687" height="18.281"/>
		</g>
		<g>
			
				<rect x="279.87" y="195.567" transform="matrix(0.7071 -0.7071 0.7071 0.7071 -54.7465 277.2459)" style="fill:#76E2F8;" width="54.844" height="18.281"/>
		</g>
		
			<rect x="113.485" y="345.564" transform="matrix(0.7071 -0.7071 0.7071 0.7071 -198.2799 221.5786)" style="fill:#15CCEA;" width="109.687" height="9.141"/>
		
			<rect x="283.102" y="203.369" transform="matrix(0.7071 -0.7071 0.7071 0.7071 -56.0852 280.4776)" style="fill:#15CCEA;" width="54.844" height="9.141"/>
	</g>
</g>















</svg>
