<?xml version="1.0" encoding="iso-8859-1"?>
<!-- Generator: Adobe Illustrator 19.0.0, SVG Export Plug-In . SVG Version: 6.00 Build 0)  -->
<svg xmlns="http://www.w3.org/2000/svg" xmlns:xlink="http://www.w3.org/1999/xlink" version="1.1" id="Layer_1" x="0px" y="0px" viewBox="0 0 512 512" style="enable-background:new 0 0 512 512;" xml:space="preserve" width="512" height="512">
<g>
	<circle style="fill:#FF641A;" cx="256" cy="256" r="256"/>
	<path style="fill:#F03800;" d="M509.389,219.435L392.043,102.088l-14.311,14.311l8.931,8.932l-21.502,21.502l-26.89-26.89   l-14.311,14.311L317.833,136l-33.349-33.99l-14.311,14.311L104,407.994l98.359,98.359C219.659,510.042,237.6,512,256,512   c141.385,0,256-114.615,256-256C512,243.583,511.098,231.379,509.389,219.435z"/>
	<g>
		<rect x="104" y="119.93" style="fill:#537983;" width="234.281" height="288.07"/>
		<rect x="221.141" y="119.93" style="fill:#3E5959;" width="117.141" height="288.07"/>
		<polygon style="fill:#E0F4FF;" points="320.352,137.859 320.352,390.07 121.93,390.07 121.93,137.859 157.789,137.859     184.684,119.93 259.331,119.93 284.492,137.859   "/>
		<polygon style="fill:#BBDCFF;" points="320.352,137.859 320.352,390.07 221.141,390.07 221.141,119.93 259.331,119.93     284.492,137.859   "/>
		<rect x="374.141" y="102" style="fill:#537983;" width="17.93" height="26.895"/>
		<rect x="383.105" y="102" style="fill:#3E5959;" width="8.965" height="26.895"/>
		<rect x="157.789" y="102" style="fill:#76E2F8;" width="126.703" height="35.859"/>
		
			<rect x="139.86" y="174.915" transform="matrix(0.7071 0.7071 -0.7071 0.7071 173.6116 -51.3778)" style="fill:#76E2F8;" width="17.928" height="17.928"/>
		
			<rect x="139.86" y="210.774" transform="matrix(0.7071 0.7071 -0.7071 0.7071 198.968 -40.8748)" style="fill:#76E2F8;" width="17.928" height="17.928"/>
		
			<rect x="139.86" y="246.634" transform="matrix(0.7071 0.7071 -0.7071 0.7071 224.3244 -30.3718)" style="fill:#76E2F8;" width="17.928" height="17.928"/>
		
			<rect x="139.86" y="282.493" transform="matrix(0.7071 0.7071 -0.7071 0.7071 249.6808 -19.8689)" style="fill:#76E2F8;" width="17.928" height="17.928"/>
		
			<rect x="139.86" y="318.352" transform="matrix(0.7071 0.7071 -0.7071 0.7071 275.0372 -9.3659)" style="fill:#76E2F8;" width="17.928" height="17.928"/>
		
			<rect x="139.86" y="354.212" transform="matrix(0.7071 0.7071 -0.7071 0.7071 300.3936 1.1371)" style="fill:#76E2F8;" width="17.928" height="17.928"/>
		<rect x="175.719" y="174.914" style="fill:#BBDCFF;" width="126.703" height="17.93"/>
		<rect x="175.719" y="210.773" style="fill:#BBDCFF;" width="126.703" height="17.93"/>
		<rect x="175.719" y="246.633" style="fill:#BBDCFF;" width="126.703" height="17.93"/>
		<rect x="175.719" y="282.492" style="fill:#BBDCFF;" width="126.703" height="17.93"/>
		<rect x="175.719" y="318.352" style="fill:#BBDCFF;" width="126.703" height="17.93"/>
		<rect x="175.719" y="354.211" style="fill:#BBDCFF;" width="126.703" height="17.93"/>
		<path style="fill:#76E2F8;" d="M410,147.422v81.281l-26.895,17.93l-26.895-17.93v-81.879c0-14.882,12.013-26.895,26.895-26.895    C397.987,119.93,410,132.54,410,147.422z"/>
		<path style="fill:#15CCEA;" d="M410,147.422v81.281l-26.895,17.93V119.93C397.987,119.93,410,132.54,410,147.422z"/>
		<polygon style="fill:#537983;" points="410,228.703 410,282.492 387.588,300.422 383.105,297.911 356.211,282.492     356.211,228.703   "/>
		<polygon style="fill:#3E5959;" points="410,228.703 410,282.492 387.588,300.422 383.105,297.911 383.105,228.703   "/>
		<path style="fill:#76E2F8;" d="M410,282.492v55.402c0,32.236-21.06,50.238-26.895,56.239c-5.86-6.028-26.895-24.084-26.895-56.239    v-55.402H410z"/>
		<path style="fill:#15CCEA;" d="M383.105,282.492H410v55.402c0,32.236-21.06,50.238-26.895,56.239V282.492z"/>
		<rect x="374.141" y="384.691" style="fill:#E0F4FF;" width="17.93" height="23.309"/>
		<rect x="383.105" y="384.691" style="fill:#BBDCFF;" width="8.965" height="23.309"/>
		<rect x="221.141" y="102" style="fill:#15CCEA;" width="63.352" height="35.859"/>
		<rect x="221.141" y="174.914" style="fill:#9ABADB;" width="81.281" height="17.93"/>
		<rect x="221.141" y="210.773" style="fill:#9ABADB;" width="81.281" height="17.93"/>
		<rect x="221.141" y="246.633" style="fill:#9ABADB;" width="81.281" height="17.93"/>
		<rect x="221.141" y="282.492" style="fill:#9ABADB;" width="81.281" height="17.93"/>
		<rect x="221.141" y="318.352" style="fill:#9ABADB;" width="81.281" height="17.93"/>
		<rect x="221.141" y="354.211" style="fill:#9ABADB;" width="81.281" height="17.93"/>
	</g>
</g>















</svg>
