<?xml version="1.0" encoding="iso-8859-1"?>
<!-- Generator: Adobe Illustrator 19.0.0, SVG Export Plug-In . SVG Version: 6.00 Build 0)  -->
<svg xmlns="http://www.w3.org/2000/svg" xmlns:xlink="http://www.w3.org/1999/xlink" version="1.1" id="Layer_1" x="0px" y="0px" viewBox="0 0 512 512" style="enable-background:new 0 0 512 512;" xml:space="preserve" width="512" height="512">
<g>
	<circle style="fill:#537983;" cx="256" cy="256" r="256"/>
	<path style="fill:#3E5959;" d="M499.154,336.244L238.07,75.16L171,174l-23,27l-25.854,203.839l105.602,105.602   C237.027,511.459,246.45,512,256,512C369.354,512,465.485,438.32,499.154,336.244z"/>
	<g>
		<rect x="180.106" y="75.151" style="fill:#BBDCFF;" width="57.955" height="48.94"/>
		<rect x="209.083" y="75.151" style="fill:#9ABADB;" width="28.977" height="48.94"/>
		<rect x="160.787" y="114.431" style="fill:#E0F4FF;" width="96.591" height="51.579"/>
		<rect x="209.083" y="114.431" style="fill:#BBDCFF;" width="48.296" height="51.579"/>
		<path style="fill:#FF641A;" d="M228.401,153.068h-38.637c-37.284,0-67.614,30.33-67.614,67.614v145.531l27.818,19.318h122.478    l23.568-19.318V220.682C296.015,183.398,265.685,153.068,228.401,153.068z M199.424,288.94c0,10.625-8.693,19.318-19.318,19.318    s-19.318-8.693-19.318-19.318v-77.917c0-10.625,8.693-19.318,19.318-19.318s19.318,8.693,19.318,19.318V288.94z"/>
		<path style="fill:#F03800;" d="M296.015,220.682v145.531l-23.568,19.318h-63.364V153.068h19.318    C265.685,153.068,296.015,183.398,296.015,220.682z"/>
		<polygon style="fill:#F03800;" points="296.015,366.213 276.697,404.849 122.151,404.849 122.151,366.213   "/>
		<polygon style="fill:#CD0000;" points="296.015,366.213 276.697,404.849 209.083,404.849 209.083,366.213   "/>
		<polygon style="fill:#15CCEA;" points="451.849,308.258 451.849,327.576 388.743,327.576 411.925,308.258   "/>
		<path style="fill:#BBDCFF;" d="M400.379,327.576H268.924l41.155-65.841c10.64-17.054,38.495-17.064,49.154,0.009L400.379,327.576z    "/>
		<polygon style="fill:#15CCEA;" points="411.925,308.258 408.061,327.576 392.607,404.849 276.697,404.849 257.379,308.258   "/>
	</g>
</g>















</svg>
