<?xml version="1.0" encoding="iso-8859-1"?>
<!-- Generator: Adobe Illustrator 19.0.0, SVG Export Plug-In . SVG Version: 6.00 Build 0)  -->
<svg xmlns="http://www.w3.org/2000/svg" xmlns:xlink="http://www.w3.org/1999/xlink" version="1.1" id="Layer_1" x="0px" y="0px" viewBox="0 0 512 512" style="enable-background:new 0 0 512 512;" xml:space="preserve" width="512" height="512">
<g>
	<circle style="fill:#537983;" cx="256" cy="256" r="256"/>
	<path style="fill:#3E5959;" d="M338.984,200.72l-49.906-49.906L104.039,335.852l175.096,175.096   C409.677,499.252,512,389.585,512,256c0-7.049-0.297-14.027-0.856-20.932L407.89,131.814L338.984,200.72z"/>
	<g>
		<path style="fill:#E0F4FF;" d="M401.231,130.168C353.85,118.412,304.628,112,256,112s-97.85,6.412-145.231,18.168L104,131.772    v204.072h304V131.772L401.231,130.168z"/>
		<path style="fill:#BBDCFF;" d="M408,131.772v204.072H256V112c48.628,0,97.85,6.412,145.231,18.168L408,131.772z"/>
		<rect x="175.844" y="156.531" style="fill:#F03800;" width="160.313" height="99.156"/>
		<rect x="256" y="156.531" style="fill:#CD0000;" width="80.156" height="99.156"/>
		<rect x="193.656" y="174.344" style="fill:#E0F4FF;" width="124.688" height="81.344"/>
		<rect x="256" y="174.344" style="fill:#BBDCFF;" width="62.344" height="81.344"/>
		<path style="fill:#BBDCFF;" d="M345.063,273.5l-7.303-5.166l-19.416,27.254l-19.416-27.254l-7.303,5.166l-7.303-5.166L256,308.056    l-28.322-39.723l-7.303,5.166l-7.303-5.166l-19.416,27.254l-19.416-27.254l-7.303,5.166l-8.55,2.494L199,416l30.281-39.9    L256,411.19l26.719-35.09L313,416l40.612-140.006L345.063,273.5z M206.125,378.059l-14.25-49.519l1.781-2.316l24.76,34.556    L206.125,378.059z M204.522,310.906l15.853-22.087l24.76,34.556l-15.853,22.087L204.522,310.906z M256,382.869l-15.853-22.088    L256,338.693l15.853,22.087L256,382.869z M266.865,323.375l24.76-34.556l15.853,22.087l-24.76,34.556L266.865,323.375z     M305.875,378.059l-12.291-17.279l24.76-34.556l1.781,2.316L305.875,378.059z"/>
		<path style="fill:#9ABADB;" d="M345.063,273.5l-7.303-5.166l-19.416,27.254l-19.416-27.254l-7.303,5.166l-7.303-5.166L256,308.056    v30.637l15.853,22.087L256,382.869v28.321l26.719-35.09L313,416l40.612-140.006L345.063,273.5z M266.865,323.375l24.76-34.556    l15.853,22.087l-24.76,34.556L266.865,323.375z M305.875,378.059l-12.291-17.279l24.76-34.556l1.781,2.316L305.875,378.059z"/>
		<rect x="140.219" y="246.781" style="fill:#FF641A;" width="231.563" height="35.625"/>
		<rect x="256" y="246.781" style="fill:#F03800;" width="115.781" height="35.625"/>
	</g>
</g>















</svg>
