<?xml version="1.0" encoding="iso-8859-1"?>
<!-- Generator: Adobe Illustrator 19.0.0, SVG Export Plug-In . SVG Version: 6.00 Build 0)  -->
<svg xmlns="http://www.w3.org/2000/svg" xmlns:xlink="http://www.w3.org/1999/xlink" version="1.1" id="Layer_1" x="0px" y="0px" viewBox="0 0 512 512" style="enable-background:new 0 0 512 512;" xml:space="preserve" width="512" height="512">
<g>
	<circle style="fill:#FF641A;" cx="256" cy="256" r="256"/>
	<path style="fill:#F03800;" d="M512,256c0-1.323-0.03-2.639-0.05-3.957L400.303,140.396l-99.433,99.433l-38.166-38.166   L103.866,360.501l151.491,151.491c0.215,0,0.428,0.008,0.643,0.008C397.385,512,512,397.385,512,256z"/>
	<g>
		<polygon style="fill:#FFDA2D;" points="428.133,284.5 409.133,294 428.133,303.5 428.133,360.5 333.133,360.5 314.133,341.5     257.133,341.5 238.133,360.5 103.867,360.5 103.867,303.5 122.867,294 103.867,284.5 103.867,265.5 122.867,246.5 122.867,189.5     103.867,170.5 124.387,151.5 314.133,151.5 390.133,246.5 428.133,265.5   "/>
		<polygon style="fill:#FDBF00;" points="238.133,170.5 152.554,151.5 103.867,170.5 103.867,189.5 122.867,208.5 122.867,227.5     103.867,246.5 103.867,265.5 238.133,265.5 257.133,246.5 257.133,189.5   "/>
		<polygon style="fill:#FDBF00;" points="428.133,284.5 409.133,294 428.133,303.5 428.133,360.5 333.133,360.5 314.133,341.5     285.633,341.5 285.633,151.5 314.133,151.5 390.133,246.5 428.133,265.5   "/>
		<rect x="103.867" y="189.5" style="fill:#3E5959;" width="57" height="57"/>
		<rect x="179.867" y="189.5" style="fill:#3E5959;" width="77.267" height="57"/>
		<polygon style="fill:#FF9100;" points="371.133,151.5 314.133,151.5 314.133,246.5 352.133,246.5 390.133,189.5 390.133,170.5       "/>
		<polygon style="fill:#293939;" points="333.133,246.5 323.633,214.833 333.133,189.5 390.133,189.5 390.133,246.5   "/>
		<polygon style="fill:#537983;" points="333.133,170.5 333.133,265.5 314.133,284.5 257.133,284.5 238.133,265.5 238.133,170.5     257.133,151.5 319.643,151.5   "/>
		<polygon style="fill:#3E5959;" points="333.133,170.5 333.133,265.5 314.133,284.5 285.633,284.5 285.633,151.5 319.643,151.5       "/>
		<rect x="103.867" y="284.5" style="fill:#537983;" width="38" height="19"/>
		<rect x="390.133" y="284.5" style="fill:#3E5959;" width="38" height="19"/>
		<rect x="257.133" y="151.5" style="fill:#9BFCFF;" width="19" height="152"/>
		<rect x="295.133" y="151.5" style="fill:#76E2F8;" width="19" height="133"/>
		<path style="fill:#FFDA2D;" d="M409.133,161v9.5H103.867v-38h276.767C396.404,132.5,409.133,145.23,409.133,161z"/>
		<path style="fill:#FDBF00;" d="M409.133,161v9.5h-123.5v-38h95C396.404,132.5,409.133,145.23,409.133,161z"/>
		<rect x="238.133" y="265.5" style="fill:#3E5959;" width="95" height="95"/>
		<rect x="285.633" y="265.5" style="fill:#293939;" width="47.5" height="95"/>
		<path style="fill:#3E5959;" d="M352.133,379.5c-20.958,0-38-17.042-38-38c0-20.957,17.042-38,38-38s38,17.042,38,38    C390.133,362.457,373.091,379.5,352.133,379.5z"/>
		<path style="fill:#BBDCFF;" d="M352.133,322.5c-10.474,0-19,8.526-19,19c0,10.474,8.526,19,19,19s19-8.526,19-19    C371.133,331.026,362.607,322.5,352.133,322.5z"/>
		<path style="fill:#537983;" d="M179.867,379.5c-20.958,0-38-17.042-38-38c0-20.957,17.042-38,38-38s38,17.042,38,38    C217.867,362.457,200.824,379.5,179.867,379.5z"/>
		<path style="fill:#E0F4FF;" d="M179.867,322.5c-10.474,0-19,8.526-19,19c0,10.474,8.526,19,19,19s19-8.526,19-19    C198.867,331.026,190.341,322.5,179.867,322.5z"/>
	</g>
</g>















</svg>
