<?xml version="1.0" encoding="iso-8859-1"?>
<!-- Generator: Adobe Illustrator 19.0.0, SVG Export Plug-In . SVG Version: 6.00 Build 0)  -->
<svg xmlns="http://www.w3.org/2000/svg" xmlns:xlink="http://www.w3.org/1999/xlink" version="1.1" id="Layer_1" x="0px" y="0px" viewBox="0 0 512 512" style="enable-background:new 0 0 512 512;" xml:space="preserve" width="512" height="512">
<g>
	<circle style="fill:#76E2F8;" cx="256" cy="256" r="256"/>
	<path style="fill:#15CCEA;" d="M509.698,221.643L391.056,103.001l-89.941,89.942l-89.94-89.94l-50.028,50.027l-58.146,255.967   l96.799,96.799C217.887,509.848,236.691,512,256,512c141.385,0,256-114.615,256-256C512,244.348,511.206,232.882,509.698,221.643z"/>
	<g>
		<polygon style="fill:#3E5959;" points="193.246,120.93 139.457,120.93 120.93,139.457 120.93,265.562 211.176,265.562     211.176,139.457   "/>
		<polygon style="fill:#3E5959;" points="391.07,283.492 400.035,265.562 409,283.492 409,409 391.07,409   "/>
		<polygon style="fill:#FDBF00;" points="409,247.633 409,283.492 229.105,283.492 211.176,265.562 229.105,247.633   "/>
		<rect x="309.789" y="355.211" style="fill:#9ABADB;" width="26.895" height="17.93"/>
		<rect x="300.824" y="328.316" style="fill:#BBDCFF;" width="17.93" height="71.719"/>
		<rect x="309.789" y="328.316" style="fill:#9ABADB;" width="8.965" height="71.719"/>
		<rect x="264.965" y="391.07" style="fill:#537983;" width="90.246" height="17.93"/>
		<rect x="229.105" y="103" style="fill:#3E5959;" width="161.965" height="126.703"/>
		<rect x="309.789" y="103" style="fill:#293939;" width="81.281" height="126.703"/>
		<rect x="247.035" y="120.93" style="fill:#9BFCFF;" width="126.105" height="90.844"/>
		<rect x="309.789" y="120.93" style="fill:#76E2F8;" width="63.352" height="90.844"/>
		<rect x="120.93" y="103" style="fill:#537983;" width="90.246" height="36.457"/>
		<rect x="103" y="247.633" style="fill:#FDBF00;" width="126.105" height="161.367"/>
		<rect x="120.93" y="265.562" style="fill:#FF9100;" width="90.246" height="53.789"/>
		<rect x="120.93" y="337.281" style="fill:#FF9100;" width="90.246" height="53.789"/>
		<g>
			<rect x="175.316" y="283.492" style="fill:#537983;" width="17.93" height="17.93"/>
		</g>
		<g>
			<rect x="157.387" y="202.809" style="fill:#9BFCFF;" width="17.93" height="17.93"/>
		</g>
		<g>
			<rect x="157.387" y="166.352" style="fill:#9BFCFF;" width="17.93" height="17.93"/>
		</g>
		<g>
			<rect x="175.316" y="355.211" style="fill:#537983;" width="17.93" height="17.93"/>
		</g>
		<rect x="309.789" y="247.633" style="fill:#FF9100;" width="99.211" height="35.859"/>
		<path style="fill:#FF641A;" d="M370.81,307.338l-13.806-126.105c-1.613-13.626-13.686-23.846-27.492-23.846h-39.444    c-13.806,0-25.281,10.22-26.895,23.846l-13.806,126.105c-1.793,15.958,10.578,29.943,26.715,29.943h68.013    C360.232,337.281,372.602,323.296,370.81,307.338z"/>
		<path style="fill:#F03800;" d="M344.095,337.281h-34.306V157.387h19.722c13.806,0,25.879,10.22,27.492,23.846l13.806,126.105    C372.602,323.296,360.232,337.281,344.095,337.281z"/>
		<rect x="309.789" y="391.07" style="fill:#3E5959;" width="45.422" height="17.93"/>
	</g>
</g>















</svg>
