<?xml version="1.0" encoding="iso-8859-1"?>
<!-- Generator: Adobe Illustrator 19.0.0, SVG Export Plug-In . SVG Version: 6.00 Build 0)  -->
<svg xmlns="http://www.w3.org/2000/svg" xmlns:xlink="http://www.w3.org/1999/xlink" version="1.1" id="Layer_1" x="0px" y="0px" viewBox="0 0 512 512" style="enable-background:new 0 0 512 512;" xml:space="preserve" width="512" height="512">
<g>
	<circle style="fill:#FDBF00;" cx="256" cy="256" r="256"/>
	<path style="fill:#FF9100;" d="M311.854,202.009l-35.417-35.417L109.265,333.765l176.502,176.502   C413.125,495.517,512,387.314,512,256c0-6.9-0.282-13.733-0.817-20.495L394.771,119.093L311.854,202.009z"/>
	<g>
		<path style="fill:#BBDCFF;" d="M402.584,137.886V314.94c0,14.646-11.823,26.47-26.47,26.47H127.886    c-14.647,0-26.47-11.824-26.47-26.47V137.886c0-14.647,11.823-26.47,26.47-26.47h248.228    C390.761,111.416,402.584,123.239,402.584,137.886z"/>
		<path style="fill:#9ABADB;" d="M402.584,137.886V314.94c0,14.646-11.823,26.47-26.47,26.47H252.588V111.416h123.526    C390.761,111.416,402.584,123.239,402.584,137.886z"/>
		<path style="fill:#3E5959;" d="M127.886,323.763c-4.865,0-8.823-3.958-8.823-8.823V137.886c0-4.865,3.958-8.823,8.823-8.823    h248.228c4.865,0,8.823,3.958,8.823,8.823V314.94c0,4.865-3.958,8.823-8.823,8.823H127.886z"/>
		<path style="fill:#293939;" d="M376.114,129.063H252.588v194.7h123.526c4.865,0,8.823-3.958,8.823-8.823V137.886    C384.937,133.021,380.98,129.063,376.114,129.063z"/>
		<rect x="136.709" y="146.709" style="fill:#76E2F8;" width="230.582" height="159.407"/>
		<rect x="252.588" y="146.709" style="fill:#15CCEA;" width="114.703" height="159.407"/>
		<polygon style="fill:#537983;" points="402.584,217.884 402.584,377.291 384.937,394.937 279.058,394.937 261.411,377.291     261.411,217.884 279.058,200.237 384.937,200.237   "/>
		<polygon style="fill:#3E5959;" points="402.584,217.884 402.584,377.291 384.937,394.937 331.998,394.937 331.998,200.237     384.937,200.237   "/>
		<path style="fill:#E0F4FF;" d="M402.584,209.06v8.823H261.411v-8.823c0-14.647,11.823-26.47,26.47-26.47h88.233    C390.761,182.59,402.584,194.413,402.584,209.06z"/>
		<path style="fill:#E0F4FF;" d="M402.584,377.291v8.823c0,14.646-11.823,26.47-26.47,26.47h-88.233    c-14.647,0-26.47-11.824-26.47-26.47v-8.823H402.584z"/>
		<rect x="279.058" y="235.53" style="fill:#9BFCFF;" width="105.879" height="124.114"/>
		<rect x="331.998" y="235.53" style="fill:#76E2F8;" width="52.94" height="124.114"/>
		<path style="fill:#BBDCFF;" d="M402.584,209.06v8.823h-70.586V182.59h44.116C390.761,182.59,402.584,194.413,402.584,209.06z"/>
		<path style="fill:#BBDCFF;" d="M331.998,377.291h70.586v8.823c0,14.646-11.823,26.47-26.47,26.47h-44.116V377.291z"/>
	</g>
</g>















</svg>
