<?xml version="1.0" encoding="iso-8859-1"?>
<!-- Generator: Adobe Illustrator 19.0.0, SVG Export Plug-In . SVG Version: 6.00 Build 0)  -->
<svg xmlns="http://www.w3.org/2000/svg" xmlns:xlink="http://www.w3.org/1999/xlink" version="1.1" id="Layer_1" x="0px" y="0px" viewBox="0 0 512 512" style="enable-background:new 0 0 512 512;" xml:space="preserve" width="512" height="512">
<g>
	<circle style="fill:#537983;" cx="256" cy="256" r="256"/>
	<path style="fill:#3E5959;" d="M511.338,237.638L366.52,92.82l-55.257,55.257l-55.259-55.259l-72.964,72.964l-37.545,241.394   l104.752,104.752c1.913,0.042,3.83,0.073,5.753,0.073c141.385,0,256-114.615,256-256C512,249.825,511.768,243.704,511.338,237.638z   "/>
	<g>
		<polygon style="fill:#BBDCFF;" points="348.102,203.949 292.841,203.949 292.841,92.812 329.682,92.812 348.102,111.846   "/>
		<polygon style="fill:#76E2F8;" points="366.523,92.812 366.154,196.949 348.102,269.526 348.102,314.472 338.892,324.049     348.102,332.892 348.102,351.313 338.892,363.285 348.102,369.733 348.102,407.188 311.261,407.188 311.261,369.733     320.472,362.364 311.261,351.313 311.261,332.892 320.472,323.682 311.261,314.472 311.261,266.21 329.682,193.633     329.682,92.812   "/>
		<rect x="182.318" y="92.812" style="fill:#E0F4FF;" width="73.682" height="46.665"/>
		<rect x="219.159" y="92.812" style="fill:#BBDCFF;" width="36.841" height="46.665"/>
		<polygon style="fill:#76E2F8;" points="274.42,167.108 222.659,185.528 219.159,184.423 163.898,167.108 182.318,130.267     256,130.267   "/>
		<polygon style="fill:#15CCEA;" points="222.659,185.528 219.159,184.423 219.159,130.267 256,130.267 274.42,167.108   "/>
		<polygon style="fill:#76E2F8;" points="292.841,369.733 292.841,407.188 145.477,407.188 145.477,369.733 163.898,351.313     272.026,351.313   "/>
		<polygon style="fill:#15CCEA;" points="292.841,369.733 292.841,407.188 219.159,407.188 219.159,351.313 272.026,351.313   "/>
		<polygon style="fill:#E0F4FF;" points="292.841,369.733 145.477,369.733 163.898,167.108 274.42,167.108   "/>
		<polygon style="fill:#BBDCFF;" points="292.841,369.733 219.159,369.733 219.159,167.108 274.42,167.108   "/>
		<g>
			<path style="fill:#76E2F8;" d="M219.159,222.369c-15.657,0-27.631,19.71-27.631,46.051s11.974,46.051,27.631,46.051     s27.631-19.71,27.631-46.051S234.816,222.369,219.159,222.369z"/>
		</g>
		<path style="fill:#15CCEA;" d="M219.159,314.472v-92.102c15.657,0,27.631,19.71,27.631,46.051S234.816,314.472,219.159,314.472z"/>
		<polygon style="fill:#15CCEA;" points="366.523,92.812 366.154,196.949 348.102,269.526 348.102,314.472 338.892,324.049     348.102,332.892 348.102,351.313 338.892,363.285 348.102,369.733 348.102,407.188 329.682,407.188 329.682,266.21     348.102,193.633 348.102,92.812   "/>
		<rect x="311.261" y="314.472" style="fill:#9BFCFF;" width="36.841" height="18.42"/>
		<rect x="311.261" y="351.313" style="fill:#9BFCFF;" width="36.841" height="18.42"/>
		<rect x="329.682" y="314.472" style="fill:#76E2F8;" width="18.42" height="18.42"/>
		<rect x="329.682" y="351.313" style="fill:#76E2F8;" width="18.42" height="18.42"/>
	</g>
</g>















</svg>
