<?xml version="1.0" encoding="iso-8859-1"?>
<!-- Generator: Adobe Illustrator 19.0.0, SVG Export Plug-In . SVG Version: 6.00 Build 0)  -->
<svg xmlns="http://www.w3.org/2000/svg" xmlns:xlink="http://www.w3.org/1999/xlink" version="1.1" id="Layer_1" x="0px" y="0px" viewBox="0 0 512 512" style="enable-background:new 0 0 512 512;" xml:space="preserve" width="512" height="512">
<g>
	<circle style="fill:#537983;" cx="256" cy="256" r="256"/>
	<path style="fill:#3E5959;" d="M383.658,193.489l-5.583,5.583L256.033,77.03l18.508,135.888l-17.227,17.227l-36.198-36.198   l-27.074,27.075l-27.565-27.565l-58.69,58.69l18.263,18.263l-15.992,15.992l45.5,45.5l-45.417,45.417l134.414,134.414   C248.351,511.9,252.164,512,256,512c121.082,0,222.519-84.065,249.158-197.011L383.658,193.489z"/>
	<g>
		<polygon style="fill:#E0F4FF;" points="283.074,164.037 283.074,231 228.926,231 228.926,164.037 249.683,143.46 262.317,143.46       "/>
		<polygon style="fill:#BBDCFF;" points="283.074,231 256,231 256,143.46 262.317,143.46 283.074,164.037   "/>
		<rect x="120.029" y="258.074" style="fill:#F03800;" width="271.943" height="108.897"/>
		<rect x="256" y="258.074" style="fill:#CD0000;" width="135.971" height="108.897"/>
		<path style="fill:#FFDA2D;" d="M263.4,87.808L256,76.979l-7.4,10.829c-5.957,8.484-19.674,32.369-19.674,43.92    c0,14.98,12.093,27.074,27.074,27.074s27.074-12.094,27.074-27.074C283.074,120.177,269.356,96.292,263.4,87.808z"/>
		<path style="fill:#FF641A;" d="M174.778,212.951c0,14.953-12.121,27.074-27.074,27.074s-27.676-12.121-27.676-27.074    s12.723-27.074,27.676-27.074S174.778,197.998,174.778,212.951z"/>
		<circle style="fill:#FF641A;" cx="201.852" cy="212.951" r="27.074"/>
		<path style="fill:#F03800;" d="M337.823,212.951c0,14.953-12.723,27.074-27.676,27.074c-14.953,0-27.074-12.121-27.074-27.074    s12.121-27.074,27.074-27.074C325.1,185.877,337.823,197.998,337.823,212.951z"/>
		<circle style="fill:#F03800;" cx="364.897" cy="212.951" r="27.074"/>
		<path style="fill:#FDBF00;" d="M256,158.803V76.979l7.4,10.829c5.957,8.484,19.674,32.369,19.674,43.92    C283.074,146.709,270.981,158.803,256,158.803z"/>
		<path style="fill:#FED2A4;" d="M382.947,221.975H129.053c-14.981,0-27.074,12.093-27.074,27.074v18.049    c0,14.98,12.093,27.074,27.074,27.074c7.039,0,13.777-2.708,18.651-7.039c4.874,4.332,11.01,7.039,18.049,7.039    s13.176-2.708,18.049-7.039c4.874,4.332,11.01,7.039,18.049,7.039s13.176-2.708,18.049-7.039    c4.874,4.332,11.01,7.039,18.049,7.039s13.176-2.708,18.049-7.039c4.874,4.332,11.01,7.039,18.049,7.039    c7.04,0,13.176-2.708,18.049-7.039c4.874,4.332,11.01,7.039,18.049,7.039c7.04,0,13.777-2.708,18.651-7.039    c4.874,4.332,11.01,7.039,18.049,7.039s13.176-2.708,18.049-7.039c4.874,4.332,11.01,7.039,18.049,7.039    c14.981,0,27.074-12.094,27.074-27.074v-18.049C410.021,234.068,397.928,221.975,382.947,221.975z"/>
		<path style="fill:#FFBD86;" d="M410.021,249.049v18.049c0,14.98-12.093,27.074-27.074,27.074c-7.039,0-13.176-2.708-18.049-7.039    c-4.874,4.332-11.01,7.039-18.049,7.039s-13.176-2.708-18.049-7.039c-4.874,4.332-11.611,7.039-18.651,7.039    c-7.039,0-13.176-2.708-18.049-7.039c-4.874,4.332-11.01,7.039-18.049,7.039c-7.039,0-13.176-2.708-18.049-7.039v-65.158h126.947    C397.928,221.975,410.021,234.068,410.021,249.049z"/>
		<path style="fill:#E0F4FF;" d="M410.021,348.922v9.025c0,14.98-12.093,27.074-27.074,27.074H129.053    c-14.981,0-27.074-12.094-27.074-27.074v-9.025H410.021z"/>
		<path style="fill:#BBDCFF;" d="M256,348.922h154.021v9.025c0,14.98-12.093,27.074-27.074,27.074H256V348.922z"/>
	</g>
</g>















</svg>
