<svg xmlns="http://www.w3.org/2000/svg" width="319.5" height="239.4" viewBox="0 0 319.5 239.4"><defs><style>.a{fill:#c96820;}.b{fill:#ff8c24;}.c{fill:#dd7622;}</style></defs><title>ribbon</title><path class="a" d="M909.8,617.2l92.2,13.5v-36l-99.4,19A18.6,18.6,0,0,0,909.8,617.2Z" transform="translate(-803.7 -391.3)"/><path class="b" d="M1120.2,434.4l-292.8-43a3.5,3.5,0,0,0-3.9,4.4l20.3,68.3a3.9,3.9,0,0,1-.4,3l-39.1,59.3a3.5,3.5,0,0,0,2.4,5.4l98.7,14.6,194.1,28.5a10.9,10.9,0,0,0,4.6-6.5l9.5-64.8,9.6-65.2A3.5,3.5,0,0,0,1120.2,434.4Z" transform="translate(-803.7 -391.3)"/><path class="c" d="M1099.5,574.9,905.4,546.4l-8.1,54.8c0,3.7.9,8.8,5.3,12.5l99.4-19,93.4-17.8A13.5,13.5,0,0,0,1099.5,574.9Z" transform="translate(-803.7 -391.3)"/></svg>