<?xml version="1.0" encoding="iso-8859-1"?>
<!-- Generator: Adobe Illustrator 19.0.0, SVG Export Plug-In . SVG Version: 6.00 Build 0)  -->
<svg xmlns="http://www.w3.org/2000/svg" xmlns:xlink="http://www.w3.org/1999/xlink" version="1.1" id="Layer_1" x="0px" y="0px" viewBox="0 0 512 512" style="enable-background:new 0 0 512 512;" xml:space="preserve" width="512" height="512">
<g>
	<circle style="fill:#537983;" cx="256" cy="256" r="256"/>
	<path style="fill:#3E5959;" d="M280.781,510.802c124.835-11.993,223.467-113.631,230.769-239.781L320.677,80.149l-52.264,52.264   l-20.844-20.844l-18.198,18.198l-21.375-21.375l-20,20l21.375,21.375l-39.333,39.333l20.583,20.583l-42.417,42.417l117.844,117.844   l-63.063,63.063L280.781,510.802z"/>
	<g>
		<polygon style="fill:#FDBF00;" points="351.449,240.688 309.027,433 202.973,433 160.551,240.688   "/>
		<polygon style="fill:#FF9100;" points="351.449,240.688 309.027,433 256,433 256,240.688   "/>
		<rect x="266.605" y="326.238" style="fill:#FDBF00;" width="21.211" height="21.211"/>
		<rect x="245.395" y="368.66" style="fill:#FFDA2D;" width="21.211" height="21.211"/>
		<path style="fill:#E0F4FF;" d="M330.238,102.816c0,17.605-14.211,31.816-31.816,31.816L256,151.601l-10.605,4.242l-42.422-21.211    c-11.666,0-21.211-9.545-21.211-21.211s9.545-21.211,21.211-21.211h74.238c5.94,0,10.605-4.666,10.605-10.605V71h10.605    C316.24,71,330.238,85.636,330.238,102.816z"/>
		<path style="fill:#BBDCFF;" d="M298.422,134.633L256,151.601v-59.39h21.211c5.94,0,10.605-4.666,10.605-10.605V71h10.605    c17.818,0,31.816,14.636,31.816,31.816C330.238,120.422,316.027,134.633,298.422,134.633z"/>
		<path style="fill:#E0F4FF;" d="M351.449,166.449c0,17.605-14.211,31.816-31.816,31.816L256,219.477l-63.633-21.211    c-17.605,0-31.816-14.211-31.816-31.816s14.211-31.816,31.816-31.816h127.266C337.238,134.633,351.449,148.844,351.449,166.449z"/>
		<path style="fill:#BBDCFF;" d="M351.449,166.449c0,17.605-14.211,31.816-31.816,31.816L256,219.477v-84.844h63.633    C337.238,134.633,351.449,148.844,351.449,166.449z"/>
		<path style="fill:#E0F4FF;" d="M372.66,230.082c0,17.605-14.211,31.816-31.816,31.816h-95.449v43.129    c0,11.666-9.545,21.211-21.211,21.211c-11.666,0-21.211-9.545-21.211-21.211v-43.129h-31.816    c-17.605,0-31.816-14.211-31.816-31.816s14.211-31.816,31.816-31.816h169.687C358.449,198.266,372.66,212.477,372.66,230.082z"/>
		<path style="fill:#BBDCFF;" d="M372.66,230.082c0,17.605-14.211,31.816-31.816,31.816H256v-63.633h84.844    C358.449,198.266,372.66,212.477,372.66,230.082z"/>
		<rect x="256" y="368.66" style="fill:#FDBF00;" width="10.605" height="21.211"/>
	</g>
</g>















</svg>
