<?xml version="1.0" encoding="iso-8859-1"?>
<!-- Generator: Adobe Illustrator 19.0.0, SVG Export Plug-In . SVG Version: 6.00 Build 0)  -->
<svg xmlns="http://www.w3.org/2000/svg" xmlns:xlink="http://www.w3.org/1999/xlink" version="1.1" id="Layer_1" x="0px" y="0px" viewBox="0 0 512 512" style="enable-background:new 0 0 512 512;" xml:space="preserve" width="512" height="512">
<g>
	<circle style="fill:#FDBF00;" cx="256" cy="256" r="256"/>
	<path style="fill:#FF9100;" d="M366.806,113.34l-42.424,42.424l30.823,30.823l-45.607,45.607L189.806,112.402l-42.424,42.424   l-15.938,244.188l112.703,112.703c3.93,0.179,7.879,0.283,11.853,0.283c140.548,0,254.623-113.268,255.968-253.498L366.806,113.34z   "/>
	<g id="Bowling">
		<g>
			<g>
				<path style="fill:#E0F4FF;" d="M211.391,243.039c-1.382-3.371-2.746-6.706-4.058-10.013c-1.143-2.892-11.941-8.62-11.941-8.62      s6.649-5.83,5.784-8.73c-1.734-5.799-3.041-11.563-3.665-17.344c-0.283-2.503-9.1-7.527-9.1-7.527s8.926-6.487,9.337-9.817      c1.52-12.493,5.145-25.391,5.145-34.63c0-25.091-16.239-43.359-34.688-43.359c-16.974,0-34.688,16.488-34.688,43.359      c0,9.262,3.607,22.206,5.14,34.63c0.41,3.342,9.342,9.817,9.342,9.817s-8.811,4.96-9.094,7.527      c-0.173,1.526-0.399,3.081-0.671,4.671c-0.729,4.22-1.786,8.435-3.081,12.672c-0.943,3.086,5.505,9.308,5.505,9.308      s-10.702,5.332-11.789,8.03c-1.318,3.272-2.694,6.579-4.093,9.932c-39.561,94.888,3.139,151.821,4.03,152.897l2.602,3.157      h73.595l2.602-3.157C208.645,394.577,250.252,337.91,211.391,243.039z"/>
			</g>
		</g>
		<path style="fill:#BBDCFF;" d="M205.002,399l2.602-3.157c1.041-1.266,42.648-57.934,3.787-152.804    c-1.382-3.371-2.746-6.706-4.058-10.013c-1.143-2.892-11.941-8.62-11.941-8.62s6.649-5.83,5.784-8.73    c-1.734-5.799-3.041-11.563-3.665-17.344c-0.283-2.503-9.1-7.527-9.1-7.527s8.926-6.487,9.337-9.817    c1.52-12.493,5.145-25.391,5.145-34.63c0-25.091-16.239-43.359-34.688-43.359v296H205.002z"/>
		<g>
			<g>
				<path style="fill:#FF641A;" d="M207.332,233.026l-78.463-0.012c2.365-5.868,4.538-11.626,6.284-17.338h66.022      C202.887,221.412,205.02,227.175,207.332,233.026z"/>
			</g>
		</g>
		<path style="fill:#F03800;" d="M168.205,233.02l39.127,0.006c-2.313-5.851-4.446-11.614-6.157-17.35h-32.97V233.02z"/>
		<g>
			<g>
				<path style="fill:#FF641A;" d="M197.082,190.806c0,2.515,0.145,5.024,0.428,7.527h-58.604c0.283-2.567,0.422-5.053,0.422-7.527      c0-3.18-0.26-6.475-0.671-9.817h59.09C197.337,184.319,197.082,187.614,197.082,190.806z"/>
			</g>
		</g>
		<path style="fill:#F03800;" d="M197.082,190.806c0-3.191,0.254-6.487,0.665-9.817h-29.542v17.344h29.305    C197.227,195.83,197.082,193.32,197.082,190.806z"/>
		<g>
			<g>
				<path style="fill:#E0F4FF;" d="M387.446,243.039c-1.382-3.371-2.746-6.706-4.058-10.013c-1.143-2.892-11.941-8.62-11.941-8.62      s6.649-5.83,5.784-8.73c-1.734-5.799-3.041-11.563-3.665-17.344c-0.283-2.503-9.1-7.527-9.1-7.527s8.926-6.487,9.337-9.817      c1.52-12.493,5.145-25.391,5.145-34.63c0-25.091-16.239-43.359-34.688-43.359c-16.974,0-34.688,16.488-34.688,43.359      c0,9.262,3.608,22.206,5.14,34.63c0.41,3.342,9.342,9.817,9.342,9.817s-8.811,4.96-9.094,7.527      c-0.173,1.526-0.399,3.081-0.671,4.671c-0.729,4.22-1.786,8.435-3.081,12.672c-0.943,3.086,5.505,9.308,5.505,9.308      s-10.702,5.332-11.789,8.03c-1.318,3.272-2.694,6.579-4.093,9.932c-39.561,94.888,3.139,151.821,4.03,152.897l2.602,3.157      h73.595l2.602-3.157C384.7,394.577,426.307,337.91,387.446,243.039z"/>
			</g>
		</g>
		<path style="fill:#BBDCFF;" d="M381.058,399l2.602-3.157c1.041-1.266,42.648-57.934,3.787-152.804    c-1.382-3.371-2.746-6.706-4.058-10.013c-1.143-2.892-11.941-8.62-11.941-8.62s6.649-5.83,5.784-8.73    c-1.734-5.799-3.041-11.563-3.665-17.344c-0.283-2.503-9.1-7.527-9.1-7.527s8.926-6.487,9.337-9.817    c1.52-12.493,5.145-25.391,5.145-34.63c0-25.091-16.239-43.359-34.688-43.359v296H381.058z"/>
		<g>
			<g>
				<path style="fill:#FF641A;" d="M383.387,233.026l-78.463-0.012c2.365-5.868,4.538-11.626,6.284-17.338h66.022      C378.942,221.412,381.075,227.175,383.387,233.026z"/>
			</g>
		</g>
		<path style="fill:#F03800;" d="M344.26,233.02l39.127,0.006c-2.313-5.851-4.446-11.614-6.157-17.35h-32.97V233.02z"/>
		<g>
			<g>
				<path style="fill:#FF641A;" d="M373.137,190.806c0,2.515,0.145,5.024,0.428,7.527h-58.604c0.283-2.567,0.422-5.053,0.422-7.527      c0-3.18-0.26-6.475-0.671-9.817h59.09C373.392,184.319,373.137,187.614,373.137,190.806z"/>
			</g>
		</g>
		<path style="fill:#F03800;" d="M373.137,190.806c0-3.191,0.254-6.487,0.665-9.817H344.26v17.344h29.305    C373.282,195.83,373.137,193.32,373.137,190.806z"/>
		<g>
			<path style="fill:#FF641A;" d="M254.924,399c-43.035,0-78.047-35.271-78.047-78.625c0-43.035,35.012-78.047,78.047-78.047     s78.047,35.012,78.047,78.047C332.97,363.729,297.959,399,254.924,399z"/>
		</g>
		<path style="fill:#F03800;" d="M332.97,320.375c0-43.035-35.012-78.047-78.047-78.047V399    C297.959,399,332.97,363.729,332.97,320.375z"/>
		<g>
			<rect x="246.252" y="277.016" style="fill:#3E5959;" width="17.344" height="17.344"/>
		</g>
		<rect x="254.924" y="277.016" style="fill:#293939;" width="8.672" height="17.344"/>
		<g>
			<rect x="228.908" y="311.703" style="fill:#3E5959;" width="17.344" height="17.344"/>
		</g>
		<g>
			<rect x="263.596" y="311.703" style="fill:#293939;" width="17.344" height="17.344"/>
		</g>
	</g>
</g>















</svg>
