<?xml version="1.0" encoding="iso-8859-1"?>
<!-- Generator: Adobe Illustrator 19.0.0, SVG Export Plug-In . SVG Version: 6.00 Build 0)  -->
<svg xmlns="http://www.w3.org/2000/svg" xmlns:xlink="http://www.w3.org/1999/xlink" version="1.1" id="Layer_1" x="0px" y="0px" viewBox="0 0 512 512" style="enable-background:new 0 0 512 512;" xml:space="preserve" width="512" height="512">
<g>
	<circle style="fill:#FDBF00;" cx="256" cy="256" r="256"/>
	<path style="fill:#FF9100;" d="M386.5,136.5L174,137l-55.015,22.59l18.349,174.582l172.204,172.204   C425.219,481.759,512,379.021,512,256c0-13.363-1.028-26.486-3.001-39.297L402.15,109.855L386.5,136.5z"/>
	<g>
		<rect x="176.828" y="230.559" style="fill:#9ABADB;" width="104.038" height="120.707"/>
		<path style="fill:#BBDCFF;" d="M280.866,221.938c0,2.931-35.235,40.35-35.408,43.109c-3.104,48.455-32.59,86.219-68.63,86.219    c-38.109,0-68.975-42.42-68.975-94.841c0-52.422,30.866-94.841,68.975-94.841S280.866,169.516,280.866,221.938z"/>
		<path style="fill:#9ABADB;" d="M202.104,247.803c-2.704-20.216-14.54-34.488-25.276-34.488c-10.152,0-21.19,12.84-24.66,31.321    c-0.703,3.744-1.206,7.633-1.206,11.789c0,2.048,0.225,3.979,0.405,5.934c1.984,21.597,14.265,37.176,25.46,37.176    c10.736,0,22.572-14.272,25.276-34.488c0.37-2.773-16.654-5.647-16.654-8.622C185.45,253.45,202.475,250.577,202.104,247.803z"/>
		<path style="fill:#3E5959;" d="M393.525,127.097v17.244H168.206c-23.797,0-43.109,19.313-43.109,43.109v17.244    c0,18.106,11.209,33.626,27.073,40.006c5,1.897,10.346,3.104,16.037,3.104h33.97c0.345,2.759,0.518,5.69,0.518,8.622    c0,2.931-0.173,5.862-0.518,8.622h-33.97c-5.863,0-11.38-1.035-16.899-2.76c-25.004-7.242-43.455-30.177-43.455-57.594V187.45    c0-33.28,27.073-60.353,60.353-60.353H393.525z"/>
		<rect x="323.975" y="127.097" style="fill:#293939;" width="69.55" height="17.244"/>
		<path style="fill:#E0F4FF;" d="M402.147,265.047v139.1l-39.373-17.244l-38.799,17.244l-38.799-17.244l-39.373,17.244v-139.1    l17.244-8.622l-17.589-8.622c-3.104-48.282-32.59-86.219-68.63-86.219h147.147c40.351,0,74.206,37.937,77.827,86.219    l-16.899,8.622L402.147,265.047z"/>
		<path style="fill:#BBDCFF;" d="M402.147,265.047v139.1l-39.373-17.244l-38.799,17.244V161.584    c40.351,0,74.206,37.937,77.827,86.219l-16.899,8.622L402.147,265.047z"/>
		<rect x="384.903" y="109.853" style="fill:#3E5959;" width="17.244" height="51.731"/>
		<path style="fill:#9ABADB;" d="M401.79,247.803h-34.131v17.244h34.488v-8.622C402.147,253.515,402.002,250.647,401.79,247.803z"/>
		<path style="fill:#BBDCFF;" d="M280.866,247.803h-35.378c0.186,2.844,0.316,5.711,0.316,8.622v8.622h35.062V247.803z"/>
		<rect x="298.109" y="247.803" style="fill:#BBDCFF;" width="17.244" height="17.244"/>
		<rect x="332.597" y="247.803" style="fill:#9ABADB;" width="17.244" height="17.244"/>
	</g>
</g>















</svg>
