<?xml version="1.0" encoding="iso-8859-1"?>
<!-- Generator: Adobe Illustrator 19.0.0, SVG Export Plug-In . SVG Version: 6.00 Build 0)  -->
<svg xmlns="http://www.w3.org/2000/svg" xmlns:xlink="http://www.w3.org/1999/xlink" version="1.1" id="Layer_1" x="0px" y="0px" viewBox="0 0 512 512" style="enable-background:new 0 0 512 512;" xml:space="preserve" width="512" height="512">
<g>
	<circle style="fill:#FF641A;" cx="256" cy="256" r="256"/>
	<path style="fill:#F03800;" d="M511.916,249.373L368.547,106.004L167,114l-57.98,250.958l26.135,26.135L126.249,400   l111.335,111.335C243.668,511.767,249.806,512,256,512c141.385,0,256-114.615,256-256C512,253.784,511.972,251.575,511.916,249.373   z"/>
	<g>
		<polygon style="fill:#E0F4FF;" points="368.547,106 368.547,123.227 166.02,123.227 174.633,106   "/>
		<rect x="256" y="106" style="fill:#BBDCFF;" width="112.547" height="17.227"/>
		<path style="fill:#BBDCFF;" d="M174.633,106h-27.907l-25.84,51.68h79.587L174.633,106z"/>
		<path style="fill:#537983;" d="M157.391,400h-31.164v-52.254h57.004L157.391,400z"/>
		<path style="fill:#3E5959;" d="M385.773,400h-31.164l-25.84-52.254h57.004V400z"/>
		<path style="fill:#FDBF00;" d="M109,140.453v224.519h294V140.453H109z"/>
		<rect x="256" y="140.453" style="fill:#FF9100;" width="147" height="224.519"/>
		<path style="fill:#537983;" d="M143.453,174.906v155.613h156.187V174.906H143.453z"/>
		<path style="fill:#3E5959;" d="M368.547,227.16h-51.68v-52.254h51.68V227.16z"/>
		<rect x="316.867" y="244.387" style="fill:#3E5959;" width="51.68" height="17.227"/>
		<rect x="316.867" y="278.84" style="fill:#3E5959;" width="51.68" height="17.227"/>
		<rect x="316.867" y="313.293" style="fill:#3E5959;" width="51.68" height="17.227"/>
		<rect x="256" y="174.906" style="fill:#3E5959;" width="43.641" height="155.613"/>
	</g>
</g>















</svg>
