<?xml version="1.0" encoding="iso-8859-1"?>
<!-- Generator: Adobe Illustrator 19.0.0, SVG Export Plug-In . SVG Version: 6.00 Build 0)  -->
<svg xmlns="http://www.w3.org/2000/svg" xmlns:xlink="http://www.w3.org/1999/xlink" version="1.1" id="Layer_1" x="0px" y="0px" viewBox="0 0 512 512" style="enable-background:new 0 0 512 512;" xml:space="preserve" width="512" height="512">
<g>
	<circle style="fill:#FDBF00;" cx="256" cy="256" r="256"/>
	<path style="fill:#FF9100;" d="M512,255.962L388.458,132.42l-103.481,14.557l-15.093,15.093l66.105,66.105L305.165,259   l-81.414-81.414l-31.332,31.332l10.081,10.081l-14.668,14.668l-59.622-59.622l-31.332,31.332l59.622,59.622l-65.06,65.06   l181.377,181.377C406.36,502.773,512,391.733,512,256C512,255.987,512,255.975,512,255.962z"/>
	<g>
		<path style="fill:#F03800;" d="M374.034,252.778l-84.389,77.275h-59.948l-19.763-32.214l19.763-27.075    c10.277,0,21.015-0.593,30.304-1.581c39.922-5.336,69.171-23.32,69.171-67.59c0-18.577,12.649-34.388,30.633-38.538l8.894-1.976    l2.767,8.498C379.369,193.488,380.358,225.9,374.034,252.778z"/>
		<path style="fill:#CD0000;" d="M374.034,252.778l-84.389,77.275H260v-60.871c39.922-5.336,69.171-23.32,69.171-67.59    c0-18.577,12.649-34.388,30.633-38.538l8.894-1.976l2.767,8.498C379.369,193.488,380.358,225.9,374.034,252.778z"/>
		<path style="fill:#F03800;" d="M160.525,191.71c-38.143,0-69.171,31.028-69.171,69.171v59.29h138.342v-59.29    C229.696,222.739,198.668,191.71,160.525,191.71z"/>
		<path style="fill:#537983;" d="M209.933,211.474h-98.816c-10.915,0-19.763-8.848-19.763-19.763v0    c0-10.915,8.848-19.763,19.763-19.763h98.816c10.915,0,19.763,8.848,19.763,19.763v0    C229.696,202.625,220.848,211.474,209.933,211.474z"/>
		<rect x="269.882" y="142.302" style="fill:#3E5959;" width="49.408" height="19.763"/>
		<path style="fill:#CD0000;" d="M388.461,171.947h-59.29c-10.915,0-19.763-8.848-19.763-19.763v0    c0-10.915,8.848-19.763,19.763-19.763h59.29V171.947z"/>
		<path style="fill:#537983;" d="M160.525,369.579L160.525,369.579c-27.287,0-49.408-22.121-49.408-49.408v0    c0-27.287,22.121-49.408,49.408-49.408h0c27.287,0,49.408,22.121,49.408,49.408v0    C209.933,347.458,187.813,369.579,160.525,369.579z"/>
		<path style="fill:#E0F4FF;" d="M160.525,349.816c-16.347,0-29.645-13.298-29.645-29.645s13.298-29.645,29.645-29.645    s29.645,13.298,29.645,29.645S176.872,349.816,160.525,349.816z"/>
		<path style="fill:#FF641A;" d="M160.525,251c-38.143,0-69.171,31.028-69.171,69.171v9.882h138.342v-9.882    C229.696,282.028,198.668,251,160.525,251z"/>
		<path style="fill:#3E5959;" d="M359.475,369.579h-0.659c-27.287,0-49.408-22.121-49.408-49.408v0    c0-27.287,22.121-49.408,49.408-49.408h0.659c27.287,0,49.408,22.121,49.408,49.408v0    C408.883,347.458,386.762,369.579,359.475,369.579z"/>
		<path style="fill:#BBDCFF;" d="M358.816,349.816c-16.347,0-29.645-13.298-29.645-29.645s13.298-29.645,29.645-29.645    c16.347,0,29.645,13.298,29.645,29.645S375.163,349.816,358.816,349.816z"/>
		<path style="fill:#F03800;" d="M374.034,252.778c-4.941-1.186-10.079-1.778-15.218-1.778c-38.143,0-69.171,31.028-69.171,69.171    v9.882h139.001v-9.882C428.646,287.364,404.865,259.696,374.034,252.778z"/>
	</g>
</g>















</svg>
