<?xml version="1.0" encoding="iso-8859-1"?>
<!-- Generator: Adobe Illustrator 19.0.0, SVG Export Plug-In . SVG Version: 6.00 Build 0)  -->
<svg xmlns="http://www.w3.org/2000/svg" xmlns:xlink="http://www.w3.org/1999/xlink" version="1.1" id="Layer_1" x="0px" y="0px" viewBox="0 0 512 512" style="enable-background:new 0 0 512 512;" xml:space="preserve" width="512" height="512">
<g>
	<circle style="fill:#FDBF00;" cx="256" cy="256" r="256"/>
	<path style="fill:#FF9100;" d="M512,256c0-16.628-1.604-32.88-4.632-48.625L402.78,102.787L263.83,241.737l-33.911-33.912l-139,139   l165.174,165.174C397.435,511.949,512,397.354,512,256z"/>
	<g>
		<path style="fill:#BBDCFF;" d="M254.655,375.614l10.463-15.701c31.017,20.671,61.662,20.176,82.001-1.322    c16.645-17.596,24.072-49.962,5.068-75.297c-26.574-35.447-26.513-74.62-2.552-110.907l15.74,10.398    c-19.707,29.857-20.068,59.884,1.913,89.187c22.118,29.492,19.342,72.307-6.463,99.584    C339.842,393.738,300.929,406.462,254.655,375.614z"/>
		<path style="fill:#FF641A;" d="M248.903,408.845c-8.005,8.005-20.013,13.609-32.154,15.343c-12.008,1.868-23.882-0.4-31.354-7.871    c-8.406-8.406-8.539-18.412-8.806-26.684c-0.267-9.873-0.267-24.027-12.542-33.634c-3.202-2.401-6.27-4.402-9.073-5.603    c-10.541-5.204-19.479-3.202-30.153-0.8c-5.337,1.334-10.807,2.535-16.811,2.935c-6.937,0.533-13.209-1.735-17.745-6.271    c-0.134-0.134-0.134-0.134-0.134-0.134c-7.204-7.204-10.139-19.213-9.205-36.691c0.667-15.076,4.937-36.691,21.214-52.968    c13.076-13.076,29.219-19.613,49.1-20.013c12.007-0.266,22.548-0.401,29.352-5.871c6.004-4.669,8.006-12.275,10.274-20.947    c0.801-3.203,1.601-6.137,2.535-9.206c5.203-16.144,18.012-27.618,35.224-31.754c19.079-4.67,40.159,0.934,53.635,14.41    c6.805,6.805,11.875,15.344,15.077,24.95L264.114,257c14.276-7.872,32.689-6.004,44.83,6.137    c6.671,6.671,10.407,16.01,10.274,25.75c0,9.608-4.003,18.946-10.541,25.484c-7.871,7.606-17.745,8.94-25.75,10.007    c-7.338,0.934-11.875,1.735-15.077,4.937c-5.738,5.738-5.471,12.142-4.403,24.149    C264.781,367.872,266.382,391.366,248.903,408.845z"/>
		<path style="fill:#F03800;" d="M248.903,408.845c-8.005,8.005-20.013,13.609-32.154,15.343c-12.008,1.868-23.882-0.4-31.354-7.871    c-8.406-8.406-8.539-18.412-8.806-26.684c-0.267-9.873-0.267-24.027-12.542-33.634c-3.202-2.401-6.27-4.402-9.073-5.603    l142.361-142.361L264.114,257c14.276-7.872,32.689-6.004,44.83,6.137c6.671,6.671,10.407,16.01,10.274,25.75    c0,9.608-4.003,18.946-10.541,25.484c-7.871,7.606-17.745,8.94-25.75,10.007c-7.338,0.934-11.875,1.735-15.077,4.937    c-5.738,5.738-5.471,12.142-4.403,24.149C264.781,367.872,266.382,391.366,248.903,408.845z"/>
		<polygon style="fill:#537983;" points="402.783,129.467 254.564,277.489 227.88,250.805 376.099,102.783 402.783,102.783   "/>
		<polygon style="fill:#3E5959;" points="254.564,277.489 241.222,264.147 402.783,102.783 402.783,129.467   "/>
		
			<rect x="359.993" y="98.401" transform="matrix(0.7071 -0.7071 0.7071 0.7071 11.9384 301.0987)" style="fill:#3E5959;" width="18.869" height="75.475"/>
		
			<rect x="333.309" y="125.085" transform="matrix(0.7071 -0.7071 0.7071 0.7071 -14.7459 290.0457)" style="fill:#3E5959;" width="18.869" height="75.475"/>
		
			<rect x="198.432" y="269.199" transform="matrix(0.7071 -0.7071 0.7071 0.7071 -149.4835 234.1201)" style="fill:#537983;" width="18.869" height="56.606"/>
		
			<rect x="208.439" y="293.358" transform="matrix(0.7071 -0.7071 0.7071 0.7071 -153.6283 244.1267)" style="fill:#3E5959;" width="18.869" height="28.303"/>
		
			<rect x="363.901" y="140.046" transform="matrix(0.7071 0.7071 -0.7071 0.7071 217.8094 -226.8772)" style="fill:#293939;" width="37.737" height="18.869"/>
		
			<rect x="337.217" y="166.731" transform="matrix(0.7071 0.7071 -0.7071 0.7071 228.8624 -200.1928)" style="fill:#293939;" width="37.737" height="18.869"/>
	</g>
</g>















</svg>
