<?xml version="1.0" encoding="iso-8859-1"?>
<!-- Generator: Adobe Illustrator 19.0.0, SVG Export Plug-In . SVG Version: 6.00 Build 0)  -->
<svg xmlns="http://www.w3.org/2000/svg" xmlns:xlink="http://www.w3.org/1999/xlink" version="1.1" id="Layer_1" x="0px" y="0px" viewBox="0 0 512 512" style="enable-background:new 0 0 512 512;" xml:space="preserve" width="512" height="512">
<g>
	<circle style="fill:#FDBF00;" cx="256" cy="256" r="256"/>
	<path style="fill:#FF9100;" d="M512,256c0-11.371-0.751-22.565-2.188-33.544L395.443,108.087l-48.777,7.579l7.806,33.474   l-14.535,14.535l-52.792-52.792l-0.453,0.453l-3.25-3.25l-28.678,28.678l-5.635-5.635l-30.171,30.171l-53.313-53.313l-48.98,7.678   L115.333,191l1.092,72.834l61.677,61.677l-67.135,67.136l117.925,117.925C237.801,511.509,246.843,512,256,512   C397.385,512,512,397.385,512,256z"/>
	<g>
		<path style="fill:#537983;" d="M299.945,141.945v8.789h-87.891v-8.789C212.055,117.687,231.742,98,256,98    c12.129,0,23.203,4.921,31.114,12.832C295.023,118.742,299.945,129.816,299.945,141.945z"/>
		<path style="fill:#3E5959;" d="M299.945,150.734H256V98c12.129,0,23.203,4.921,31.114,12.832    c7.909,7.91,12.832,18.985,12.832,31.114V150.734z"/>
		<path style="fill:#537983;" d="M141.156,98c19.416,0,35.156,15.739,35.156,35.156v87.891h-17.578v-87.891    c0-9.69-7.888-17.578-17.578-17.578c-9.69,0-17.578,7.888-17.578,17.578v105.469c0,9.69,7.888,17.578,17.578,17.578h52.734v18.164    h-52.734c-19.416,0-35.156-16.326-35.156-35.742V133.156C106,113.739,121.74,98,141.156,98z"/>
		<path style="fill:#3E5959;" d="M370.844,98c-19.416,0-35.156,15.739-35.156,35.156v87.891h17.578v-87.891    c0-9.69,7.888-17.578,17.578-17.578s17.578,7.888,17.578,17.578v105.469c0,9.69-7.888,17.578-17.578,17.578h-52.734v18.164h52.734    c19.416,0,35.156-16.326,35.156-35.742V133.156C406,113.739,390.26,98,370.844,98z"/>
		<path style="fill:#76E2F8;" d="M141.156,247.414l35.156-8.789v-87.891c0-9.708-7.87-17.578-17.578-17.578h0    c-9.708,0-17.578,7.87-17.578,17.578V247.414z"/>
		<path style="fill:#15CCEA;" d="M370.844,247.414l-35.156-8.789v-87.891c0-9.708,7.87-17.578,17.578-17.578h0    c9.708,0,17.578,7.87,17.578,17.578V247.414z"/>
		<path style="fill:#3E5959;" d="M141.156,327.102l-17.578-17.578L106,327.102v53.32c0,9.708,7.87,17.578,17.578,17.578h17.578    l17.578-33.281L141.156,327.102z"/>
		<path style="fill:#537983;" d="M106,327.102h35.156l17.578-21.973l-17.578-13.184h-17.578c-9.708,0-17.578,7.87-17.578,17.578    V327.102z"/>
		<path style="fill:#293939;" d="M370.844,327.102l17.578-17.578L406,327.102v53.32c0,9.708-7.87,17.578-17.578,17.578h-17.578    l-17.578-33.281L370.844,327.102z"/>
		<path style="fill:#3E5959;" d="M406,327.102h-35.156l-17.578-21.973l17.578-13.184h17.578c9.708,0,17.578,7.87,17.578,17.578    V327.102z"/>
		<path style="fill:#9BFCFF;" d="M370.844,247.414V398h-35.156l-17.578-17.578H193.891L176.313,398h-35.156V247.414    c0-62.93,51.914-114.258,114.844-114.258S370.844,184.484,370.844,247.414z"/>
		<path style="fill:#76E2F8;" d="M370.844,247.414V398h-35.156l-17.578-17.578H256V133.156    C318.93,133.156,370.844,184.484,370.844,247.414z"/>
		<polygon style="fill:#537983;" points="335.688,274.367 335.688,398 176.313,398 176.313,274.367 229.633,274.367     238.422,291.945 247.211,274.367   "/>
		<rect x="256" y="274.367" style="fill:#3E5959;" width="79.688" height="123.633"/>
		<rect x="247.211" y="177.102" style="fill:#E0F4FF;" width="17.578" height="43.945"/>
		<rect x="256" y="177.102" style="fill:#BBDCFF;" width="8.789" height="43.945"/>
		<path style="fill:#537983;" d="M335.688,247.414h-17.578c0-33.926-28.184-61.523-62.109-61.523s-62.109,27.598-62.109,61.523    h-17.578c0-43.594,36.094-79.102,79.688-79.102S335.688,203.82,335.688,247.414z"/>
		<rect x="229.633" y="274.367" style="fill:#E0F4FF;" width="17.578" height="52.734"/>
		<path style="fill:#3E5959;" d="M256,185.891v-17.578c43.593,0,79.688,35.507,79.688,79.102h-17.578    C318.109,213.488,289.926,185.891,256,185.891z"/>
	</g>
</g>















</svg>
