<?xml version="1.0" encoding="iso-8859-1"?>
<!-- Generator: Adobe Illustrator 19.0.0, SVG Export Plug-In . SVG Version: 6.00 Build 0)  -->
<svg xmlns="http://www.w3.org/2000/svg" xmlns:xlink="http://www.w3.org/1999/xlink" version="1.1" id="Layer_1" x="0px" y="0px" viewBox="0 0 512 512" style="enable-background:new 0 0 512 512;" xml:space="preserve" width="512" height="512">
<g>
	<circle style="fill:#537983;" cx="256" cy="256" r="256"/>
	<path style="fill:#3E5959;" d="M392.289,165.671l-3.073,3.073l-93.01-93.01l-30.207,1.301l-19.819,19.819l34.717,34.717   l-50.413,33.413L128.325,284.141l46.924,46.924l-7.092,7.092l-8-8l-18.333,18.333l-19.339-19.339l-28.364,28.364l19.339,19.339   l-19.672,19.672l110.176,110.176C220.767,510.172,238.17,512,256,512c131.967,0,240.596-99.859,254.485-228.133L392.289,165.671z"/>
	<g>
		<path style="fill:#E0F4FF;" d="M319.248,146.937l-8.641,17.679l-34.964-17.482l-34.964,17.482l-8.641-17.679l33.784-16.892V106.67    h9.821c5.5,0,9.821-4.321,9.821-9.821s-4.321-9.821-9.821-9.821s-9.821,4.321-9.821,9.821h-19.642    c0-16.303,13.16-29.463,29.464-29.463s29.463,13.16,29.463,29.463c0,12.768-8.249,23.768-19.642,27.695v5.5L319.248,146.937z"/>
		<path style="fill:#BBDCFF;" d="M319.248,146.937l-8.641,17.679l-34.964-17.482V106.67c5.5,0,9.821-4.321,9.821-9.821    s-4.321-9.821-9.821-9.821V67.385c16.303,0,29.463,13.16,29.463,29.463c0,12.768-8.249,23.768-19.642,27.695v5.5L319.248,146.937z    "/>
		<g>
			<polygon style="fill:#9BFCFF;" points="134.006,244.821 128.325,284.106 187.252,284.106 206.894,264.463 187.252,244.821      157.788,225.179    "/>
		</g>
		<polygon style="fill:#76E2F8;" points="417.919,244.821 389.24,225.179 364.033,244.821 344.39,264.463 364.033,284.106     423.615,284.106   "/>
		<path style="fill:#76E2F8;" d="M417.919,244.821h-53.886v157.793h-98.212l-78.569-78.569v-79.224h-53.231l5.894-41.511    c5.499-33.196,33.981-57.355,67.765-57.355h38.499v9.821c0,16.303,13.16,29.463,29.464,29.463s29.463-13.16,29.463-29.463v-9.821    h38.499c33.784,0,62.921,24.16,68.42,57.355L417.919,244.821z"/>
		<path style="fill:#15CCEA;" d="M417.919,244.821h-53.886v157.793h-88.39V185.239c16.303,0,29.463-13.16,29.463-29.463v-9.821    h38.499c33.784,0,62.921,24.16,68.42,57.355L417.919,244.821z"/>
		<path style="fill:#FFDA2D;" d="M285.464,343.688c0,10.803-8.839,19.642-19.642,19.642l-22.196,19.642H127.67l-19.642-19.642    c-10.803,0-19.642-8.839-19.642-19.642s8.839-19.642,19.642-19.642h157.793C276.624,324.045,285.464,332.884,285.464,343.688z"/>
		<path style="fill:#FDBF00;" d="M285.464,343.688c0,10.803-8.839,19.642-19.642,19.642l-22.196,19.642h-56.373v-58.927h78.569    C276.624,324.045,285.464,332.884,285.464,343.688z"/>
		<path style="fill:#FDBF00;" d="M285.464,382.972c0,10.803-8.839,19.642-19.642,19.642H108.028    c-10.803,0-19.642-8.839-19.642-19.642s8.839-19.642,19.642-19.642h157.793C276.624,363.33,285.464,372.169,285.464,382.972z"/>
		<path style="fill:#FF9100;" d="M285.464,382.972c0,10.803-8.839,19.642-19.642,19.642h-78.569V363.33h78.569    C276.624,363.33,285.464,372.169,285.464,382.972z"/>
	</g>
</g>















</svg>
