<?xml version="1.0" encoding="iso-8859-1"?>
<!-- Generator: Adobe Illustrator 19.0.0, SVG Export Plug-In . SVG Version: 6.00 Build 0)  -->
<svg xmlns="http://www.w3.org/2000/svg" xmlns:xlink="http://www.w3.org/1999/xlink" version="1.1" id="Layer_1" x="0px" y="0px" viewBox="0 0 512 512" style="enable-background:new 0 0 512 512;" xml:space="preserve" width="512" height="512">
<g>
	<circle style="fill:#FF641A;" cx="256" cy="256" r="256"/>
	<path style="fill:#F03800;" d="M511.782,245.856L394.631,128.706l-35,35l5.795,5.795l-21.963,21.963l-80.445-80.445L245.337,128.7   L301,184.667l-21.33,21.33l-55.663-55.967l-17.681,17.681l-28.613-14.05l-17.681,17.681L189.333,201l-25.335,43.999L87.792,271.88   l8.437,90.817l149.064,149.064C248.845,511.907,252.412,512,256,512c141.385,0,256-114.615,256-256   C512,252.601,511.913,249.223,511.782,245.856z"/>
	<g>
		<polygon style="fill:#BBDCFF;" points="373.305,192.68 298.656,192.68 287.992,128.695 394.633,128.695   "/>
		<path style="fill:#537983;" d="M149.359,384.633c-41.157,0-75.359-33.492-75.359-74.648s34.203-74.648,75.359-74.648    s74.648,33.492,74.648,74.648S190.516,384.633,149.359,384.633z M149.359,256.664c-29.399,0-54.031,23.921-54.031,53.32    c0,29.399,24.632,53.32,54.031,53.32s53.32-23.921,53.32-53.32C202.68,280.585,178.758,256.664,149.359,256.664z"/>
		<path style="fill:#3E5959;" d="M362.641,384.633c-41.157,0-74.648-33.492-74.648-74.648s33.492-74.648,74.648-74.648    S438,268.828,438,309.984S403.797,384.633,362.641,384.633z M362.641,256.664c-29.399,0-53.32,23.921-53.32,53.32    c0,29.399,23.921,53.32,53.32,53.32s54.031-23.921,54.031-53.32C416.672,280.585,392.04,256.664,362.641,256.664z"/>
		<path style="fill:#76E2F8;" d="M363.707,284.39l-17.915,11.517l-47.349-73.155L256,285.243l-3.625,5.332l-17.703-11.944    L256,247.28l22.608-33.272h-80.194l-44.363,80.406l-18.768-10.451l46.068-83.392v-39.883h21.328v31.992h85.313v-42.656    c0-11.73-9.598-21.328-21.328-21.328h-21.328v-21.328h21.328c23.46,0,42.656,19.196,42.656,42.656v50.121L363.707,284.39z"/>
		<path style="fill:#15CCEA;" d="M363.707,284.39l-17.915,11.517l-47.349-73.155L256,285.243V247.28l22.608-33.272H256V192.68    h31.992v-42.656c0-11.73-9.598-21.328-21.328-21.328H256v-21.328h10.664c23.46,0,42.656,19.196,42.656,42.656v50.121    L363.707,284.39z"/>
		<path style="fill:#9ABADB;" d="M362.641,341.977c-17.642,0-31.992-14.351-31.992-31.992c0-17.642,14.351-31.992,31.992-31.992    c17.642,0,32.703,14.351,32.703,31.992C395.344,327.626,380.282,341.977,362.641,341.977z"/>
		<rect x="160.023" y="150.023" style="fill:#537983;" width="63.984" height="21.328"/>
		<path style="fill:#BBDCFF;" d="M256,281.831c-2.559-2.986-5.546-5.546-8.957-7.678c-8.532-5.546-19.196-7.679-29.219-6.399    l-73.155,10.664c-15.57,2.134-28.012,15.784-28.012,31.566c0,15.783,12.441,29.433,28.012,31.565l73.155,10.664    c15.142,2.132,29.219-3.839,38.177-14.503c6.612-7.464,10.664-17.062,10.664-27.726C266.664,299.534,262.825,289.509,256,281.831z    "/>
	</g>
</g>















</svg>
