<?xml version="1.0" encoding="iso-8859-1"?>
<!-- Generator: Adobe Illustrator 19.0.0, SVG Export Plug-In . SVG Version: 6.00 Build 0)  -->
<svg xmlns="http://www.w3.org/2000/svg" xmlns:xlink="http://www.w3.org/1999/xlink" version="1.1" id="Layer_1" x="0px" y="0px" viewBox="0 0 512 512" style="enable-background:new 0 0 512 512;" xml:space="preserve" width="512" height="512">
<g>
	<circle style="fill:#FF641A;" cx="256" cy="256" r="256"/>
	<path style="fill:#F03800;" d="M512,256c0-14.719-1.26-29.142-3.645-43.181l-95.688-95.688L309.469,220.329l-37.344-37.344   L99.357,355.753l156.242,156.242c0.134,0,0.267,0.005,0.401,0.005C397.385,512,512,397.385,512,256z"/>
	<g>
		<polygon style="fill:#3E5959;" points="412.667,117.125 412.667,319.078 394.307,337.437 117.693,337.437 99.333,319.078     99.333,117.125   "/>
		<polygon style="fill:#293939;" points="412.667,117.125 412.667,319.078 394.307,337.437 256,337.437 256,117.125   "/>
		<rect x="117.693" y="135.484" style="fill:#9BFCFF;" width="276.615" height="165.234"/>
		<rect x="256" y="135.484" style="fill:#76E2F8;" width="138.307" height="165.234"/>
		<polygon style="fill:#BBDCFF;" points="301.715,399.676 210.285,399.676 222.586,344.598 289.414,344.598   "/>
		<polygon style="fill:#9ABADB;" points="289.414,344.598 301.715,399.676 256,399.676 256,344.598   "/>
		<rect x="191.742" y="392.516" style="fill:#E0F4FF;" width="128.516" height="18.359"/>
		<rect x="256" y="392.516" style="fill:#BBDCFF;" width="64.258" height="18.359"/>
		<rect x="99.333" y="319.078" style="fill:#E0F4FF;" width="313.333" height="36.719"/>
		<rect x="256" y="319.078" style="fill:#BBDCFF;" width="156.667" height="36.719"/>
		<path style="fill:#76E2F8;" d="M256,163.023l-64.258,10.648v88.86L256,273.363l64.258,10.648v-131.82L256,163.023z"/>
		<polygon style="fill:#15CCEA;" points="320.258,152.191 320.258,284.011 256,273.363 256,163.023   "/>
		<polygon style="fill:#76E2F8;" points="301.898,208.922 265.18,208.922 265.18,179.979 301.898,173.862   "/>
		<polygon style="fill:#9BFCFF;" points="246.82,183.038 246.82,208.922 210.102,208.922 210.102,189.155   "/>
		<polygon style="fill:#9BFCFF;" points="210.102,227.281 246.82,227.281 246.82,253.165 210.102,247.048   "/>
		<polygon style="fill:#76E2F8;" points="265.18,256.224 265.18,227.281 301.898,227.281 301.898,262.342   "/>
	</g>
</g>















</svg>
