<?xml version="1.0" encoding="iso-8859-1"?>
<!-- Generator: Adobe Illustrator 19.0.0, SVG Export Plug-In . SVG Version: 6.00 Build 0)  -->
<svg xmlns="http://www.w3.org/2000/svg" xmlns:xlink="http://www.w3.org/1999/xlink" version="1.1" id="Layer_1" x="0px" y="0px" viewBox="0 0 512 512" style="enable-background:new 0 0 512 512;" xml:space="preserve" width="512" height="512">
<g>
	<circle style="fill:#537983;" cx="256" cy="256" r="256"/>
	<path style="fill:#3E5959;" d="M512,256c0-4.628-0.13-9.225-0.372-13.792L393.58,124.161l-18.337,18.337l-55.036-55.036   l-39.917,39.917l55.036,55.036l-99.206,99.206l0.609,0.609L118.415,400.544l109.969,109.969C237.457,511.487,246.668,512,256,512   C397.385,512,512,397.385,512,256z"/>
	<g>
		<rect x="118.415" y="124.149" style="fill:#76E2F8;" width="275.169" height="276.392"/>
		<rect x="256" y="124.149" style="fill:#15CCEA;" width="137.585" height="276.392"/>
		<rect x="283.517" y="234.216" style="fill:#76E2F8;" width="73.378" height="18.345"/>
		<rect x="155.105" y="234.216" style="fill:#9BFCFF;" width="73.378" height="18.345"/>
		<polygon style="fill:#76E2F8;" points="320.206,87.459 320.206,114.976 256,142.493 191.794,114.976 191.794,87.459   "/>
		<polygon style="fill:#15CCEA;" points="320.206,87.459 320.206,114.976 256,142.493 256,87.459   "/>
		<polygon style="fill:#9BFCFF;" points="219.311,197.527 173.449,124.149 191.794,87.459 256,142.493   "/>
		<polygon style="fill:#76E2F8;" points="292.689,197.527 338.551,124.149 320.206,87.459 256,142.493   "/>
	</g>
</g>















</svg>
