<?xml version="1.0" encoding="iso-8859-1"?>
<!-- Generator: Adobe Illustrator 19.0.0, SVG Export Plug-In . SVG Version: 6.00 Build 0)  -->
<svg xmlns="http://www.w3.org/2000/svg" xmlns:xlink="http://www.w3.org/1999/xlink" version="1.1" id="Layer_1" x="0px" y="0px" viewBox="0 0 512 512" style="enable-background:new 0 0 512 512;" xml:space="preserve" width="512" height="512">
<g>
	<circle style="fill:#FDBF00;" cx="256" cy="256" r="256"/>
	<path style="fill:#FF9100;" d="M508.249,299.822L376.445,168.018l-70,70L181.82,113.393l-37.214,37.214l106.917,106.917   L113.291,395.756L228.005,510.47c9.196,1,18.533,1.53,27.995,1.53C382.442,512,487.461,420.326,508.249,299.822z"/>
	<g>
		<path style="fill:#537983;" d="M412.755,254.775c0,67.741-55.691,123.431-123.431,123.431s-123.431-55.691-123.431-123.431    s55.691-122.846,123.431-122.846S412.755,187.034,412.755,254.775z"/>
		<path style="fill:#3E5959;" d="M412.755,254.775c0,67.741-55.691,123.431-123.431,123.431V131.929    C357.065,131.929,412.755,187.034,412.755,254.775z"/>
		<path style="fill:#E0F4FF;" d="M289.324,167.027c-48.437,0-88.332,39.311-88.332,87.747s39.896,87.747,88.332,87.747    s87.747-39.311,87.747-87.747S337.761,167.027,289.324,167.027z"/>
		<path style="fill:#BBDCFF;" d="M377.071,254.775c0,48.437-39.311,87.747-87.747,87.747V167.027    C337.761,167.027,377.071,206.338,377.071,254.775z"/>
		<path style="fill:#15CCEA;" d="M412.755,342.522v8.775c0,24.218-20.24,44.459-44.459,44.459H218.541l-17.549-26.909l17.549-26.324    H412.755z"/>
		<path style="fill:#00C0F1;" d="M412.755,342.522v8.775c0,24.218-20.24,44.459-44.459,44.459h-78.973v-53.233H412.755z"/>
		<path style="fill:#FF641A;" d="M165.893,102.387c-7.897-4.036-16.848-6.142-26.324-6.142h-8.775v105.882l17.549,17.549h35.099    l17.549-17.549v-43.874C200.992,133.859,186.601,112.038,165.893,102.387z"/>
		<path style="fill:#F03800;" d="M183.442,219.676h-17.549V102.387c20.708,9.652,35.099,31.472,35.099,55.866v43.874    L183.442,219.676z"/>
		<rect x="130.794" y="202.126" style="fill:#3E5959;" width="70.198" height="70.198"/>
		<rect x="165.893" y="202.126" style="fill:#293939;" width="35.099" height="70.198"/>
		<polygon style="fill:#537983;" points="218.541,289.874 218.541,395.755 113.245,395.755 113.245,289.874 130.794,272.324     200.992,272.324   "/>
		<polygon style="fill:#3E5959;" points="218.541,289.874 218.541,395.755 165.893,395.755 165.893,272.324 200.992,272.324   "/>
		<rect x="113.245" y="254.775" style="fill:#BBDCFF;" width="105.297" height="35.099"/>
		<rect x="165.893" y="254.775" style="fill:#9ABADB;" width="52.648" height="35.099"/>
	</g>
</g>















</svg>
