<?xml version="1.0" encoding="iso-8859-1"?>
<!-- Generator: Adobe Illustrator 19.0.0, SVG Export Plug-In . SVG Version: 6.00 Build 0)  -->
<svg xmlns="http://www.w3.org/2000/svg" xmlns:xlink="http://www.w3.org/1999/xlink" version="1.1" id="Layer_1" x="0px" y="0px" viewBox="0 0 512 512" style="enable-background:new 0 0 512 512;" xml:space="preserve" width="512" height="512">
<g>
	<circle style="fill:#FDBF00;" cx="256" cy="256" r="256"/>
	<path style="fill:#FF9100;" d="M512,256c0-9.328-0.513-18.535-1.485-27.604L388.281,106.162l-12.81,12.81l-8.778-8.777   l-13.515,13.515l26.335,26.334l-9.087,9.087l-35.405-35.405l-8.797,8.797l-26.339-26.339l-26.329,26.329l-26.352-26.352   l-12.814,12.814l-8.782-8.783l-13.515,13.515l70.24,70.24l-8.798,8.798l-79.021-79.021l-9.073,9.073l-26.635-26.636l-28.199,28.199   l105.656,105.656L106.151,370.13l26.638,26.638l-9.086,9.086L228.36,510.511c9.081,0.975,18.3,1.489,27.64,1.489   C397.385,512,512,397.385,512,256z"/>
	<g>
		<path style="fill:#3E5959;" d="M155.479,405.85h-31.768v-53.267h58.695L155.479,405.85z"/>
		<path style="fill:#293939;" d="M388.289,405.85h-31.768l-26.926-53.267h58.695V405.85z"/>
		<rect x="176.978" y="123.711" style="fill:#FF641A;" width="17.561" height="26.341"/>
		<rect x="317.462" y="123.711" style="fill:#F03800;" width="17.561" height="26.341"/>
		<polygon style="fill:#537983;" points="141.271,150.051 123.711,150.051 123.711,106.15 158.832,106.15 158.832,123.711     141.271,123.711   "/>
		<polygon style="fill:#537983;" points="247.22,150.051 229.659,150.051 229.659,123.711 212.099,123.711 212.099,106.15     247.22,106.15   "/>
		<polygon style="fill:#3E5959;" points="282.341,150.051 264.78,150.051 264.78,106.15 299.901,106.15 299.901,123.711     282.341,123.711   "/>
		<polygon style="fill:#3E5959;" points="388.289,150.051 370.729,150.051 370.729,123.711 353.168,123.711 353.168,106.15     388.289,106.15   "/>
		<polygon style="fill:#FF641A;" points="405.85,211.513 405.85,370.143 370.729,370.143 353.168,352.583 158.832,352.583     141.271,370.143 106.15,370.143 106.15,211.513 123.711,193.953 388.289,193.953   "/>
		<polygon style="fill:#F03800;" points="405.85,211.513 405.85,370.143 370.729,370.143 353.168,352.583 256,352.583 256,193.953     388.289,193.953   "/>
		<rect x="106.15" y="141.271" style="fill:#E0F4FF;" width="299.7" height="70.242"/>
		<rect x="256" y="141.271" style="fill:#BBDCFF;" width="149.85" height="70.242"/>
		
			<rect x="194.539" y="167.613" transform="matrix(0.7071 0.7071 -0.7071 0.7071 184.2787 -92.1037)" style="fill:#537983;" width="17.559" height="17.559"/>
		
			<rect x="247.184" y="167.576" transform="matrix(0.7071 -0.7071 0.7071 0.7071 -49.7498 232.6703)" style="fill:#537983;" width="17.632" height="17.632"/>
		
			<rect x="299.902" y="167.613" transform="matrix(0.7071 0.7071 -0.7071 0.7071 215.1389 -166.6068)" style="fill:#3E5959;" width="17.559" height="17.559"/>
		<polygon style="fill:#3E5959;" points="268.468,176.392 256,188.859 256,163.924   "/>
		<polygon style="fill:#537983;" points="370.729,247.22 370.729,370.143 141.271,370.143 141.271,247.22 194.538,247.22     212.099,264.78 299.901,264.78 317.462,247.22   "/>
		<polygon style="fill:#3E5959;" points="370.729,247.22 370.729,370.143 256,370.143 256,264.78 299.901,264.78 317.462,247.22       "/>
		<rect x="176.978" y="317.462" style="fill:#3E5959;" width="158.045" height="17.561"/>
		<path style="fill:#3E5959;" d="M317.462,247.22v17.561c0,9.658-7.902,17.561-17.561,17.561h-87.803    c-9.658,0-17.561-7.902-17.561-17.561V247.22H317.462z"/>
		<path style="fill:#293939;" d="M256,247.22h61.462v17.561c0,9.658-7.902,17.561-17.561,17.561H256V247.22z"/>
		<rect x="256" y="317.462" style="fill:#293939;" width="79.022" height="17.561"/>
	</g>
</g>















</svg>
