<?xml version="1.0" encoding="iso-8859-1"?>
<!-- Generator: Adobe Illustrator 19.0.0, SVG Export Plug-In . SVG Version: 6.00 Build 0)  -->
<svg xmlns="http://www.w3.org/2000/svg" xmlns:xlink="http://www.w3.org/1999/xlink" version="1.1" id="Layer_1" x="0px" y="0px" viewBox="0 0 512 512" style="enable-background:new 0 0 512 512;" xml:space="preserve" width="512" height="512">
<g>
	<circle style="fill:#FF641A;" cx="256" cy="256" r="256"/>
	<path style="fill:#F03800;" d="M510.091,287.316L292.637,69.863L226.5,76.5L201,186l-97.531,67.558l-5.666,150.884l101.175,101.175   C217.315,509.789,236.399,512,256,512C386.782,512,494.646,413.927,510.091,287.316z"/>
	<g>
		<path style="fill:#537983;" d="M308.734,107.734v32.344l-9.281,21.094l-11.812-21.094v-32.344    c0-17.508-14.132-31.641-31.641-31.641s-31.641,14.132-31.641,31.641v32.344l-10.125,21.094l-10.969-21.094v-32.344    C203.266,78.625,226.891,55,256,55S308.734,78.625,308.734,107.734z"/>
		<path style="fill:#537983;" d="M97.797,266.641v137.812h21.094V266.641c0-19.604,13.495-35.974,31.641-40.69l21.094-10.726    l-21.094-10.799C120.665,209.482,97.797,235.357,97.797,266.641z"/>
		<path style="fill:#3E5959;" d="M256,76.094V55c29.109,0,52.734,23.625,52.734,52.734v32.344l-9.281,21.094l-11.812-21.094v-32.344    C287.641,90.226,273.508,76.094,256,76.094z"/>
		<path style="fill:#3E5959;" d="M361.469,204.425l-21.094,9.481l21.094,12.044c18.145,4.716,31.641,21.086,31.641,40.69v137.812    h21.094V266.641C414.203,235.357,391.335,209.482,361.469,204.425z"/>
		<path style="fill:#76E2F8;" d="M361.469,204.414V415H150.531V204.414c3.374-0.633,6.961-1.054,10.547-1.054    c23.203,0,42.187-18.985,42.187-42.187v-21.094h105.469v21.094c0,23.203,18.985,42.187,42.187,42.187    C354.507,203.359,358.094,203.78,361.469,204.414z"/>
		<path style="fill:#15CCEA;" d="M361.469,204.414V415H256V140.078h52.734v21.094c0,23.203,18.985,42.187,42.187,42.187    C354.507,203.359,358.094,203.78,361.469,204.414z"/>
		<polygon style="fill:#E0F4FF;" points="319.281,245.547 319.281,287.734 303.461,308.828 212.758,308.828 192.719,287.734     192.719,245.547   "/>
		<polygon style="fill:#BBDCFF;" points="319.281,245.547 319.281,287.734 303.461,308.828 256,308.828 256,245.547   "/>
		<path style="fill:#9BFCFF;" d="M319.281,287.734v21.094c0,34.804-28.476,63.281-63.281,63.281s-63.281-28.477-63.281-63.281    v-21.094H319.281z"/>
		<path style="fill:#76E2F8;" d="M319.281,287.734v21.094c0,34.804-28.476,63.281-63.281,63.281v-84.375H319.281z"/>
	</g>
</g>















</svg>
