<?xml version="1.0" encoding="iso-8859-1"?>
<!-- Generator: Adobe Illustrator 19.0.0, SVG Export Plug-In . SVG Version: 6.00 Build 0)  -->
<svg xmlns="http://www.w3.org/2000/svg" xmlns:xlink="http://www.w3.org/1999/xlink" version="1.1" id="Layer_1" x="0px" y="0px" viewBox="0 0 512 512" style="enable-background:new 0 0 512 512;" xml:space="preserve" width="512" height="512">
<g>
	<circle style="fill:#FDBF00;" cx="256" cy="256" r="256"/>
	<path style="fill:#FF9100;" d="M511.932,261.371L377.338,126.777L238.667,90l-134,114.667l-11.828,145.97l161.34,161.34   c0.608,0.004,1.212,0.023,1.821,0.023C395.589,512,509.072,400.275,511.932,261.371z"/>
	<g>
		<path style="fill:#3E5959;" d="M387.687,349.453v20.156c0,27.816-22.575,50.391-50.391,50.391h-40.984    c-16.528,0-31.04-7.861-40.313-20.156c-6.248-8.264-10.078-18.947-10.078-30.234h20.156c0,16.73,13.504,30.234,30.234,30.234    h40.984c16.73,0,30.234-13.504,30.234-30.234v-20.156H387.687z"/>
		<path style="fill:#293939;" d="M387.687,349.453v20.156c0,27.816-22.575,50.391-50.391,50.391h-40.984    c-16.528,0-31.04-7.861-40.313-20.156v-30.234h10.078c0,16.73,13.504,30.234,30.234,30.234h40.984    c16.73,0,30.234-13.504,30.234-30.234v-20.156H387.687z"/>
		<path style="fill:#76E2F8;" d="M415.1,218.437h-51.6l-2.217-6.652c-15.722-44.344-58.52-73.973-105.283-73.973    s-89.56,29.629-105.283,73.973l-2.217,6.652H99.117v-9.876C117.057,139.022,181.019,86.078,256,86.078    C334.61,86.078,400.79,143.859,415.1,218.437z"/>
		<path style="fill:#15CCEA;" d="M415.1,218.437h-51.6l-2.217-6.652c-15.722-44.344-58.52-73.973-105.283-73.973V86.078    C334.61,86.078,400.79,143.859,415.1,218.437z"/>
		<path style="fill:#3E5959;" d="M428,248.672v40.312h-20.156v-40.312c0-83.447-68.397-152.516-151.844-152.516    s-151.844,69.068-151.844,152.516v40.312H84v-40.312C84,154.139,161.467,76,256,76S428,154.139,428,248.672z"/>
		<path style="fill:#293939;" d="M428,248.672v40.312h-20.156v-40.312c0-83.447-68.397-152.516-151.844-152.516V76    C350.533,76,428,154.139,428,248.672z"/>
		<path style="fill:#9BFCFF;" d="M323.523,214.204l-8.869,18.141c-18.342-9.071-38.498-13.706-58.654-13.706    s-40.312,4.636-58.654,13.706l-8.869-18.141c21.164-10.682,44.343-15.923,67.523-15.923S302.359,203.522,323.523,214.204z"/>
		<path style="fill:#9BFCFF;" d="M305.585,250.285l-9.071,18.14c-12.699-6.45-26.606-9.675-40.514-9.675    c-13.908,0-27.816,3.224-40.514,9.675l-9.071-18.14c15.521-7.659,32.653-11.691,49.585-11.691S290.064,242.625,305.585,250.285z"/>
		<path style="fill:#9BFCFF;" d="M287.645,286.364l-9.071,17.939c-7.054-3.628-14.915-5.241-22.575-5.241    c-7.659,0-15.521,1.613-22.575,5.241l-9.071-17.939c9.876-5.039,20.762-7.458,31.645-7.458    C266.884,278.906,277.769,281.325,287.645,286.364z"/>
		<path style="fill:#537983;" d="M256,319.219c-16.73,0-30.234,13.504-30.234,30.234c0,16.73,13.504,30.234,30.234,30.234    s30.234-13.504,30.234-30.234C286.234,332.723,272.73,319.219,256,319.219z"/>
		<path style="fill:#76E2F8;" d="M144.469,359.531h-30.234C97.562,359.531,84,345.969,84,329.297v-40.313    c0-16.672,13.562-30.234,30.234-30.234h30.234V359.531z"/>
		<path style="fill:#15CCEA;" d="M397.766,359.531h-30.234V258.75h30.234c16.672,0,30.234,13.562,30.234,30.234v40.313    C428,345.969,414.438,359.531,397.766,359.531z"/>
		<path style="fill:#3E5959;" d="M286.234,349.453c0,16.73-13.504,30.234-30.234,30.234v-60.469    C272.73,319.219,286.234,332.723,286.234,349.453z"/>
		<path style="fill:#76E2F8;" d="M256,278.906c10.884,0,21.769,2.419,31.645,7.458l-9.071,17.939    c-7.054-3.628-14.915-5.241-22.575-5.241V278.906z"/>
		<path style="fill:#76E2F8;" d="M256,238.594c16.932,0,34.064,4.031,49.585,11.691l-9.071,18.14    c-12.699-6.45-26.606-9.675-40.514-9.675V238.594z"/>
		<path style="fill:#76E2F8;" d="M256,198.281c23.18,0,46.359,5.241,67.523,15.923l-8.869,18.141    c-18.342-9.071-38.498-13.706-58.654-13.706V198.281z"/>
		<path style="fill:#537983;" d="M144.469,379.687L144.469,379.687c-11.132,0-20.156-9.024-20.156-20.156V258.75    c0-11.132,9.024-20.156,20.156-20.156h0c11.132,0,20.156,9.024,20.156,20.156v100.781    C164.625,370.663,155.601,379.687,144.469,379.687z"/>
		<path style="fill:#3E5959;" d="M367.531,379.687L367.531,379.687c-11.132,0-20.156-9.024-20.156-20.156V258.75    c0-11.132,9.024-20.156,20.156-20.156h0c11.132,0,20.156,9.024,20.156,20.156v100.781    C387.687,370.663,378.663,379.687,367.531,379.687z"/>
	</g>
</g>















</svg>
