<?xml version="1.0" encoding="iso-8859-1"?>
<!-- Generator: Adobe Illustrator 19.0.0, SVG Export Plug-In . SVG Version: 6.00 Build 0)  -->
<svg xmlns="http://www.w3.org/2000/svg" xmlns:xlink="http://www.w3.org/1999/xlink" version="1.1" id="Layer_1" x="0px" y="0px" viewBox="0 0 512 512" style="enable-background:new 0 0 512 512;" xml:space="preserve" width="512" height="512">
<g>
	<circle style="fill:#FDBF00;" cx="256" cy="256" r="256"/>
	<path style="fill:#FF9100;" d="M512,256c0-9.124-0.486-18.134-1.417-27.011l-123.98-123.98L192.306,299.306l8.708,8.708l-93,93   l107.845,107.845C228.938,510.919,242.342,512,256,512C397.385,512,512,397.385,512,256z"/>
	<g>
		<rect x="125.344" y="105" style="fill:#BBDCFF;" width="261.313" height="287.328"/>
		<rect x="221.313" y="105" style="fill:#9ABADB;" width="165.344" height="287.328"/>
		<polygon style="fill:#E0F4FF;" points="299.938,122.344 299.938,383.656 142.688,383.656 142.688,122.344 212.641,122.344     221.313,139.687 229.984,122.344   "/>
		<polygon style="fill:#BBDCFF;" points="299.938,122.344 299.938,383.656 221.313,383.656 221.313,139.687 229.984,122.344   "/>
		<rect x="317.281" y="122.344" style="fill:#BBDCFF;" width="52.031" height="261.313"/>
		<g>
			<rect x="177.953" y="209.641" style="fill:#76E2F8;" width="17.344" height="17.344"/>
		</g>
		<g>
			<rect x="212.641" y="209.641" style="fill:#76E2F8;" width="17.344" height="17.344"/>
		</g>
		<g>
			<rect x="247.328" y="209.641" style="fill:#15CCEA;" width="17.344" height="17.344"/>
		</g>
		<g>
			<rect x="177.953" y="244.328" style="fill:#76E2F8;" width="17.344" height="17.344"/>
		</g>
		<g>
			<rect x="212.641" y="244.328" style="fill:#76E2F8;" width="17.344" height="17.344"/>
		</g>
		<g>
			<rect x="247.328" y="244.328" style="fill:#15CCEA;" width="17.344" height="17.344"/>
		</g>
		<g>
			<rect x="177.953" y="279.016" style="fill:#76E2F8;" width="17.344" height="17.344"/>
		</g>
		<g>
			<rect x="212.641" y="279.016" style="fill:#76E2F8;" width="17.344" height="17.344"/>
		</g>
		<g>
			<rect x="247.328" y="279.016" style="fill:#15CCEA;" width="17.344" height="17.344"/>
		</g>
		<g>
			<rect x="177.953" y="313.703" style="fill:#76E2F8;" width="17.344" height="17.344"/>
		</g>
		<g>
			<rect x="212.641" y="313.703" style="fill:#76E2F8;" width="17.344" height="17.344"/>
		</g>
		<g>
			<rect x="247.328" y="313.703" style="fill:#15CCEA;" width="17.344" height="17.344"/>
		</g>
		<g>
			<rect x="177.953" y="348.391" style="fill:#76E2F8;" width="17.344" height="17.344"/>
		</g>
		<g>
			<rect x="212.641" y="348.391" style="fill:#76E2F8;" width="17.344" height="17.344"/>
		</g>
		<g>
			<rect x="247.328" y="348.391" style="fill:#15CCEA;" width="17.344" height="17.344"/>
		</g>
		<rect x="334.625" y="226.984" style="fill:#3E5959;" width="17.344" height="52.031"/>
		<rect x="334.625" y="192.297" style="fill:#3E5959;" width="17.344" height="17.344"/>
		<rect x="221.313" y="209.641" style="fill:#15CCEA;" width="8.672" height="17.344"/>
		<rect x="221.313" y="244.328" style="fill:#15CCEA;" width="8.672" height="17.344"/>
		<rect x="221.313" y="279.016" style="fill:#15CCEA;" width="8.672" height="17.344"/>
		<rect x="221.313" y="313.703" style="fill:#15CCEA;" width="8.672" height="17.344"/>
		<rect x="221.313" y="348.391" style="fill:#15CCEA;" width="8.672" height="17.344"/>
		<rect x="108" y="383.656" style="fill:#537983;" width="296" height="17.344"/>
		<rect x="221.313" y="383.656" style="fill:#3E5959;" width="182.688" height="17.344"/>
		<rect x="212.641" y="122.344" style="fill:#3E5959;" width="17.344" height="34.688"/>
		<rect x="221.313" y="122.344" style="fill:#293939;" width="8.672" height="34.688"/>
		<polygon style="fill:#537983;" points="265.712,183.625 176.913,183.625 198.592,139.687 244.033,139.687   "/>
		<polygon style="fill:#3E5959;" points="265.712,183.625 221.313,183.625 221.313,139.687 244.033,139.687   "/>
		<rect x="160.031" y="174.953" style="fill:#3E5959;" width="121.984" height="17.344"/>
		<rect x="221.313" y="174.953" style="fill:#293939;" width="60.703" height="17.344"/>
	</g>
</g>















</svg>
