<?xml version="1.0" encoding="iso-8859-1"?>
<!-- Generator: Adobe Illustrator 19.0.0, SVG Export Plug-In . SVG Version: 6.00 Build 0)  -->
<svg xmlns="http://www.w3.org/2000/svg" xmlns:xlink="http://www.w3.org/1999/xlink" version="1.1" id="Layer_1" x="0px" y="0px" viewBox="0 0 512 512" style="enable-background:new 0 0 512 512;" xml:space="preserve" width="512" height="512">
<g>
	<circle style="fill:#FDBF00;" cx="256" cy="256" r="256"/>
	<path style="fill:#FF9100;" d="M256.083,511.999c117.213-0.037,216.007-78.85,246.329-186.371L272.788,96.005l-81.892,81.892   l70.125,70.125L126.563,382.479L256.083,511.999z"/>
	<g>
		<polygon style="fill:#3E5959;" points="202.477,325.687 132.164,325.687 132.164,289.945 176.109,272.367 220.055,289.945   "/>
		<polygon style="fill:#3E5959;" points="395.836,289.945 395.836,325.687 255.211,325.687 237.633,289.945 259.605,272.367     378.258,272.367   "/>
		<polygon style="fill:#293939;" points="395.836,289.945 395.836,325.687 264,325.687 264,272.367 378.258,272.367   "/>
		<path style="fill:#15CCEA;" d="M395.836,263.578v26.367H251.871l-19.687-48.34L264,230.531l79.102-27.598    C372.809,207.328,395.836,232.64,395.836,263.578z"/>
		<path style="fill:#15CCEA;" d="M395.836,263.578v26.367H264v-59.414l79.102-27.598    C372.809,207.328,395.836,232.64,395.836,263.578z"/>
		<path style="fill:#9BFCFF;" d="M343.102,202.933v7.91c0,12.656-4.219,23.73-12.305,31.64    c-8.085,8.086-19.687,11.601-31.288,12.305c-0.176,0-0.176,0-0.352,0c-17.754,0-28.828,7.207-35.156,14.765    c-3.164,3.34-5.273,6.68-6.68,9.493l-5.449,10.898H132.164v-45c0-18.633,5.977-30.411,11.074-40.781    c4.219-8.437,6.504-18.516,6.504-28.008V96h35.156L264,166.663l38.848,35.391h31.464    C337.3,202.055,340.29,202.581,343.102,202.933z"/>
		<path style="fill:#76E2F8;" d="M343.102,202.933v7.91c0,12.656-4.219,23.73-12.305,31.64    c-8.085,8.086-19.687,11.601-31.288,12.305c-0.176,0-0.176,0-0.352,0c-17.754,0-28.828,7.207-35.156,14.765V166.663l38.848,35.391    h31.464C337.3,202.055,340.29,202.581,343.102,202.933z"/>
		<rect x="299.156" y="343.266" style="fill:#293939;" width="35.156" height="17.578"/>
		<path style="fill:#76E2F8;" d="M302.848,202.055h-91.582c-14.59,0-26.367-12.364-26.367-26.953V96h87.891v17.578l-17.578,8.789    l17.578,8.789v17.578l-17.578,8.789l17.578,8.789L302.848,202.055z"/>
		<polygon style="fill:#15CCEA;" points="272.789,113.578 264,117.973 264,96 272.789,96   "/>
		<polygon style="fill:#15CCEA;" points="272.789,148.734 264,153.129 264,126.762 272.789,131.156   "/>
		<polygon style="fill:#15CCEA;" points="302.848,202.055 264,202.055 264,161.918 272.789,166.312   "/>
		<rect x="193.688" y="343.266" style="fill:#3E5959;" width="35.156" height="17.578"/>
		<path style="fill:#537983;" d="M264,308.109c-24.258,0-43.945,19.687-43.945,43.945C220.055,376.313,239.742,396,264,396    s43.945-19.687,43.945-43.945C307.945,327.797,288.258,308.109,264,308.109z"/>
		<path style="fill:#3E5959;" d="M307.945,352.055C307.945,376.313,288.258,396,264,396v-87.891    C288.258,308.109,307.945,327.797,307.945,352.055z"/>
		<path style="fill:#537983;" d="M158.531,396C134.301,396,114,376.285,114,352.055c0-24.23,20.301-43.945,44.531-43.945    s43.945,19.715,43.945,43.945C202.477,376.285,182.761,396,158.531,396z"/>
		<path style="fill:#E0F4FF;" d="M158.531,378.422c-14.54,0-26.367-11.827-26.367-26.367c0-14.54,11.827-26.367,26.367-26.367    s26.367,11.827,26.367,26.367C184.898,366.594,173.071,378.422,158.531,378.422z"/>
		<path style="fill:#E0F4FF;" d="M290.367,352.055c0,14.589-11.777,26.367-26.367,26.367c-14.59,0-26.367-11.778-26.367-26.367    c0-14.59,11.777-26.367,26.367-26.367C278.59,325.687,290.367,337.464,290.367,352.055z"/>
		<path style="fill:#3E5959;" d="M369.469,396c-24.23,0-43.945-19.715-43.945-43.945c0-24.23,19.715-43.945,43.945-43.945    c24.23,0,44.531,19.715,44.531,43.945C414,376.285,393.699,396,369.469,396z"/>
		<path style="fill:#BBDCFF;" d="M369.469,378.422c-14.54,0-26.367-11.827-26.367-26.367c0-14.54,11.827-26.367,26.367-26.367    s26.367,11.827,26.367,26.367C395.836,366.594,384.008,378.422,369.469,378.422z"/>
		<path style="fill:#BBDCFF;" d="M290.367,352.055c0,14.589-11.777,26.367-26.367,26.367v-52.734    C278.59,325.687,290.367,337.464,290.367,352.055z"/>
		
			<rect x="149.743" y="343.266" transform="matrix(0.7071 0.7071 -0.7071 0.7071 295.3729 -8.9841)" style="fill:#537983;" width="17.576" height="17.576"/>
		
			<rect x="255.175" y="343.23" transform="matrix(0.7071 -0.7071 0.7071 0.7071 -171.6137 289.7719)" style="fill:#537983;" width="17.65" height="17.65"/>
		
			<rect x="360.681" y="343.266" transform="matrix(0.7071 0.7071 -0.7071 0.7071 357.1551 -158.1394)" style="fill:#3E5959;" width="17.576" height="17.576"/>
		<rect x="220.055" y="113.578" style="fill:#E0F4FF;" width="52.734" height="17.578"/>
		<rect x="220.055" y="148.734" style="fill:#E0F4FF;" width="52.734" height="17.578"/>
		<polygon style="fill:#3E5959;" points="276.481,352.055 264,364.534 264,339.574   "/>
		<rect x="264" y="113.578" style="fill:#BBDCFF;" width="8.789" height="17.578"/>
		<rect x="264" y="148.734" style="fill:#BBDCFF;" width="8.789" height="17.578"/>
	</g>
</g>















</svg>
