<?xml version="1.0" encoding="iso-8859-1"?>
<!-- Generator: Adobe Illustrator 19.0.0, SVG Export Plug-In . SVG Version: 6.00 Build 0)  -->
<svg xmlns="http://www.w3.org/2000/svg" xmlns:xlink="http://www.w3.org/1999/xlink" version="1.1" id="Layer_1" x="0px" y="0px" viewBox="0 0 512 512" style="enable-background:new 0 0 512 512;" xml:space="preserve" width="512" height="512">
<g>
	<circle style="fill:#FDBF00;" cx="256" cy="256" r="256"/>
	<path style="fill:#FF9100;" d="M297.78,508.587c88.777-14.575,162.168-74.809,195.271-155.801L365.068,224.803l-10.312,10.312   l-73.601-73.601L203,284l-66.333,29.667l-6.614,27.194L297.78,508.587z"/>
	<g>
		<path style="fill:#E0F4FF;" d="M380.257,260.548v59.657h-19.886v-59.657c0-16.505-13.323-29.828-29.828-29.828    c-16.505,0-29.828,13.323-29.828,29.828v89.485c0,32.811-26.845,59.657-59.657,59.657c-20.681,0-38.976-10.739-49.714-26.647    c-6.164-9.545-9.943-20.88-9.943-33.01v-29.828h19.886v29.828c0,21.874,17.898,39.771,39.771,39.771s39.771-17.898,39.771-39.771    v-89.485c0-27.442,22.272-49.714,49.714-49.714S380.257,233.106,380.257,260.548z"/>
		<path style="fill:#BBDCFF;" d="M380.257,260.548v59.657h-19.886v-59.657c0-16.505-13.323-29.828-29.828-29.828    c-16.505,0-29.828,13.323-29.828,29.828v89.485c0,32.811-26.845,59.657-59.657,59.657c-20.681,0-38.976-10.739-49.714-26.647    v-62.838h9.943v29.828c0,21.874,17.898,39.771,39.771,39.771s39.771-17.898,39.771-39.771v-89.485    c0-27.442,22.272-49.714,49.714-49.714S380.257,233.106,380.257,260.548z"/>
		<polygon style="fill:#76E2F8;" points="293.755,190.949 201.286,323.187 191.343,297.535 181.4,323.187 88.269,190.949     121.743,181.006 91.252,171.063 181.4,80.252 191.343,110.081 201.286,80.252 290.771,171.063 260.943,181.006   "/>
		<polygon style="fill:#15CCEA;" points="293.755,190.949 201.286,323.187 191.343,297.535 191.343,110.081 201.286,80.252     290.771,171.063 260.943,181.006   "/>
		<g>
			<polygon style="fill:#9BFCFF;" points="300.714,181.006 293.755,190.949 201.286,190.949 201.286,323.187 191.343,331.341      181.4,323.187 181.4,190.949 88.269,190.949 81.309,181.006 91.252,171.063 181.4,171.063 181.4,80.252 191.343,70.309      201.286,80.252 201.286,171.063 290.771,171.063    "/>
			<polygon style="fill:#76E2F8;" points="300.714,181.006 293.755,190.949 201.286,190.949 201.286,323.187 191.343,331.341      191.343,70.309 201.286,80.252 201.286,171.063 290.771,171.063    "/>
		</g>
		<polygon style="fill:#BBDCFF;" points="340.485,320.205 340.485,350.034 360.371,359.977 340.485,369.919 340.485,369.919     340.485,399.748 400.805,399.748 400.805,369.919 380.257,359.977 400.805,350.034 400.805,320.205   "/>
		<rect x="340.485" y="350.034" style="fill:#9ABADB;" width="60.32" height="19.886"/>
		<rect x="320.6" y="310.262" style="fill:#3E5959;" width="100.091" height="19.886"/>
		<rect x="320.6" y="389.805" style="fill:#3E5959;" width="100.091" height="19.886"/>
		<path style="fill:#E0F4FF;" d="M231.114,290.377c-10.54,0-28.635,10.539-39.771,17.896c-11.136-7.358-29.231-17.896-39.771-17.896    c-16.505,0-29.828,13.323-29.828,29.828c0,16.504,13.323,29.828,29.828,29.828c10.54,0,28.635-10.54,39.771-17.898    c11.136,7.358,29.231,17.898,39.771,17.898c16.505,0,29.828-13.324,29.828-29.828C260.943,303.7,247.62,290.377,231.114,290.377z     M151.572,330.148c-5.569,0-9.943-4.375-9.943-9.943c0-5.569,4.374-9.943,9.943-9.943c2.983,0,11.733,4.175,21.278,9.943    C163.305,325.972,154.555,330.148,151.572,330.148z M231.114,330.148c-2.983,0-11.733-4.176-21.278-9.943    c9.545-5.768,18.294-9.943,21.278-9.943c5.569,0,9.943,4.374,9.943,9.943C241.057,325.773,236.683,330.148,231.114,330.148z"/>
		<path style="fill:#BBDCFF;" d="M231.114,290.377c-10.54,0-28.635,10.539-39.771,17.896v23.863    c11.136,7.358,29.231,17.898,39.771,17.898c16.505,0,29.828-13.324,29.828-29.828C260.943,303.7,247.62,290.377,231.114,290.377z     M231.114,330.148c-2.983,0-11.733-4.176-21.278-9.943c9.545-5.768,18.294-9.943,21.278-9.943c5.569,0,9.943,4.374,9.943,9.943    C241.057,325.773,236.683,330.148,231.114,330.148z"/>
	</g>
</g>















</svg>
