<?xml version="1.0" encoding="iso-8859-1"?>
<!-- Generator: Adobe Illustrator 19.0.0, SVG Export Plug-In . SVG Version: 6.00 Build 0)  -->
<svg xmlns="http://www.w3.org/2000/svg" xmlns:xlink="http://www.w3.org/1999/xlink" version="1.1" id="Layer_1" x="0px" y="0px" viewBox="0 0 512 512" style="enable-background:new 0 0 512 512;" xml:space="preserve" width="512" height="512">
<g>
	<circle style="fill:#FDBF00;" cx="256" cy="256" r="256"/>
	<path style="fill:#FF9100;" d="M512,256c0-9.017-0.472-17.923-1.382-26.699L396.682,115.365L112.353,399.694l110.12,110.12   C233.446,511.25,244.635,512,256,512C397.385,512,512,397.385,512,256z"/>
	<g>
		
			<rect x="103.553" y="369.242" transform="matrix(0.7071 -0.7071 0.7071 0.7071 -228.53 205.2626)" style="fill:#9BFCFF;" width="59.911" height="18.498"/>
		
			<rect x="106.823" y="377.137" transform="matrix(0.7071 -0.7071 0.7071 0.7071 -229.8845 208.5326)" style="fill:#76E2F8;" width="59.911" height="9.249"/>
		<polygon style="fill:#76E2F8;" points="324.731,252.669 207.011,370.389 180.851,370.389 141.611,331.149 141.611,304.989     259.331,187.269   "/>
		<polygon style="fill:#15CCEA;" points="292.031,219.969 324.731,252.669 207.011,370.389 180.851,370.389 161.231,350.769   "/>
		
			<rect x="257.744" y="161.766" transform="matrix(0.7071 -0.7071 0.7071 0.7071 -76.5478 268.2155)" style="fill:#537983;" width="55.494" height="129.486"/>
		
			<rect x="280.634" y="217.028" transform="matrix(0.7071 -0.7071 0.7071 0.7071 -86.0292 291.1055)" style="fill:#3E5959;" width="55.494" height="64.743"/>
		<path style="fill:#E0F4FF;" d="M396.671,115.329C380.452,99.11,359.132,91,337.811,91s-42.641,8.109-58.86,24.329    c-8.502,8.502-13.309,16.317-16.857,24.64c-3.548,8.322-5.837,17.151-9.303,27.681l45.78,45.78l45.78,45.78    c10.529-3.466,19.358-5.755,27.681-9.303c8.322-3.548,16.138-8.355,24.64-16.857C412.891,216.83,421,195.509,421,174.189    C421,152.868,412.89,131.548,396.671,115.329z"/>
		<path style="fill:#BBDCFF;" d="M396.671,233.049c-17.004,17.004-31.261,19.227-52.32,26.16l-45.78-45.78l98.1-98.1    C429.109,147.767,429.11,200.61,396.671,233.049z"/>
		
			<rect x="328.562" y="72.45" transform="matrix(0.7071 -0.7071 0.7071 0.7071 -24.2277 289.8872)" style="fill:#BBDCFF;" width="18.498" height="203.477"/>
		
			<rect x="192.344" y="282.66" transform="matrix(0.7071 -0.7071 0.7071 0.7071 -141.9479 241.1259)" style="fill:#537983;" width="55.494" height="18.498"/>
		
			<rect x="364.532" y="159.29" transform="matrix(0.7071 -0.7071 0.7071 0.7071 -39.127 325.8572)" style="fill:#9ABADB;" width="18.498" height="101.739"/>
		
			<rect x="218.736" y="267.432" transform="matrix(0.7071 0.7071 -0.7071 0.7071 274.1441 -71.4839)" style="fill:#3E5959;" width="9.249" height="55.494"/>
		
			<rect x="142.733" y="304.525" transform="matrix(0.7071 -0.7071 0.7071 0.7071 -200.808 216.7452)" style="fill:#537983;" width="36.996" height="92.49"/>
		
			<rect x="154.458" y="348.621" transform="matrix(-0.7071 -0.7071 0.7071 -0.7071 43.5565 752.2805)" style="fill:#3E5959;" width="46.245" height="36.996"/>
	</g>
</g>















</svg>
