<?xml version="1.0" encoding="iso-8859-1"?>
<!-- Generator: Adobe Illustrator 19.0.0, SVG Export Plug-In . SVG Version: 6.00 Build 0)  -->
<svg xmlns="http://www.w3.org/2000/svg" xmlns:xlink="http://www.w3.org/1999/xlink" version="1.1" id="Layer_1" x="0px" y="0px" viewBox="0 0 512 512" style="enable-background:new 0 0 512 512;" xml:space="preserve" width="512" height="512">
<g>
	<circle style="fill:#FF641A;" cx="256" cy="256" r="256"/>
	<path style="fill:#F03800;" d="M315.414,109.157L247,93.5L193,116l-6.669,105.792l-28.823-28.823l-43.841,43.841l28.823,28.823   l-9.865,9.865L177,321.5l3.061,85.598l103.43,103.43c113.295-12.098,204.492-98.092,224.441-208.852L315.414,109.157z"/>
	<g>
		<rect x="199.047" y="294.461" style="fill:#BBDCFF;" width="28.477" height="18.984"/>
		<rect x="199.047" y="332.43" style="fill:#BBDCFF;" width="28.477" height="18.984"/>
		<polygon style="fill:#E0F4FF;" points="208.539,265.352 208.539,364.386 180.063,407.101 151.586,364.386 151.586,265.352   "/>
		<polygon style="fill:#BBDCFF;" points="208.539,265.352 208.539,364.386 180.063,407.101 180.063,265.352   "/>
		<rect x="132.602" y="227.383" style="fill:#3E5959;" width="94.922" height="48.094"/>
		<rect x="180.063" y="227.383" style="fill:#293939;" width="47.461" height="48.094"/>
		<path style="fill:#537983;" d="M218.031,122.969h-75.937c-15.757,0-28.477,12.719-28.477,28.477v85.43h132.891v-85.43    C246.508,135.688,233.789,122.969,218.031,122.969z"/>
		<path style="fill:#3E5959;" d="M246.508,151.445v85.43h-66.445V122.969h37.969C233.789,122.969,246.508,135.688,246.508,151.445z"/>
		<path style="fill:#E0F4FF;" d="M341.43,170.43v37.969h-18.984V170.43c0-36.64-29.806-66.445-66.445-66.445    s-66.445,29.806-66.445,66.445H170.57c0-14.048,3.417-27.338,9.492-39.108C194.301,103.794,222.967,85,256,85    C303.081,85,341.43,123.348,341.43,170.43z"/>
		<path style="fill:#BBDCFF;" d="M341.43,170.43v37.969h-18.984V170.43c0-36.64-29.806-66.445-66.445-66.445    s-66.445,29.806-66.445,66.445h-9.492v-39.108C194.301,103.794,222.967,85,256,85C303.081,85,341.43,123.348,341.43,170.43z"/>
		<rect x="151.586" y="160.937" style="fill:#3E5959;" width="56.953" height="18.984"/>
		<rect x="180.063" y="160.937" style="fill:#293939;" width="28.477" height="18.984"/>
		<path style="fill:#537983;" d="M350.922,198.906h-37.969c-26.199,0-47.461,21.262-47.461,47.461v115.172    c0,26.199,21.262,47.461,47.461,47.461h37.969c26.199,0,47.461-21.262,47.461-47.461V246.367    C398.383,220.169,377.12,198.906,350.922,198.906z"/>
		<path style="fill:#3E5959;" d="M398.383,246.367v115.172c0,26.199-21.262,47.461-47.461,47.461h-18.984V198.906h18.984    C377.12,198.906,398.383,220.169,398.383,246.367z"/>
		<path style="fill:#3E5959;" d="M303.461,236.875v134.156h56.953V236.875H303.461z"/>
		<rect x="331.937" y="236.875" style="fill:#293939;" width="28.477" height="134.156"/>
		<rect x="322.445" y="255.859" style="fill:#9BFCFF;" width="18.984" height="38.602"/>
		<rect x="322.445" y="313.445" style="fill:#9BFCFF;" width="18.984" height="37.969"/>
		<rect x="331.937" y="255.859" style="fill:#76E2F8;" width="9.492" height="38.602"/>
		<rect x="331.937" y="313.445" style="fill:#76E2F8;" width="9.492" height="37.969"/>
	</g>
</g>















</svg>
