<?xml version="1.0" encoding="iso-8859-1"?>
<!-- Generator: Adobe Illustrator 19.0.0, SVG Export Plug-In . SVG Version: 6.00 Build 0)  -->
<svg xmlns="http://www.w3.org/2000/svg" xmlns:xlink="http://www.w3.org/1999/xlink" version="1.1" id="Layer_1" x="0px" y="0px" viewBox="0 0 512 512" style="enable-background:new 0 0 512 512;" xml:space="preserve" width="512" height="512">
<g>
	<circle style="fill:#537983;" cx="256" cy="256" r="256"/>
	<path style="fill:#3E5959;" d="M511.628,269.778L358.551,116.701L244.5,96.5l-102.5,67L90.214,288.544l78.391,78.391   l-38.891,38.891l105.315,105.315C241.946,511.701,248.938,512,256,512C392.762,512,504.469,404.756,511.628,269.778z"/>
	<g>
		<path style="fill:#FDBF00;" d="M401.738,220.568v29.148h-38.863v-29.148c0-58.879-47.996-107.522-106.874-107.522    S149.126,161.69,149.126,220.568v29.148h-38.863v-29.148c0-80.447,65.29-146.385,145.738-146.385S401.738,140.121,401.738,220.568    z"/>
		<path style="fill:#FF9100;" d="M401.738,220.568v29.148h-38.863v-29.148c0-58.879-47.996-107.522-106.874-107.522V74.183    C336.447,74.183,401.738,140.121,401.738,220.568z"/>
		<polygon style="fill:#FDBF00;" points="394.743,317.727 373.367,331.911 392.022,337.158 389.301,356.59 368.509,366.306     386.387,376.022 382.306,405.817 333.727,405.817 324.011,385.738 314.295,405.817 265.716,405.817 256,385.738 246.284,405.817     197.705,405.817 187.989,385.738 178.273,405.817 129.694,405.817 125.613,376.022 143.684,366.306 122.699,356.59     119.978,337.158 138.049,327.443 117.257,317.727 110.262,269.147 401.738,269.147   "/>
		<polygon style="fill:#FF9100;" points="401.738,269.147 394.743,317.727 373.367,331.911 392.022,337.158 389.301,356.59     368.509,366.306 386.387,376.022 382.306,405.817 333.727,405.817 324.011,385.738 314.295,405.817 265.716,405.817 256,385.738     256,269.147   "/>
		<path style="fill:#FFDA2D;" d="M392.022,337.158l2.721-19.432h-61.016v-48.579h-19.432v48.579h-48.579v-48.579h-19.432v48.579    h-48.579v-48.579h-19.432v48.579h-61.016l2.721,19.432h58.295v19.432h-55.574l2.914,19.432h52.66v29.795h19.432v-29.795h48.579    v29.795h19.432v-29.795h48.579v29.795h19.432v-29.795h52.66l2.914-19.432h-55.574v-19.432H392.022z M246.284,356.59h-48.579    v-19.432h48.579V356.59z M314.295,356.59h-48.579v-19.432h48.579V356.59z"/>
		<path style="fill:#FDBF00;" d="M392.022,337.158l2.721-19.432h-61.016v-48.579h-19.432v48.579h-48.579v-48.579H256v136.67h9.716    v-29.795h48.579v29.795h19.432v-29.795h52.66l2.914-19.432h-55.574v-19.432H392.022z M314.295,356.59h-48.579v-19.432h48.579    V356.59z"/>
		<polygon style="fill:#FFDA2D;" points="421.817,230.284 421.817,288.579 90.183,288.579 90.183,230.284 168.557,230.284     213.445,249.716 362.874,249.716 401.738,230.284   "/>
		<polygon style="fill:#FDBF00;" points="421.817,230.284 421.817,288.579 256,288.579 256,249.716 362.874,249.716     401.738,230.284   "/>
		<polygon style="fill:#FF641A;" points="401.738,230.284 324.011,346.874 256,295.963 246.284,288.579 168.557,230.284   "/>
		<polygon style="fill:#F03800;" points="401.738,230.284 324.011,346.874 256,295.963 256,230.284   "/>
	</g>
</g>















</svg>
