<?xml version="1.0" encoding="iso-8859-1"?>
<!-- Generator: Adobe Illustrator 19.0.0, SVG Export Plug-In . SVG Version: 6.00 Build 0)  -->
<svg xmlns="http://www.w3.org/2000/svg" xmlns:xlink="http://www.w3.org/1999/xlink" version="1.1" id="Layer_1" x="0px" y="0px" viewBox="0 0 512 512" style="enable-background:new 0 0 512 512;" xml:space="preserve" width="512" height="512">
<g>
	<circle style="fill:#FF641A;" cx="256" cy="256" r="256"/>
	<path style="fill:#F03800;" d="M511.946,251.764L382.754,122.571l-58.386,58.386l-7-7l-201.49,201.49l28.354,28.354l-9.688,9.688   l97.375,97.375C239.848,511.604,247.877,512,256,512c141.385,0,256-114.615,256-256C512,254.584,511.969,253.175,511.946,251.764z"/>
	<g>
		<path style="fill:#FF9100;" d="M218.617,94.5c-57.644,0-102.803,24.633-102.803,56.074c0,11.938,6.443,23.127,18.691,32.564    c0,30.632,0,91.482,0,136.282h168.223c0-33.829,0-102.582,0-136.282c12.248-9.437,18.691-20.626,18.691-32.564    C321.42,119.133,276.261,94.5,218.617,94.5z"/>
		<path style="fill:#FFBD86;" d="M288.171,170.598l-4.134,2.775v126.733h-130.84V173.373l-4.134-2.775    c-6.644-4.463-14.557-11.554-14.557-20.024c0-17.678,34.544-37.383,84.111-37.383s84.111,19.704,84.111,37.383    C302.729,159.044,294.816,166.135,288.171,170.598z"/>
		<path style="fill:#FDBF00;" d="M293.383,94.5c-13.271,0-25.981,1.309-37.383,3.739c-38.691,8.037-65.42,28.223-65.42,52.336    c0,11.963,6.356,23.177,18.691,32.523V319.42h168.223V183.097c12.336-9.346,18.691-20.56,18.691-32.523    C396.186,119.173,350.953,94.5,293.383,94.5z"/>
		<path style="fill:#FF9100;" d="M396.186,150.574c0,11.963-6.356,23.177-18.691,32.523V319.42H256V98.239    c11.401-2.43,24.112-3.739,37.383-3.739C350.953,94.5,396.186,119.173,396.186,150.574z"/>
		<path style="fill:#FED2A4;" d="M293.383,113.191c-13.644,0-26.354,1.494-37.383,4.112c-28.784,6.729-46.729,20.374-46.729,33.271    c0,8.411,7.85,15.513,14.58,20l4.112,2.803v126.728h130.84V173.377l4.112-2.803c6.73-4.487,14.58-11.589,14.58-20    C377.494,132.817,342.915,113.191,293.383,113.191z"/>
		<path style="fill:#FFBD86;" d="M377.494,150.574c0,8.411-7.85,15.513-14.58,20l-4.112,2.803v126.728H256V117.303    c11.028-2.617,23.738-4.112,37.383-4.112C342.915,113.191,377.494,132.817,377.494,150.574z"/>
		<polygon style="fill:#3E5959;" points="322.406,370.328 343.68,413.5 377.494,413.5 377.494,366.148   "/>
		<polygon style="fill:#537983;" points="134.506,366.148 134.506,413.5 168.32,413.5 189.594,370.328   "/>
		<path style="fill:#E0F4FF;" d="M389.457,225.713C345.719,213.377,300.86,207.021,256,207.021s-89.718,6.356-133.457,18.691    l-6.729,1.87v147.911h280.371V227.583L389.457,225.713z"/>
		<path style="fill:#BBDCFF;" d="M396.186,227.583v147.911H256V207.021c44.86,0,89.719,6.356,133.457,18.691L396.186,227.583z"/>
		<rect x="153.197" y="262.723" style="fill:#FF641A;" width="18.691" height="18.691"/>
		<rect x="246.654" y="150.574" style="fill:#FFBD86;" width="18.691" height="18.691"/>
		<rect x="190.58" y="262.723" style="fill:#FF641A;" width="18.691" height="18.691"/>
		<rect x="321.42" y="150.574" style="fill:#F6A96C;" width="18.691" height="18.691"/>
		<rect x="284.037" y="131.883" style="fill:#F6A96C;" width="18.691" height="18.691"/>
		<rect x="246.654" y="262.723" style="fill:#BBDCFF;" width="112.148" height="18.691"/>
		<rect x="256" y="262.723" style="fill:#9ABADB;" width="102.803" height="18.691"/>
		<rect x="256" y="150.574" style="fill:#F6A96C;" width="9.346" height="18.691"/>
	</g>
</g>















</svg>
