<?xml version="1.0" encoding="iso-8859-1"?>
<!-- Generator: Adobe Illustrator 19.0.0, SVG Export Plug-In . SVG Version: 6.00 Build 0)  -->
<svg xmlns="http://www.w3.org/2000/svg" xmlns:xlink="http://www.w3.org/1999/xlink" version="1.1" id="Layer_1" x="0px" y="0px" viewBox="0 0 512 512" style="enable-background:new 0 0 512 512;" xml:space="preserve" width="512" height="512">
<g>
	<circle style="fill:#FF641A;" cx="256" cy="256" r="256"/>
	<path style="fill:#F03800;" d="M378.355,258.738l-152.5-152.5l-79.545,79.546l8.827,8.826l-23.416,23.416l16.42,16.42l-19.29,19.29   l17.27,17.27l-16.859,16.859l50.427,50.427l-45.552,45.552l128.078,128.078c117.275-2.794,215.006-84.456,242.225-193.982   l-92.642-92.642L378.355,258.738z"/>
	<g>
		<path style="fill:#76E2F8;" d="M157.903,106.213v51.117h67.968v-51.117H157.903z"/>
		<rect x="192.168" y="106.213" style="fill:#15CCEA;" width="33.703" height="51.117"/>
		<path style="fill:#9BFCFF;" d="M259.574,199.852c0,14.155-11.29,25.446-25.277,25.446l-42.129,16.852l-42.691-16.852    c-13.987,0-25.277-11.291-25.277-25.277c0-4.888,0-11.459,5.561-18.369l28.142-41.174h67.968l28.142,41.174    C259.574,188.561,259.574,195.301,259.574,199.852z"/>
		<path style="fill:#76E2F8;" d="M234.297,225.298l-42.129,16.852V140.478h33.703l28.142,41.174c5.561,6.91,5.561,13.65,5.561,18.2    C259.574,214.007,248.284,225.298,234.297,225.298z"/>
		<path style="fill:#76E2F8;" d="M259.574,275.853c0,9.268-7.583,16.852-16.852,16.852l-50.555,16.852l-51.117-16.852    c-9.268,0-16.852-7.583-16.852-16.852s7.583-16.852,16.852-16.852c-9.268,0-16.852-7.583-16.852-16.852    s7.583-16.852,16.852-16.852h101.672c9.268,0,16.852,7.583,16.852,16.852s-7.583,16.852-16.852,16.852    C251.991,259.001,259.574,266.585,259.574,275.853z"/>
		<path style="fill:#15CCEA;" d="M259.574,275.853c0,9.268-7.583,16.852-16.852,16.852l-50.555,16.852v-84.258h50.555    c9.268,0,16.852,7.583,16.852,16.852s-7.583,16.852-16.852,16.852C251.991,259.001,259.574,266.585,259.574,275.853z"/>
		<path style="fill:#9BFCFF;" d="M259.574,309.556v49.038c0,13.145-6.909,25.952-18.705,31.681    c-10.954,5.393-22.582,4.382-32.019-1.011c-4.887,2.865-10.617,4.55-16.683,4.55c-6.066,0-12.358-1.686-17.245-4.55    c-9.437,5.393-21.065,6.404-32.019,1.011c-11.796-5.729-18.705-18.536-18.705-31.681v-49.038c0-9.268,7.583-16.852,16.852-16.852    h101.672C251.991,292.704,259.574,300.288,259.574,309.556z"/>
		<path style="fill:#76E2F8;" d="M259.574,309.556v49.038c0,13.145-6.909,25.952-18.705,31.681    c-10.954,5.393-22.582,4.382-32.019-1.011c-4.887,2.865-10.617,4.55-16.683,4.55v-101.11h50.555    C251.991,292.704,259.574,300.288,259.574,309.556z"/>
		<polygon style="fill:#E0F4FF;" points="411.801,225.298 411.801,275.853 394.556,309.556 293.277,309.556 276.426,275.853     276.426,225.298   "/>
		<polygon style="fill:#BBDCFF;" points="411.801,225.298 411.801,275.853 394.556,309.556 343.832,309.556 343.832,225.298   "/>
		<path style="fill:#9BFCFF;" d="M411.801,275.853v8.426l-18.762,109.536h-17.02l-3.538-8.426l-3.371,8.426h-16.852l-8.426-12.47    l-8.426,12.47h-16.852l-3.371-8.426l-3.538,8.426h-17.02l-18.2-108.188v-9.773h16.852c13.65,0,25.784,6.74,33.535,16.852    c2.865-4.888,6.404-9.774,11.123-14.325l5.898-6.066l5.898,6.066c4.719,4.55,8.258,9.437,11.123,14.325    c7.751-10.112,19.885-16.852,33.535-16.852H411.801z"/>
		<path style="fill:#76E2F8;" d="M411.801,275.853v8.426l-18.762,109.536h-17.02l-3.538-8.426l-3.371,8.426h-16.852l-8.426-12.47    V272.314l5.898,6.066c4.719,4.55,8.258,9.437,11.123,14.325c7.751-10.112,19.885-16.852,33.535-16.852H411.801z"/>
		<path style="fill:#76E2F8;" d="M294.715,292.85l16.879,100.965h6.96v-75.832C318.555,304.536,307.973,293.612,294.715,292.85z"/>
		<path style="fill:#76E2F8;" d="M352.258,322.026v71.788h-16.852v-71.788c0-9.268,2.696-17.189,8.426-24.94    C349.562,304.837,352.258,312.758,352.258,322.026z"/>
		<path style="fill:#15CCEA;" d="M369.11,317.982v75.832h6.908l16.825-100.954C379.635,293.676,369.11,304.572,369.11,317.982z"/>
		<path style="fill:#15CCEA;" d="M352.258,322.026v71.788h-8.426v-96.728C349.562,304.837,352.258,312.758,352.258,322.026z"/>
	</g>
</g>















</svg>
