<?xml version="1.0" encoding="iso-8859-1"?>
<!-- Generator: Adobe Illustrator 19.0.0, SVG Export Plug-In . SVG Version: 6.00 Build 0)  -->
<svg xmlns="http://www.w3.org/2000/svg" xmlns:xlink="http://www.w3.org/1999/xlink" version="1.1" id="Layer_1" x="0px" y="0px" viewBox="0 0 512 512" style="enable-background:new 0 0 512 512;" xml:space="preserve" width="512" height="512">
<g>
	<circle style="fill:#FDBF00;" cx="256" cy="256" r="256"/>
	<path style="fill:#FF9100;" d="M510.909,232.42L378.611,100.123L348.033,130.7l13.3,58.966l-80.755-80.868l-12.531,12.531   l96.203,96.17l11.655,32.854L259.266,133.715l-12.531,12.531l18.781,18.781l-0.906,0.906l97.858,97.858l-14.828,14.828   L237.047,168.027l-22.745,22.745l-80.13-80.13l-12.531,12.531l80.13,80.13l-11.469,11.469l-62.755-62.755l-12.531,12.531   l62.755,62.755l-11.567,11.567l-16.521-16.521l-38.542,38.542l32.067,32.067l-18.375,31.208l-6.556,40.254l30.114,30.114   l-22.678-5.322l-14.585,14.585l105.126,105.126C229.207,510.944,242.48,512,256,512c141.385,0,256-114.615,256-256   C512,248.048,511.618,240.187,510.909,232.42z"/>
	<g>
		<g>
			<path style="fill:#FED2A4;" d="M414.795,332.028v8.897c0,19.039-2.846,38.493-8.54,56.642l-45.433-3.558l-74.554-5.872     c13.523-11.744,21.174-29.418,21.174-47.212v-8.897l26.69-17.793h62.277L414.795,332.028z"/>
			<path style="fill:#FFBD86;" d="M414.795,332.028v8.897c0,19.039-2.846,38.493-8.54,56.642l-45.433-3.558v-79.774h35.587     L414.795,332.028z"/>
			<g>
				<polygon style="fill:#76E2F8;" points="271.855,243.062 254.062,394.898 146.708,394.898 143.684,369.216 137.455,360.497       141.549,352.787 137.812,318.505 131.406,308.897 134.787,293.594 128.915,243.062     "/>
			</g>
			<polygon style="fill:#15CCEA;" points="271.855,243.062 254.062,394.898 200.682,394.898 200.682,243.062    "/>
			<path style="fill:#E0F4FF;" d="M286.089,231.139H114.681c5.694-16.013,18.148-29.595,33.63-36.535     c5.693-23.844,27.638-41.103,52.371-41.103s46.085,17.259,51.778,41.103C267.941,201.544,280.395,215.126,286.089,231.139z"/>
			<g>
				<g>
					
						<rect x="114.685" y="103.685" transform="matrix(0.7071 0.7071 -0.7071 0.7071 115.8023 -54.4106)" style="fill:#E0F4FF;" width="17.791" height="17.791"/>
				</g>
			</g>
			<g>
				
					<rect x="137.813" y="126.813" transform="matrix(0.7071 0.7071 -0.7071 0.7071 138.9302 -63.9904)" style="fill:#E0F4FF;" width="17.791" height="17.791"/>
			</g>
			<g>
				<g>
					
						<rect x="114.685" y="103.685" transform="matrix(0.7071 0.7071 -0.7071 0.7071 115.8023 -54.4106)" style="fill:#E0F4FF;" width="17.791" height="17.791"/>
				</g>
			</g>
			<g>
				
					<rect x="114.685" y="151.722" transform="matrix(0.7071 0.7071 -0.7071 0.7071 149.7695 -40.3409)" style="fill:#E0F4FF;" width="17.791" height="17.791"/>
			</g>
			<g>
				
					<rect x="262.959" y="103.685" transform="matrix(0.7071 0.7071 -0.7071 0.7071 159.2309 -159.2564)" style="fill:#FDBF00;" width="17.791" height="17.791"/>
			</g>
			<g>
				
					<rect x="239.831" y="126.813" transform="matrix(0.7071 0.7071 -0.7071 0.7071 168.8108 -136.1286)" style="fill:#BBDCFF;" width="17.791" height="17.791"/>
			</g>
			<g>
				
					<rect x="262.959" y="103.685" transform="matrix(0.7071 0.7071 -0.7071 0.7071 159.2309 -159.2564)" style="fill:#BBDCFF;" width="17.791" height="17.791"/>
			</g>
			<g>
				
					<rect x="262.959" y="151.722" transform="matrix(0.7071 0.7071 -0.7071 0.7071 193.198 -145.1868)" style="fill:#BBDCFF;" width="17.791" height="17.791"/>
			</g>
			<polygon style="fill:#76E2F8;" points="378.615,100.122 378.615,260.855 360.822,278.648 343.028,260.855 343.028,100.122    "/>
			<path style="fill:#FFBD86;" d="M329.387,305.338v35.587c0,18.115-5.004,36.397-14.474,51.766l15.152,9.331     c11.199-18.167,17.116-39.69,17.116-61.097v-35.587H329.387z"/>
			<path style="fill:#F6A96C;" d="M373.87,305.338v35.587c0,17.289-3.275,34.712-9.731,50.628l16.49,6.69     c7.324-18.045,11.034-37.726,11.034-57.318v-35.587H373.87z"/>
			<path style="fill:#537983;" d="M197.528,301.046c-4.752,8.627-11.625,17.533-19.852,25.769     c-20.585,20.6-41.564,30.25-46.684,25.17c-3.095-3.102-5.239-16.38,6.797-33.503l-2.92-24.82     c-24.381,27.464-29.709,57.643-16.457,70.903c18.725,18.725,53.077-6.401,71.845-25.17c9.401-9.401,17.298-19.687,22.859-29.766     L197.528,301.046z"/>
			<path style="fill:#3E5959;" d="M200.682,327.851c4.871-5.99,9.079-12.143,12.433-18.221l-12.433-6.847V327.851z"/>
			<path style="fill:#BBDCFF;" d="M286.089,231.139h-85.408v-77.638c24.733,0,46.085,17.259,51.778,41.103     C267.941,201.544,280.395,215.126,286.089,231.139z"/>
			<rect x="111.122" y="225.268" style="fill:#9BFCFF;" width="178.527" height="35.587"/>
			<rect x="200.682" y="225.268" style="fill:#76E2F8;" width="88.967" height="35.587"/>
			<path style="fill:#537983;" d="M209.578,260.855c-3.203,0-6.05,0.533-8.897,1.601c-10.32,3.559-17.793,13.523-17.793,25.089     c0,11.565,7.473,21.529,17.793,25.088c2.846,1.068,5.694,1.602,8.897,1.602c14.769,0,26.69-11.922,26.69-26.69     C236.268,272.776,224.347,260.855,209.578,260.855z"/>
			<path style="fill:#3E5959;" d="M209.578,314.235c-3.203,0-6.05-0.534-8.897-1.602v-50.177c2.846-1.068,5.694-1.601,8.897-1.601     c14.769,0,26.69,11.921,26.69,26.69C236.268,302.313,224.347,314.235,209.578,314.235z"/>
			<polygon style="fill:#15CCEA;" points="378.615,260.855 360.822,278.648 360.822,100.122 378.615,100.122    "/>
			<path style="fill:#537983;" d="M414.795,296.442v35.587H307.442v-35.587h8.897c14.769,0,26.69-11.922,26.69-26.69v-8.897h35.587     v8.897c0,14.768,12.514,26.69,27.283,26.69H414.795z"/>
			<path style="fill:#3E5959;" d="M414.795,296.442v35.587h-53.973v-71.173h17.793v8.897c0,14.768,12.514,26.69,27.283,26.69     H414.795z"/>
		</g>
		<rect x="111.122" y="386.001" style="fill:#E0F4FF;" width="303.673" height="17.793"/>
		<rect x="200.682" y="386.001" style="fill:#BBDCFF;" width="214.113" height="17.793"/>
	</g>
</g>















</svg>
