<?xml version="1.0" encoding="iso-8859-1"?>
<!-- Generator: Adobe Illustrator 19.0.0, SVG Export Plug-In . SVG Version: 6.00 Build 0)  -->
<svg xmlns="http://www.w3.org/2000/svg" xmlns:xlink="http://www.w3.org/1999/xlink" version="1.1" id="Layer_1" x="0px" y="0px" viewBox="0 0 512 512" style="enable-background:new 0 0 512 512;" xml:space="preserve" width="512" height="512">
<g>
	<circle style="fill:#76E2F8;" cx="256" cy="256" r="256"/>
	<path style="fill:#15CCEA;" d="M130.041,385.847l126.15,126.15c141.234-0.104,255.704-114.576,255.806-255.81L385.849,130.039   L147.61,152.278L130.041,385.847z"/>
	<g>
		<path style="fill:#FF641A;" d="M184.869,89.26c-41.821,17.988-77.422,53.328-95.607,95.606l35.87,39.192l41.395-0.911    c9.763-26.48,29.238-46.524,56.621-56.619l0.911-41.397L184.869,89.26z"/>
		<path style="fill:#F03800;" d="M327.131,89.26l-36.735,30.959l-1.544,46.308c25.924,9.558,46.331,28.709,56.621,56.619    l40.333,1.442l36.932-39.723C404.704,142.939,369.304,107.4,327.131,89.26z"/>
		<path style="fill:#FF641A;" d="M166.527,288.852l-62.538-0.969L89.26,327.13c17.865,41.534,53.039,77.299,95.608,95.609    l36.735-31.667l1.544-45.599C196.616,335.691,176.605,316.186,166.527,288.852z"/>
		<path style="fill:#F03800;" d="M345.473,288.852c-9.782,26.532-29.286,46.543-56.621,56.621l-0.912,40.688l39.191,36.579    c41.936-18.038,77.469-53.437,95.609-95.611l-41.54-41.669L345.473,288.852z"/>
		<path style="fill:#BBDCFF;" d="M351.65,256c0,11.59-2.384,22.563-6.177,32.852l77.268,38.276    c9.395-21.846,14.639-45.88,14.639-71.129c0-25.251-5.245-49.287-14.642-71.134l-77.265,38.28    C349.265,233.435,351.65,244.41,351.65,256z"/>
		<path style="fill:#E0F4FF;" d="M327.205,89.286l-38.26,77.228c-10.415-3.826-21.255-6.164-32.946-6.164    s-22.531,2.338-32.946,6.164l-38.26-77.228C206.687,79.934,230.706,74.62,256,74.62S305.313,79.934,327.205,89.286z"/>
		<path style="fill:#BBDCFF;" d="M288.946,166.514c-10.415-3.826-21.255-6.164-32.946-6.164V74.62    c25.294,0,49.313,5.314,71.205,14.666L288.946,166.514z"/>
		<path style="fill:#E0F4FF;" d="M160.35,256c0-11.59,2.384-22.564,6.177-32.854l-77.265-38.28    C79.865,206.713,74.62,230.749,74.62,256c0,25.249,5.245,49.284,14.64,71.13l77.267-38.278    C162.735,278.563,160.35,267.59,160.35,256z"/>
		<path style="fill:#E0F4FF;" d="M327.205,422.714c-21.892,9.352-45.911,14.666-71.205,14.666s-49.313-5.314-71.205-14.666    l38.26-77.229c10.415,3.827,21.255,6.165,32.946,6.165s22.531-2.338,32.946-6.165L327.205,422.714z"/>
		<path style="fill:#BBDCFF;" d="M288.946,345.485l38.26,77.229c-21.892,9.352-45.911,14.666-71.205,14.666v-85.73    C267.69,351.65,278.531,349.312,288.946,345.485z"/>
	</g>
</g>















</svg>
